<?xml version="1.0" encoding="UTF-8" standalone="no"?> <svg xmlns:inkscape="http://www.inkscape.org/namespaces/inkscape" xmlns:sodipodi="http://sodipodi.sourceforge.net/DTD/sodipodi-0.dtd" xmlns="http://www.w3.org/2000/svg" xmlns:svg="http://www.w3.org/2000/svg" version="1.1" id="svg2" width="415.74933" height="81.259735" viewBox="0 0 415.74933 81.259735" sodipodi:docname="cwt_full_logo.svg" inkscape:version="1.2.1 (9c6d41e410, 2022-07-14)"><defs id="defs6"><clipPath id="clipPath20"><path d="M 0,60.945 H 311.812 V 0 H 0 Z" id="path18"></path></clipPath></defs><g id="g10" inkscape:groupmode="layer" inkscape:label="Page 1" transform="matrix(1.3333333,0,0,-1.3333333,0,81.259733)"><path d="M 0,0 H 311.811 V 60.944 H 0 Z" style="fill:#263944;fill-opacity:1;fill-rule:nonzero;stroke:none" id="path12"></path><g id="g14"><g id="g16" clip-path="url(#clipPath20)"><g id="g22" transform="translate(34.0488,10.2197)"><path d="m 0,0 c -8.44,0 -15.715,5.066 -18.957,12.314 l 3.772,7.93 1.9,-6.412 5.606,11.702 2.303,-5.755 2.043,3.576 6.501,-11.798 4.814,10.111 2.128,-3.365 6.981,14.223 C 19.402,29.18 20.76,25.126 20.76,20.761 20.76,9.313 11.447,0 0,0 m 0,41.52 c 6.291,0 11.933,-2.817 15.743,-7.25 L 9.892,22.347 7.738,25.754 3.04,15.887 l -6.341,11.509 -1.761,-3.082 -2.455,6.136 -5.332,-11.131 -1.905,6.431 -5.16,-10.844 c -0.547,1.858 -0.845,3.822 -0.845,5.855 0,11.447 9.313,20.759 20.759,20.759 m 0,1.977 c -12.537,0 -22.737,-10.2 -22.737,-22.736 0,-6.036 2.368,-11.524 6.218,-15.6 l -2.649,-9.128 8.889,4.457 c 3.09,-1.575 6.581,-2.467 10.279,-2.467 12.538,0 22.737,10.201 22.737,22.738 0,12.536 -10.199,22.736 -22.737,22.736" style="fill:#00dd95;fill-opacity:1;fill-rule:nonzero;stroke:none" id="path24"></path></g><g id="g26" transform="translate(73.0547,37.9165)"><path d="M 0,0 C 3.169,0 6.602,-1.728 7.192,-5.815 H 3.345 C 2.798,-4.263 1.64,-3.563 0,-3.563 c -2.295,0 -3.804,-1.727 -3.804,-4.263 0,-2.251 1.487,-4.218 3.804,-4.24 1.662,0 2.995,0.83 3.41,2.469 H 7.257 C 6.689,-13.924 3.258,-15.63 0,-15.63 -3.891,-15.651 -7.825,-13.028 -7.847,-7.826 -7.825,-2.624 -3.891,0 0,0" style="fill:#ffffff;fill-opacity:1;fill-rule:nonzero;stroke:none" id="path28"></path></g><g id="g30" transform="translate(95.5024,22.4404)"><path d="M 0,0 H -4 V 6.142 H -8.722 V 0 h -4 v 15.3 h 4 V 9.749 H -4 V 15.3 h 4 z" style="fill:#ffffff;fill-opacity:1;fill-rule:nonzero;stroke:none" id="path32"></path></g><g id="g34" transform="translate(105.0977,31.73)"><path d="M 0,0 -1.728,-4.022 H 1.771 Z M 3.038,-7.366 H -2.995 L -3.892,-9.29 h -3.824 v 0.569 L -0.831,6.208 H 0.852 L 7.76,-8.721 V -9.29 H 3.935 Z" style="fill:#ffffff;fill-opacity:1;fill-rule:nonzero;stroke:none" id="path36"></path></g><g id="g38" transform="translate(112.8779,34.2432)"><path d="M 0,0 V 3.498 H 11.367 V 0 H 7.628 V -11.803 H 3.76 L 3.76,0 Z" style="fill:#ffffff;fill-opacity:1;fill-rule:nonzero;stroke:none" id="path40"></path></g><g id="g42" transform="translate(143.0415,37.5005)"><path d="M 0,0 2.602,-8.131 H 2.667 L 3.345,-5.53 5.29,0.24 H 9.181 V -0.349 L 3.869,-15.214 H 1.618 l -2.449,7.368 h -0.065 l -2.448,-7.368 h -2.164 l -5.378,14.865 V 0.24 h 3.957 l 1.968,-5.77 0.677,-2.601 h 0.066 L -1.661,0 Z" style="fill:#ffffff;fill-opacity:1;fill-rule:nonzero;stroke:none" id="path44"></path></g><g id="g46" transform="translate(161.7725,25.8721)"><path d="M 0,0 V -3.432 H -7.759 V 0 h 1.945 v 8.459 h -1.793 v 3.41 h 7.454 v -3.41 h -1.792 l 0,-8.459 z" style="fill:#ffffff;fill-opacity:1;fill-rule:nonzero;stroke:none" id="path48"></path></g><g id="g50" transform="translate(163.9131,34.2432)"><path d="M 0,0 V 3.498 H 11.367 V 0 H 7.63 V -11.803 H 3.76 L 3.76,0 Z" style="fill:#ffffff;fill-opacity:1;fill-rule:nonzero;stroke:none" id="path52"></path></g><g id="g54" transform="translate(190.2305,22.4404)"><path d="M 0,0 H -3.999 V 6.142 H -8.722 V 0 h -4.001 v 15.3 h 4.001 V 9.749 h 4.723 V 15.3 H 0 Z" style="fill:#ffffff;fill-opacity:1;fill-rule:nonzero;stroke:none" id="path56"></path></g><g id="g58" transform="translate(199.7373,34.2432)"><path d="M 0,0 V 3.498 H 11.366 V 0 H 7.628 V -11.803 H 3.76 L 3.76,0 Z" style="fill:#ffffff;fill-opacity:1;fill-rule:nonzero;stroke:none" id="path60"></path></g><g id="g62" transform="translate(220.2832,34.2432)"><path d="M 0,0 C -0.919,0.022 -1.88,0 -2.797,0 V -3.825 H 0 c 2.119,0 2.229,3.804 0,3.825 m 6.229,-11.234 v -0.569 H 1.857 L -0.766,-7.3 h -2.031 v -4.503 H -6.711 V 3.498 H 0 c 6.011,-0.022 7.104,-7.257 3.234,-9.88 z" style="fill:#ffffff;fill-opacity:1;fill-rule:nonzero;stroke:none" id="path64"></path></g><g id="g66" transform="translate(235.9102,31.73)"><path d="M 0,0 -1.727,-4.022 H 1.771 Z M 3.038,-7.366 H -2.995 L -3.891,-9.29 h -3.827 v 0.569 L -0.831,6.208 H 0.852 L 7.76,-8.721 V -9.29 H 3.935 Z" style="fill:#ffffff;fill-opacity:1;fill-rule:nonzero;stroke:none" id="path68"></path></g><g id="g70" transform="translate(249.5918,26.0029)"><path d="m 0,0 h 1.858 c 4.874,0 4.874,8.175 0,8.175 H 0 Z m 1.858,-3.563 h -5.77 v 15.301 h 5.77 c 9.968,-0.043 9.968,-15.258 0,-15.301" style="fill:#ffffff;fill-opacity:1;fill-rule:nonzero;stroke:none" id="path72"></path></g><g id="g74" transform="translate(270.9023,34.2432)"><path d="m 0,0 h -5.661 v -2.163 h 5.202 v -3.476 h -5.202 v -2.689 h 5.858 v -3.475 H -9.552 V 3.498 l 9.552,0 z" style="fill:#ffffff;fill-opacity:1;fill-rule:nonzero;stroke:none" id="path76"></path></g><g id="g78" transform="translate(280.3887,34.2432)"><path d="M 0,0 C -0.919,0.022 -1.881,0 -2.799,0 V -3.825 H 0 c 2.12,0 2.229,3.804 0,3.825 m 6.229,-11.234 v -0.569 H 1.856 L -0.767,-7.3 h -2.032 v -4.503 H -6.711 V 3.498 H 0 c 6.012,-0.022 7.103,-7.257 3.235,-9.88 z" style="fill:#ffffff;fill-opacity:1;fill-rule:nonzero;stroke:none" id="path80"></path></g><g id="g82" transform="translate(296.8037,26.9434)"><path d="m 0,0 c 0,1.071 -1.27,1.312 -2.798,1.399 -3.323,0.24 -5.51,1.377 -5.553,4.7 -0.13,6.601 11.76,6.601 11.672,0 h -3.715 c 0,2.032 -4.109,1.858 -4.241,0.043 C -4.722,4.983 -3.586,4.743 -2.209,4.59 0.83,4.262 3.803,3.803 3.803,-0.022 c 0,-6.426 -12.46,-6.536 -12.372,0.196 h 3.782 C -4.787,-1.77 0,-1.793 0,0" style="fill:#ffffff;fill-opacity:1;fill-rule:nonzero;stroke:none" id="path84"></path></g></g></g></g></svg> 