<?xml version="1.0" encoding="UTF-8"?> <svg xmlns="http://www.w3.org/2000/svg" width="53" height="52" viewBox="0 0 53 52" fill="none"><ellipse cx="25.1293" cy="26.8018" rx="25.1293" ry="25.1982" fill="#016D71"></ellipse><path d="M52.5257 25.1982C52.5257 38.8542 41.486 49.9223 27.8705 49.9223C14.2551 49.9223 3.21535 38.8542 3.21535 25.1982C3.21535 11.5423 14.2551 0.474138 27.8705 0.474138C41.486 0.474138 52.5257 11.5423 52.5257 25.1982Z" fill="url(#paint0_linear_738_10980)" stroke="#016D71" stroke-width="0.948276"></path><path d="M49.3274 25.1982C49.3274 37.083 39.7196 46.7153 27.8705 46.7153C16.0214 46.7153 6.41359 37.083 6.41359 25.1982C6.41359 13.3135 16.0214 3.68117 27.8705 3.68117C39.7196 3.68117 49.3274 13.3135 49.3274 25.1982Z" stroke="#016D71" stroke-width="0.948276"></path><path d="M39.8645 24.5636C39.8645 31.4254 35.1015 36.3087 28.0676 36.3087C21.3237 36.3087 15.8774 30.9356 15.8774 24.2823C15.8774 17.629 21.3237 12.2559 28.0676 12.2559C31.3511 12.2559 34.1135 13.444 36.2419 15.4031L32.924 18.5503C28.5837 14.4187 20.5126 17.5223 20.5126 24.2823C20.5126 28.477 23.9092 31.8764 28.0676 31.8764C32.8945 31.8764 34.7034 28.4624 34.9885 26.6924H28.0676V22.5559H39.6728C39.7859 23.1718 39.8645 23.7634 39.8645 24.5636Z" fill="#016D71"></path><defs><linearGradient id="paint0_linear_738_10980" x1="52.9998" y1="19.9295" x2="4.21147" y2="31.6659" gradientUnits="userSpaceOnUse"><stop stop-color="#5CE1E6"></stop><stop offset="0.916667" stop-color="#94FBFF"></stop></linearGradient></defs></svg> 