<?xml version="1.0" encoding="UTF-8"?> <svg xmlns="http://www.w3.org/2000/svg" width="53" height="52" viewBox="0 0 53 52" fill="none"><ellipse cx="25.1293" cy="26.8018" rx="25.1293" ry="25.1982" fill="#016D71"></ellipse><path d="M52.5257 25.1982C52.5257 38.8542 41.486 49.9223 27.8705 49.9223C14.2551 49.9223 3.21535 38.8542 3.21535 25.1982C3.21535 11.5423 14.2551 0.474138 27.8705 0.474138C41.486 0.474138 52.5257 11.5423 52.5257 25.1982Z" fill="url(#paint0_linear_738_16000)" stroke="#016D71" stroke-width="0.948276"></path><path d="M49.3274 25.1982C49.3274 37.083 39.7196 46.7153 27.8705 46.7153C16.0214 46.7153 6.41359 37.083 6.41359 25.1982C6.41359 13.3135 16.0214 3.68117 27.8705 3.68117C39.7196 3.68117 49.3274 13.3135 49.3274 25.1982Z" stroke="#016D71" stroke-width="0.948276"></path><path fill-rule="evenodd" clip-rule="evenodd" d="M41.1964 10.9192H14.5444V37.6458H41.1964V10.9192ZM35.0983 28.988H20.6565V31.5306H35.0983V28.988ZM23.3985 16.8756C21.3417 16.8756 20.6565 18.1907 20.6565 19.6432V25.2374C20.6565 27.2652 22.1262 27.6729 22.8459 27.6729C23.653 27.6729 24.1604 27.5188 24.5233 26.5721V27.4811H26.139V21.8734H23.513V23.1492H24.4842V24.6591C24.4842 25.6209 24.0114 26.1539 23.2946 26.1539C22.8836 26.1539 22.3174 25.7251 22.3174 25.0034V19.5557C22.3174 18.8339 22.8519 18.3327 23.4332 18.3327C24.0144 18.3327 24.4842 18.7418 24.4842 19.4636V20.3997H26.1375V19.4032C26.1375 18.0865 25.3666 16.8756 23.3985 16.8756ZM27.8571 17.0855V27.4977H29.5134V19.5074L30.8656 27.4902H32.2193L33.439 19.4907V27.4811H35.0968V17.0855H32.6545L31.4649 24.573L30.3311 17.0855H27.8571Z" fill="#016D71"></path><defs><linearGradient id="paint0_linear_738_16000" x1="52.9998" y1="19.9295" x2="4.21147" y2="31.6659" gradientUnits="userSpaceOnUse"><stop stop-color="#5CE1E6"></stop><stop offset="0.916667" stop-color="#94FBFF"></stop></linearGradient></defs></svg> 