<?xml version="1.0" encoding="UTF-8"?> <svg xmlns="http://www.w3.org/2000/svg" width="40" height="40" viewBox="0 0 40 40" fill="none"><ellipse cx="18.9655" cy="20.6167" rx="18.9655" ry="19.3833" fill="#016D71"></ellipse><path d="M39.5257 19.3833C39.5257 29.8363 31.2372 38.2924 21.0344 38.2924C10.8315 38.2924 2.54299 29.8363 2.54299 19.3833C2.54299 8.93025 10.8315 0.474138 21.0344 0.474138C31.2372 0.474138 39.5257 8.93025 39.5257 19.3833Z" fill="url(#paint0_linear_738_10826)" stroke="#016D71" stroke-width="0.948276"></path><path d="M37.1122 19.3833C37.1122 28.4739 29.9044 35.8255 21.0346 35.8255C12.1649 35.8255 4.95705 28.4739 4.95705 19.3833C4.95705 10.2928 12.1649 2.94118 21.0346 2.94118C29.9044 2.94118 37.1122 10.2928 37.1122 19.3833Z" stroke="#016D71" stroke-width="0.948276"></path><path fill-rule="evenodd" clip-rule="evenodd" d="M31.0918 8.39941H10.9771V28.9583H31.0918V8.39941ZM26.4894 22.2985H15.59V24.2544H26.4894V22.2985ZM17.6594 12.9813C16.107 12.9813 15.59 13.9929 15.59 15.1102V19.4134C15.59 20.9733 16.6991 21.2868 17.2423 21.2868C17.8514 21.2868 18.2344 21.1684 18.5083 20.4401V21.1393H19.7277V16.8257H17.7458V17.8071H18.4787V18.9686C18.4787 19.7084 18.1219 20.1184 17.581 20.1184C17.2707 20.1184 16.8434 19.7886 16.8434 19.2334V15.0429C16.8434 14.4877 17.2469 14.1021 17.6855 14.1021C18.1242 14.1021 18.4787 14.4168 18.4787 14.972V15.6921H19.7265V14.9256C19.7265 13.9128 19.1447 12.9813 17.6594 12.9813ZM21.0243 13.1427V21.1521H22.2744V15.0057L23.2949 21.1463H24.3166L25.2371 14.9929V21.1393H26.4883V13.1427H24.645L23.7472 18.9024L22.8915 13.1427H21.0243Z" fill="#016D71"></path><defs><linearGradient id="paint0_linear_738_10826" x1="39.9999" y1="15.3304" x2="3.10303" y2="24.0388" gradientUnits="userSpaceOnUse"><stop stop-color="#5CE1E6"></stop><stop offset="0.916667" stop-color="#94FBFF"></stop></linearGradient></defs></svg> 