<?xml version="1.0" encoding="UTF-8"?> <svg xmlns="http://www.w3.org/2000/svg" width="74" height="72" viewBox="0 0 74 72" fill="none"><ellipse cx="35.0862" cy="37.1101" rx="35.0862" ry="34.8899" fill="#016D71"></ellipse><path d="M73.5259 34.8899C73.5259 53.8946 58.0321 69.3056 38.9138 69.3056C19.7956 69.3056 4.30177 53.8946 4.30177 34.8899C4.30177 15.8851 19.7956 0.474138 38.9138 0.474138C58.0321 0.474138 73.5259 15.8851 73.5259 34.8899Z" fill="url(#paint0_linear_738_10894)" stroke="#016D71" stroke-width="0.948276"></path><path d="M69.0602 34.8898C69.0602 51.4421 55.5657 64.865 38.9137 64.865C22.2617 64.865 8.76711 51.4421 8.76711 34.8898C8.76711 18.3374 22.2617 4.91457 38.9137 4.91457C55.5657 4.91457 69.0602 18.3374 69.0602 34.8898Z" stroke="#016D71" stroke-width="0.948276"></path><path d="M38.9631 44.7222L42.1001 27.1786C45.09 27.1786 46.0333 27.5047 46.1697 28.8355C46.1697 28.8355 48.1757 28.0917 49.1874 26.5812C45.2396 24.762 41.273 24.6801 41.273 24.6801L38.9582 27.4832L38.9635 27.4829L36.6487 24.6798C36.6487 24.6798 32.6824 24.762 28.7346 26.5809C29.7453 28.0914 31.7524 28.8351 31.7524 28.8351C31.8895 27.5044 32.8314 27.1783 35.8013 27.1762L38.9631 44.7222ZM38.9621 23.8701C42.1532 23.8458 45.8062 24.361 49.5454 25.9818C50.0453 25.0874 50.1733 24.6919 50.1733 24.6919C46.086 23.0836 42.2582 22.5334 38.9621 22.5195C35.6653 22.5334 31.8375 23.0836 27.7505 24.6919C27.7505 24.6919 27.9329 25.179 28.3785 25.9818C32.1173 24.361 35.7699 23.8458 38.9621 23.8701Z" fill="#016D71"></path><defs><linearGradient id="paint0_linear_738_10894" x1="74.0001" y1="27.5947" x2="5.94315" y2="44.1036" gradientUnits="userSpaceOnUse"><stop stop-color="#5CE1E6"></stop><stop offset="0.916667" stop-color="#94FBFF"></stop></linearGradient></defs></svg> 