<?xml version="1.0" encoding="UTF-8"?> <svg xmlns="http://www.w3.org/2000/svg" width="55" height="55" viewBox="0 0 55 55" fill="none"><ellipse cx="26.0776" cy="28.3483" rx="26.0776" ry="26.652" fill="#016D71"></ellipse><path d="M54.5258 26.652C54.5258 41.1194 43.053 52.8298 28.9223 52.8298C14.7916 52.8298 3.31886 41.1194 3.31886 26.652C3.31886 12.1846 14.7916 0.474138 28.9223 0.474138C43.053 0.474138 54.5258 12.1846 54.5258 26.652Z" fill="url(#paint0_linear_738_10859)" stroke="#016D71" stroke-width="0.948276"></path><path d="M51.2067 26.652C51.2067 39.246 41.2199 49.4378 28.9222 49.4378C16.6245 49.4378 6.63771 39.246 6.63771 26.652C6.63771 14.058 16.6245 3.86623 28.9222 3.86623C41.2199 3.86623 51.2067 14.058 51.2067 26.652Z" stroke="#016D71" stroke-width="0.948276"></path><path fill-rule="evenodd" clip-rule="evenodd" d="M32.6361 21.0874C32.75 21.2039 32.814 21.3618 32.814 21.5264V24.4755C32.814 24.6402 32.75 24.7981 32.6361 24.9145C32.5222 25.0309 32.3676 25.0963 32.2065 25.0963C32.0454 25.0963 31.8909 25.0309 31.777 24.9145C31.6631 24.7981 31.5991 24.6402 31.5991 24.4755V21.5264C31.5991 21.3618 31.6631 21.2039 31.777 21.0874C31.8909 20.971 32.0454 20.9056 32.2065 20.9056C32.3676 20.9056 32.5222 20.971 32.6361 21.0874ZM35.9012 18.7981C36.0152 18.9145 36.0792 19.0724 36.0792 19.2371V25.6784C36.0792 25.8431 36.0152 26.001 35.9012 26.1174C35.7873 26.2338 35.6328 26.2992 35.4717 26.2992C35.3106 26.2992 35.1561 26.2338 35.0421 26.1174C34.9282 26.001 34.8642 25.8431 34.8642 25.6784V19.2371C34.8642 19.0724 34.9282 18.9145 35.0421 18.7981C35.1561 18.6816 35.3106 18.6162 35.4717 18.6162C35.6328 18.6162 35.7873 18.6816 35.9012 18.7981ZM39.2981 21.2889C39.3286 21.3642 39.3443 21.4449 39.3443 21.5264V24.4755C39.3443 24.557 39.3286 24.6378 39.2981 24.7131C39.2675 24.7884 39.2228 24.8568 39.1664 24.9145C39.11 24.9722 39.043 25.0179 38.9693 25.0491C38.8956 25.0803 38.8166 25.0963 38.7368 25.0963C38.6571 25.0963 38.5781 25.0803 38.5044 25.0491C38.4307 25.0179 38.3637 24.9722 38.3073 24.9145C38.2509 24.8568 38.2061 24.7884 38.1756 24.7131C38.1451 24.6378 38.1294 24.557 38.1294 24.4755V21.5264C38.1294 21.4449 38.1451 21.3642 38.1756 21.2889C38.2061 21.2135 38.2509 21.1451 38.3073 21.0874C38.3637 21.0298 38.4307 20.9841 38.5044 20.9529C38.5781 20.9217 38.6571 20.9056 38.7368 20.9056C38.8166 20.9056 38.8956 20.9217 38.9693 20.9529C39.043 20.9841 39.11 21.0298 39.1664 21.0874C39.2228 21.1451 39.2675 21.2135 39.2981 21.2889ZM42.4315 22.756C42.5455 22.8724 42.6095 23.0303 42.6095 23.195V24.4755C42.6095 24.6402 42.5455 24.7981 42.4315 24.9145C42.3176 25.0309 42.1631 25.0963 42.002 25.0963C41.8409 25.0963 41.6864 25.0309 41.5724 24.9145C41.4585 24.7981 41.3945 24.6402 41.3945 24.4755V23.195C41.3945 23.0303 41.4585 22.8724 41.5724 22.756C41.6864 22.6395 41.8409 22.5741 42.002 22.5741C42.1631 22.5741 42.3176 22.6395 42.4315 22.756ZM19.6714 21.2877C19.7015 21.3635 19.7165 21.4447 19.7155 21.5265H19.7535V24.4755C19.7545 24.5574 19.7395 24.6386 19.7093 24.7144C19.6792 24.7902 19.6345 24.859 19.5778 24.9169C19.5212 24.9747 19.4539 25.0204 19.3797 25.0513C19.3055 25.0821 19.2261 25.0974 19.146 25.0964C19.066 25.0974 18.9865 25.0821 18.9124 25.0513C18.8382 25.0204 18.7708 24.9747 18.7142 24.9169C18.6576 24.859 18.6129 24.7902 18.5827 24.7144C18.5525 24.6386 18.5375 24.5574 18.5386 24.4755V21.5265C18.5386 21.1773 18.7664 20.9056 19.1081 20.9056C19.1881 20.9046 19.2676 20.92 19.3417 20.9508C19.4159 20.9816 19.4833 21.0273 19.5399 21.0852C19.5965 21.143 19.6412 21.2119 19.6714 21.2877ZM22.9745 18.9983C23.0046 19.0741 23.0197 19.1553 23.0186 19.2371V25.6784C23.0197 25.7603 23.0046 25.8415 22.9745 25.9173C22.9443 25.9931 22.8996 26.0619 22.843 26.1198C22.7864 26.1776 22.719 26.2233 22.6448 26.2542C22.5707 26.285 22.4912 26.3003 22.4112 26.2993C22.3311 26.3003 22.2517 26.285 22.1775 26.2542C22.1033 26.2233 22.036 26.1776 21.9794 26.1198C21.9227 26.0619 21.878 25.9931 21.8479 25.9173C21.8177 25.8415 21.8027 25.7603 21.8037 25.6784V19.2371C21.8027 19.1553 21.8177 19.0741 21.8479 18.9983C21.878 18.9225 21.9227 18.8536 21.9794 18.7958C22.036 18.7379 22.1033 18.6922 22.1775 18.6614C22.2517 18.6306 22.3311 18.6152 22.4112 18.6163C22.4912 18.6152 22.5707 18.6306 22.6448 18.6614C22.719 18.6922 22.7864 18.7379 22.843 18.7958C22.8996 18.8536 22.9443 18.9225 22.9745 18.9983ZM26.2396 21.2877C26.2698 21.3635 26.2848 21.4447 26.2838 21.5265V24.4755C26.2848 24.5574 26.2698 24.6386 26.2396 24.7144C26.2095 24.7902 26.1648 24.859 26.1081 24.9169C26.0515 24.9747 25.9842 25.0204 25.91 25.0513C25.8358 25.0821 25.7564 25.0974 25.6763 25.0964C25.5963 25.0974 25.5168 25.0821 25.4427 25.0513C25.3685 25.0204 25.3011 24.9747 25.2445 24.9169C25.1879 24.859 25.1432 24.7902 25.113 24.7144C25.0829 24.6386 25.0678 24.5574 25.0689 24.4755V21.5265C25.0678 21.4447 25.0829 21.3635 25.113 21.2877C25.1432 21.2119 25.1879 21.143 25.2445 21.0852C25.3011 21.0273 25.3685 20.9816 25.4427 20.9508C25.5168 20.92 25.5963 20.9046 25.6763 20.9056C25.7564 20.9046 25.8358 20.92 25.91 20.9508C25.9842 20.9816 26.0515 21.0273 26.1081 21.0852C26.1648 21.143 26.2095 21.2119 26.2396 21.2877ZM16.4503 23.1951C16.4514 23.1132 16.4363 23.032 16.4062 22.9562C16.376 22.8804 16.3313 22.8116 16.2747 22.7537C16.2181 22.6959 16.1507 22.6502 16.0765 22.6193C16.0024 22.5885 15.9229 22.5732 15.8429 22.5742C15.7628 22.5732 15.6834 22.5885 15.6092 22.6193C15.535 22.6502 15.4677 22.6959 15.4111 22.7537C15.3544 22.8116 15.3097 22.8804 15.2796 22.9562C15.2494 23.032 15.2344 23.1132 15.2354 23.1951V24.4756C15.2344 24.5574 15.2494 24.6386 15.2796 24.7144C15.3097 24.7902 15.3544 24.859 15.4111 24.9169C15.4677 24.9747 15.535 25.0204 15.6092 25.0513C15.6834 25.0821 15.7628 25.0975 15.8429 25.0964C15.9229 25.0975 16.0024 25.0821 16.0765 25.0513C16.1507 25.0204 16.2181 24.9747 16.2747 24.9169C16.3313 24.859 16.376 24.7902 16.4062 24.7144C16.4363 24.6386 16.4514 24.5574 16.4503 24.4756V23.1951ZM23.0187 28.3945H24.2336V33.2449H23.0187V28.3945ZM33.8772 29.7914C33.8393 29.7526 33.4596 29.5198 32.8521 29.5198C32.0928 29.5198 31.5233 30.063 31.5233 30.8003C31.5233 31.5375 32.0548 32.0808 32.8521 32.0808C33.3758 32.0808 33.739 31.8839 33.8531 31.8221L33.8532 31.822L33.8533 31.8219C33.8632 31.8166 33.8712 31.8123 33.8772 31.8092V33.1285L33.8487 33.1358C33.6774 33.1802 33.2774 33.2837 32.7762 33.2837C31.4094 33.2837 30.2324 32.3524 30.2324 30.7615C30.2324 29.3258 31.2955 28.2393 32.7762 28.2393C33.1697 28.2393 33.4907 28.3134 33.6891 28.3592C33.7778 28.3797 33.842 28.3945 33.8772 28.3945V29.7914ZM21.3481 29.7914C21.3102 29.7526 20.9305 29.5198 20.323 29.5198C19.5637 29.5198 18.9942 30.063 18.9942 30.8003C18.9942 31.5375 19.5257 32.0808 20.323 32.0808C20.8467 32.0808 21.2099 31.8839 21.324 31.8221L21.3417 31.8125L21.3481 31.8092V33.1285L21.3196 33.1358C21.1483 33.1802 20.7483 33.2837 20.2471 33.2837C18.9183 33.2837 17.7033 32.3524 17.7033 30.7615C17.7033 29.3258 18.7664 28.2393 20.2471 28.2393C20.6406 28.2393 20.9616 28.3134 21.16 28.3592L21.16 28.3592C21.2487 28.3797 21.3129 28.3945 21.3481 28.3945V29.7914ZM40.1418 30.8391C40.1418 32.236 39.0787 33.3613 37.6359 33.3613C36.1932 33.3613 35.1301 32.236 35.1301 30.8391C35.1301 29.4422 36.1932 28.3169 37.6359 28.3169C39.1167 28.3169 40.1418 29.4422 40.1418 30.8391ZM37.6359 29.5586C36.9146 29.5586 36.383 30.1406 36.383 30.8391C36.383 31.5375 36.9146 32.1196 37.6359 32.1196C38.3573 32.1196 38.8888 31.5375 38.8888 30.8391C38.8888 30.1406 38.3573 29.5586 37.6359 29.5586ZM28.7517 29.5198C28.7517 29.5198 28.2202 29.3646 27.8025 29.3646C27.3089 29.3646 27.0432 29.5198 27.0432 29.7526C27.0432 30.0211 27.2988 30.1154 27.4907 30.1862C27.5207 30.1973 27.5491 30.2077 27.5747 30.2182L27.9164 30.3346C28.6758 30.6063 29.0554 31.1495 29.0554 31.7316C29.0554 32.9345 27.9923 33.3613 27.0811 33.3613C26.5617 33.3613 26.0669 33.2859 25.8737 33.2565L25.8736 33.2565L25.8736 33.2564L25.8735 33.2564L25.8735 33.2564C25.8267 33.2493 25.7977 33.2449 25.7903 33.2449V32.1196C25.9042 32.1584 26.3977 32.3136 26.9293 32.3136C27.5367 32.3136 27.8025 32.1196 27.8025 31.848C27.8025 31.6151 27.5747 31.4599 27.271 31.3823C27.195 31.3435 27.0811 31.3047 27.0052 31.3047C26.3218 31.0719 25.7903 30.6839 25.7903 29.869C25.7903 28.9765 26.4737 28.3557 27.5747 28.3557C28.0273 28.3557 28.48 28.4537 28.6658 28.494C28.7137 28.5044 28.7439 28.5109 28.7517 28.5109V29.5198ZM29.5489 23.1951C29.5499 23.1132 29.5349 23.032 29.5047 22.9562C29.4746 22.8804 29.4299 22.8116 29.3733 22.7537C29.3166 22.6959 29.2493 22.6502 29.1751 22.6193C29.1009 22.5885 29.0215 22.5732 28.9414 22.5742C28.8614 22.5732 28.7819 22.5885 28.7078 22.6193C28.6336 22.6502 28.5662 22.6959 28.5096 22.7537C28.453 22.8116 28.4083 22.8804 28.3781 22.9562C28.348 23.032 28.3329 23.1132 28.334 23.1951V24.4756C28.3329 24.5574 28.348 24.6386 28.3781 24.7144C28.4083 24.7902 28.453 24.859 28.5096 24.9169C28.5662 24.9747 28.6336 25.0204 28.7078 25.0513C28.7819 25.0821 28.8614 25.0975 28.9414 25.0964C29.0215 25.0975 29.1009 25.0821 29.1751 25.0513C29.2493 25.0204 29.3166 24.9747 29.3733 24.9169C29.4299 24.859 29.4746 24.7902 29.5047 24.7144C29.5349 24.6386 29.5499 24.5574 29.5489 24.4756V23.1951Z" fill="#016D71"></path><defs><linearGradient id="paint0_linear_738_10859" x1="54.9999" y1="21.0793" x2="4.26673" y2="33.0533" gradientUnits="userSpaceOnUse"><stop stop-color="#5CE1E6"></stop><stop offset="0.916667" stop-color="#94FBFF"></stop></linearGradient></defs></svg> 