<?xml version="1.0" encoding="UTF-8"?> <svg xmlns="http://www.w3.org/2000/svg" width="29" height="29" viewBox="0 0 29 29" fill="none"><ellipse cx="13.75" cy="14.9472" rx="13.75" ry="14.0529" fill="#016D71"></ellipse><path d="M28.681 14.0529C28.681 21.6445 22.6612 27.7868 15.25 27.7868C7.83876 27.7868 1.81897 21.6445 1.81897 14.0529C1.81897 6.46125 7.83876 0.318966 15.25 0.318966C22.6612 0.318966 28.681 6.46125 28.681 14.0529Z" fill="url(#paint0_linear_738_15970)" stroke="#016D71" stroke-width="0.637931"></path><path d="M26.931 14.0529C26.931 20.6567 21.6947 25.9982 15.25 25.9982C8.80526 25.9982 3.56897 20.6567 3.56897 14.0529C3.56897 7.44907 8.80526 2.10754 15.25 2.10754C21.6947 2.10754 26.931 7.44907 26.931 14.0529Z" stroke="#016D71" stroke-width="0.637931"></path><path d="M11.6384 13.6241V10.561H12.3675V12.445C12.726 12.0073 13.2194 11.8809 13.7055 11.8809C14.5198 11.8809 15.4239 12.4437 15.4239 13.6584C15.4239 13.8034 15.4148 13.9429 15.3875 14.0743C15.5333 13.4809 16.1616 13.2618 17.1472 13.2375C17.4571 13.2263 17.8126 13.2263 18.0951 13.2263V13.1422C18.0951 12.5913 17.7573 12.3678 17.1654 12.3678C16.7279 12.3678 16.4089 12.5545 16.3725 12.872H15.5977C15.6804 12.0689 16.5092 11.8635 17.2299 11.8635C17.8764 11.8635 18.4421 12.0316 18.6973 12.4985L18.4324 11.9755H19.2891L20.5378 14.5437L21.7865 11.9749H22.5418L20.2814 16.5229H19.4635L20.1137 15.2528L18.6979 12.5259C18.7769 12.6847 18.8194 12.8714 18.8194 13.1049V14.6364C18.8194 14.8519 18.8255 15.066 18.8437 15.2621H18.1668C18.1484 15.1041 18.1391 14.945 18.1389 14.7859C17.7725 15.2428 17.3368 15.3835 16.7292 15.3835C15.8299 15.3835 15.3486 14.8979 15.3486 14.3283C15.3486 14.2349 15.3577 14.1515 15.3711 14.0761C15.1888 14.8519 14.5447 15.3748 13.6897 15.3748C13.1611 15.3748 12.6604 15.1787 12.3529 14.7958C12.3529 14.9452 12.3438 15.1034 12.3286 15.2528H11.6116C11.6238 15.01 11.6359 14.7205 11.6359 14.4777V13.824H8.70103C8.74053 14.5057 9.19808 14.9073 9.82699 14.9073C10.2633 14.9073 10.6503 14.7205 10.7798 14.3283H11.5332C11.3874 15.1314 10.5549 15.4022 9.83792 15.4022C8.53575 15.4153 7.9585 14.6763 7.9585 13.6864C7.9585 12.5944 8.5552 11.8747 9.8519 11.8747C10.8776 11.8747 11.6323 12.4263 11.6384 13.6216V13.6247V13.6241ZM17.1904 13.7381C16.525 13.7592 16.1148 13.8831 16.1148 14.3295C16.1148 14.619 16.3336 14.9334 16.9078 14.9334C17.6734 14.9334 18.0836 14.5038 18.0836 13.8041V13.7231C17.8101 13.7231 17.482 13.7269 17.1818 13.7368H17.1891L17.1904 13.7381ZM13.5081 14.9054C14.1825 14.9054 14.648 14.4036 14.648 13.6478C14.648 12.892 14.1813 12.3902 13.4977 12.3902C12.8233 12.3902 12.3493 12.892 12.3493 13.6478C12.3493 14.4036 12.8141 14.9054 13.4886 14.9054H13.5068H13.5081ZM10.8648 13.3402C10.8381 12.6398 10.3459 12.3777 9.81666 12.3777C9.24304 12.3777 8.78732 12.6728 8.71379 13.3402H10.8648Z" fill="#016D71"></path><defs><linearGradient id="paint0_linear_738_15970" x1="29" y1="11.1145" x2="2.24978" y2="17.4281" gradientUnits="userSpaceOnUse"><stop stop-color="#5CE1E6"></stop><stop offset="0.916667" stop-color="#94FBFF"></stop></linearGradient></defs></svg> 