<?xml version="1.0" encoding="UTF-8"?> <svg xmlns="http://www.w3.org/2000/svg" width="48" height="48" viewBox="0 0 48 48" fill="none"><ellipse cx="22.7586" cy="24.7401" rx="22.7586" ry="23.2599" fill="#016D71"></ellipse><path d="M47.526 23.2599C47.526 35.8539 37.5392 46.0457 25.2415 46.0457C12.9438 46.0457 2.95705 35.8539 2.95705 23.2599C2.95705 10.6659 12.9438 0.474138 25.2415 0.474138C37.5392 0.474138 47.526 10.6659 47.526 23.2599Z" fill="url(#paint0_linear_738_11046)" stroke="#016D71" stroke-width="0.948276"></path><path d="M44.6294 23.26C44.6294 34.2191 35.9394 43.0854 25.2415 43.0854C14.5435 43.0854 5.85353 34.2191 5.85353 23.26C5.85353 12.3009 14.5435 3.43459 25.2415 3.43459C35.9394 3.43459 44.6294 12.3009 44.6294 23.26Z" stroke="#016D71" stroke-width="0.948276"></path><path fill-rule="evenodd" clip-rule="evenodd" d="M17.397 21.9317H25.3732V13.7798H17.397V21.9317ZM26.3733 21.9317H34.3494V13.7798H26.3733V21.9317ZM25.373 30.9354H17.397V22.7835H25.373V30.9354ZM26.2041 30.9354H34.1802V22.7835H26.2041V30.9354Z" fill="#016D71"></path><defs><linearGradient id="paint0_linear_738_11046" x1="48.0002" y1="18.3965" x2="3.72393" y2="28.8465" gradientUnits="userSpaceOnUse"><stop stop-color="#5CE1E6"></stop><stop offset="0.916667" stop-color="#94FBFF"></stop></linearGradient></defs></svg> 