<?xml version="1.0" encoding="UTF-8"?> <svg xmlns="http://www.w3.org/2000/svg" width="72" height="72" viewBox="0 0 72 72" fill="none"><ellipse cx="34.1379" cy="37.1101" rx="34.1379" ry="34.8899" fill="#016D71"></ellipse><path d="M71.5258 34.8899C71.5258 53.9069 56.4444 69.3056 37.8621 69.3056C19.2797 69.3056 4.19826 53.9069 4.19826 34.8899C4.19826 15.8728 19.2797 0.474138 37.8621 0.474138C56.4444 0.474138 71.5258 15.8728 71.5258 34.8899Z" fill="url(#paint0_linear_738_10884)" stroke="#016D71" stroke-width="0.948276"></path><path d="M67.1809 34.8898C67.1809 51.4544 54.0447 64.865 37.8619 64.865C21.6792 64.865 8.54299 51.4544 8.54299 34.8898C8.54299 18.3251 21.6792 4.91457 37.8619 4.91457C54.0447 4.91457 67.1809 18.3251 67.1809 34.8898Z" stroke="#016D71" stroke-width="0.948276"></path><path d="M26.3695 15.1189C22.7072 15.1189 19.7583 18.1327 19.7583 21.8757V45.3665C19.7583 49.1094 22.7072 52.1233 26.3695 52.1233H38.8269V37.6569H35.084V32.4485H38.8269V27.9987C38.8269 24.5028 41.0384 21.2928 46.1328 21.2928C48.1954 21.2928 49.7207 21.4952 49.7207 21.4952L49.6007 26.359C49.6007 26.359 48.0452 26.344 46.3477 26.344C44.5106 26.344 44.2161 27.2091 44.2161 28.6452V32.4485H49.7467L49.5057 37.6569H44.2161V52.1233H49.354C53.0163 52.1233 55.9652 49.1095 55.9652 45.3665V21.8757C55.9652 18.1328 53.0163 15.1189 49.354 15.1189H26.3694L26.3695 15.1189Z" fill="#016D71"></path><defs><linearGradient id="paint0_linear_738_10884" x1="72" y1="27.5947" x2="5.58565" y2="43.2698" gradientUnits="userSpaceOnUse"><stop stop-color="#5CE1E6"></stop><stop offset="0.916667" stop-color="#94FBFF"></stop></linearGradient></defs></svg> 