<?xml version="1.0" encoding="UTF-8"?> <svg xmlns="http://www.w3.org/2000/svg" width="48" height="48" viewBox="0 0 48 48" fill="none"><ellipse cx="22.7586" cy="24.7401" rx="22.7586" ry="23.2599" fill="#016D71"></ellipse><path d="M47.526 23.2599C47.526 35.8539 37.5392 46.0457 25.2415 46.0457C12.9438 46.0457 2.95705 35.8539 2.95705 23.2599C2.95705 10.6659 12.9438 0.474138 25.2415 0.474138C37.5392 0.474138 47.526 10.6659 47.526 23.2599Z" fill="url(#paint0_linear_738_11024)" stroke="#016D71" stroke-width="0.948276"></path><path d="M44.6294 23.26C44.6294 34.2191 35.9394 43.0854 25.2415 43.0854C14.5435 43.0854 5.85353 34.2191 5.85353 23.26C5.85353 12.3009 14.5435 3.43459 25.2415 3.43459C35.9394 3.43459 44.6294 12.3009 44.6294 23.26Z" stroke="#016D71" stroke-width="0.948276"></path><path fill-rule="evenodd" clip-rule="evenodd" d="M15.6097 23.8621L15.9632 23.7287L15.9638 23.7304L38.2792 15.4243L38.5176 16.0764L15.2022 24.75L15.2022 24.75L15.1985 24.7396L14.864 23.8151L14.8685 23.8135L11.9658 15.668L12.604 15.4243L15.509 23.5796L15.5098 23.5793L15.6097 23.8621ZM24.9112 29.6209L24.7575 30.5009H35.7961L35.9653 29.5032H26.441L28.5855 26.6278L28.7394 25.7478H25.5493L25.3724 26.7455H27.0482L24.9112 29.6209ZM24.0964 24.3415L23.9272 25.3078H25.2648L25.434 24.3415H24.0964ZM13.2958 25.7478L13.8724 29.189H15.3637L17.0933 25.7478H15.8096L14.8487 27.9241L14.6334 25.7478H13.2958ZM32.9518 25.7478L32.36 29.1889H33.6975L33.9974 27.437C34.0741 26.9971 34.228 26.7299 34.643 26.7299C35.0196 26.7299 35.0582 27.0284 35.0044 27.374L34.6892 29.1889H36.0267L36.3804 27.1305C36.542 26.1797 36.219 25.6533 35.3273 25.6533C34.8198 25.6533 34.4586 25.8735 34.0819 26.29L34.1742 25.7478H32.9518ZM20.491 29.1889L20.491 29.189V29.1889H20.491ZM21.083 25.7478L20.491 29.1889H21.8288L22.0363 28.0024C22.1592 27.2641 22.482 26.9969 23.0279 26.9969C23.1 26.9969 23.1722 27.0114 23.2406 27.0251C23.2597 27.0289 23.2785 27.0327 23.2969 27.0361L23.5352 25.6692C23.5274 25.6682 23.5198 25.6672 23.5122 25.6662C23.46 25.6594 23.413 25.6533 23.3661 25.6533C22.8434 25.6533 22.4744 25.905 22.19 26.4469H22.1823L22.2975 25.7478H21.083ZM29.9386 27.4371C30.0078 27.0522 30.223 26.5728 30.6842 26.5728C31.0301 26.5493 31.1839 26.9343 31.0995 27.4371C30.9842 28.0893 30.715 28.372 30.3613 28.372C30.0153 28.372 29.831 28.0893 29.9386 27.4371ZM30.7613 25.6535C29.6234 25.6535 28.7395 26.3136 28.5318 27.5076C28.3319 28.6861 29.0623 29.2913 30.1384 29.2913C31.2222 29.2913 32.1602 28.7021 32.3753 27.4371C32.56 26.3686 31.9527 25.6535 30.7613 25.6535ZM19.2457 27.0835H18.0311C18.0926 26.7141 18.354 26.4863 18.7538 26.4863C18.8268 26.4856 18.899 26.5013 18.9654 26.5324C19.0317 26.5635 19.0905 26.6093 19.1375 26.6664C19.1845 26.7234 19.2186 26.7904 19.2373 26.8626C19.256 26.9347 19.2589 27.0101 19.2457 27.0835ZM17.9082 27.7826H20.4602C20.6985 26.5333 20.0912 25.6535 18.846 25.6533C17.7698 25.6533 16.8167 26.3763 16.6167 27.5075C16.4246 28.6625 17.1472 29.2911 18.2311 29.2911C19.0075 29.2911 19.907 29.0081 20.2837 28.1518H19.0075C18.9481 28.2465 18.8662 28.3243 18.7694 28.3779C18.6726 28.4314 18.5641 28.4591 18.454 28.4583C18.1004 28.4583 17.8389 28.1833 17.9082 27.7826ZM23.2585 29.189H24.5959L25.1878 25.7478H23.8503L23.2585 29.189Z" fill="#016D71"></path><defs><linearGradient id="paint0_linear_738_11024" x1="48.0002" y1="18.3965" x2="3.72393" y2="28.8465" gradientUnits="userSpaceOnUse"><stop stop-color="#5CE1E6"></stop><stop offset="0.916667" stop-color="#94FBFF"></stop></linearGradient></defs></svg> 