<?xml version="1.0" encoding="UTF-8"?> <svg xmlns="http://www.w3.org/2000/svg" width="48" height="46" viewBox="0 0 48 46" fill="none"><ellipse cx="22.7586" cy="23.7092" rx="22.7586" ry="22.2907" fill="#016D71"></ellipse><path d="M47.526 22.2907C47.526 34.3305 37.5582 44.1074 25.2415 44.1074C12.9248 44.1074 2.95705 34.3305 2.95705 22.2907C2.95705 10.251 12.9248 0.474138 25.2415 0.474138C37.5582 0.474138 47.526 10.251 47.526 22.2907Z" fill="url(#paint0_linear_738_15980)" stroke="#016D71" stroke-width="0.948276"></path><path d="M44.6294 22.2907C44.6294 32.7636 35.9585 41.2703 25.2415 41.2703C14.5245 41.2703 5.85353 32.7636 5.85353 22.2907C5.85353 11.8177 14.5245 3.31105 25.2415 3.31105C35.9585 3.31105 44.6294 11.8177 44.6294 22.2907Z" stroke="#016D71" stroke-width="0.948276"></path><path d="M19.2632 21.6106V16.752H20.4701V19.7402C21.0635 19.046 21.8801 18.8455 22.6847 18.8455C24.0324 18.8455 25.529 19.7383 25.529 21.665C25.529 21.8951 25.5139 22.1163 25.4686 22.3246C25.71 21.3835 26.75 21.0359 28.3813 20.9974C28.8942 20.9796 29.4826 20.9796 29.9502 20.9796V20.8463C29.9502 19.9723 29.391 19.6178 28.4114 19.6178C27.6873 19.6178 27.1593 19.9141 27.0989 20.4177H25.8166C25.9534 19.1438 27.3252 18.8179 28.5181 18.8179C29.5882 18.8179 30.5245 19.0845 30.9469 19.8252L30.5084 18.9956H31.9265L33.9933 23.0692L36.0602 18.9947H37.3103L33.5689 26.2086H32.2152L33.2913 24.1941L30.9479 19.8686C31.0787 20.1205 31.1491 20.4167 31.1491 20.787V23.2164C31.1491 23.5581 31.1591 23.8978 31.1893 24.2089H30.0689C30.0385 23.9581 30.023 23.7059 30.0227 23.4534C29.4162 24.1783 28.6951 24.4014 27.6893 24.4014C26.2008 24.4014 25.4043 23.6312 25.4043 22.7276C25.4043 22.5794 25.4193 22.4471 25.4415 22.3276C25.1397 23.5581 24.0737 24.3876 22.6586 24.3876C21.7836 24.3876 20.9548 24.0765 20.4459 23.4692C20.4459 23.7062 20.4308 23.957 20.4057 24.1941H19.2189C19.239 23.8089 19.2591 23.3497 19.2591 22.9646V21.9276H14.4014C14.4668 23.009 15.2241 23.646 16.265 23.646C16.9872 23.646 17.6278 23.3497 17.842 22.7276H19.0892C18.8478 24.0015 17.4699 24.4311 16.2831 24.4311C14.1278 24.4518 13.1724 23.2796 13.1724 21.7094C13.1724 19.9773 14.16 18.8357 16.3063 18.8357C18.004 18.8357 19.2531 19.7106 19.2632 21.6067V21.6116V21.6106ZM28.4527 21.7914C27.3514 21.8249 26.6725 22.0215 26.6725 22.7295C26.6725 23.1887 27.0346 23.6874 27.985 23.6874C29.2522 23.6874 29.9311 23.006 29.9311 21.896V21.7677C29.4785 21.7677 28.9354 21.7736 28.4386 21.7894H28.4507L28.4527 21.7914ZM22.3579 23.643C23.4742 23.643 24.2446 22.847 24.2446 21.6482C24.2446 20.4493 23.4722 19.6533 22.3408 19.6533C21.2244 19.6533 20.4399 20.4493 20.4399 21.6482C20.4399 22.847 21.2093 23.643 22.3257 23.643H22.3558H22.3579ZM17.9829 21.1603C17.9386 20.0493 17.1239 19.6336 16.2479 19.6336C15.2985 19.6336 14.5442 20.1017 14.4225 21.1603H17.9829Z" fill="#016D71"></path><defs><linearGradient id="paint0_linear_738_15980" x1="48.0002" y1="17.63" x2="3.93053" y2="28.4835" gradientUnits="userSpaceOnUse"><stop stop-color="#5CE1E6"></stop><stop offset="0.916667" stop-color="#94FBFF"></stop></linearGradient></defs></svg> 