<?xml version="1.0" encoding="UTF-8"?> <svg xmlns="http://www.w3.org/2000/svg" width="58" height="58" viewBox="0 0 58 58" fill="none"><ellipse cx="27.5" cy="29.8943" rx="27.5" ry="28.1057" fill="#016D71"></ellipse><path d="M57.5259 28.1057C57.5259 43.376 45.4163 55.7373 30.5 55.7373C15.5837 55.7373 3.47414 43.376 3.47414 28.1057C3.47414 12.8354 15.5837 0.474138 30.5 0.474138C45.4163 0.474138 57.5259 12.8354 57.5259 28.1057Z" fill="url(#paint0_linear_738_11002)" stroke="#016D71" stroke-width="0.948276"></path><path d="M54.0259 28.1058C54.0259 41.4005 43.4833 52.1603 30.5 52.1603C17.5167 52.1603 6.97414 41.4005 6.97414 28.1058C6.97414 14.8111 17.5167 4.05129 30.5 4.05129C43.4833 4.05129 54.0259 14.8111 54.0259 28.1058Z" stroke="#016D71" stroke-width="0.948276"></path><path fill-rule="evenodd" clip-rule="evenodd" d="M43.1818 12.1792L30.4824 18.1695V24.0173L37.9834 20.4872V32.6106L30.4824 36.1406V41.9883L43.1818 35.998V12.1792ZM17.8179 12.1792L30.4823 18.1696V24.0173L23.0162 20.4873V32.6106L30.4823 36.1406V41.9883L17.8179 35.998V12.1792Z" fill="#016D71"></path><defs><linearGradient id="paint0_linear_738_11002" x1="58" y1="22.2291" x2="4.49956" y2="34.8562" gradientUnits="userSpaceOnUse"><stop stop-color="#5CE1E6"></stop><stop offset="0.916667" stop-color="#94FBFF"></stop></linearGradient></defs></svg> 