<?xml version="1.0" encoding="UTF-8"?> <svg xmlns="http://www.w3.org/2000/svg" width="65" height="65" viewBox="0 0 65 65" fill="none"><ellipse cx="30.819" cy="33.5022" rx="30.819" ry="31.4978" fill="#016D71"></ellipse><path d="M64.5256 31.4978C64.5256 48.6415 50.9301 62.5215 34.1808 62.5215C17.4315 62.5215 3.83595 48.6415 3.83595 31.4978C3.83595 14.3541 17.4315 0.474138 34.1808 0.474138C50.9301 0.474138 64.5256 14.3541 64.5256 31.4978Z" fill="url(#paint0_linear_738_10846)" stroke="#016D71" stroke-width="0.948276"></path><path d="M60.6036 31.4978C60.6036 46.4275 48.7642 58.5126 34.1812 58.5126C19.5982 58.5126 7.75881 46.4275 7.75881 31.4978C7.75881 16.5681 19.5982 4.48293 34.1812 4.48293C48.7642 4.48293 60.6036 16.5681 60.6036 31.4978Z" stroke="#016D71" stroke-width="0.948276"></path><path fill-rule="evenodd" clip-rule="evenodd" d="M26.1849 36.6891C26.8342 36.136 26.9464 35.4496 26.9464 34.8363V32.2514H23.4167V35.7583C23.4167 36.2594 23.0185 36.6663 22.5288 36.6663C22.038 36.6663 21.6736 36.2599 21.6736 35.7583V25.8236C21.6736 25.3225 22.038 24.9161 22.5288 24.9161C23.0179 24.9161 23.4167 25.3219 23.4167 25.8236V29.352H26.9424V25.692C26.9418 23.6696 25.6489 22.0057 22.4985 22.001C19.264 22.001 18.0415 23.6731 18.0415 25.6955V36.067C18.0415 38.0718 19.5987 39.5891 21.5895 39.5885H22.6833L26.1849 36.6891ZM40.1023 37.096V25.6984H37.667V22.3407H46.4843V25.6984H44.0352V39.5692H42.9912L40.1023 37.096ZM41.6828 39.5933L33.0955 32.2411L24.1975 39.5933H41.6828ZM30.6271 22.3595H35.5469L38.6624 35.8648L33.0979 31.0998L27.761 35.5012L30.6271 22.3595ZM33.0979 25.2905L32.146 30.2573H34.0424L33.0979 25.2905ZM49.8653 23.1868C49.6713 22.9875 49.4368 22.8881 49.1622 22.8881C49.0314 22.8861 48.9016 22.9116 48.7809 22.963C48.6601 23.0144 48.551 23.0906 48.4603 23.1868C48.2675 23.385 48.1708 23.6247 48.1708 23.9048C48.1685 24.0388 48.1929 24.172 48.2424 24.2961C48.292 24.4202 48.3657 24.5327 48.4591 24.6269C48.6513 24.8262 48.8865 24.9256 49.1622 24.9256C49.4379 24.9256 49.6719 24.8262 49.8653 24.6269C50.058 24.4281 50.1547 24.1872 50.1547 23.9048C50.1547 23.6242 50.058 23.385 49.8653 23.1868ZM49.9825 23.0716C50.2079 23.3003 50.3206 23.5774 50.3206 23.9025C50.3206 24.2287 50.2079 24.5076 49.9825 24.7385C49.7571 24.9701 49.4848 25.0853 49.165 25.0853C48.8453 25.0853 48.5735 24.9701 48.3487 24.7385C48.1256 24.5088 48.014 24.2299 48.014 23.9025C48.0118 23.7477 48.0406 23.5941 48.0988 23.4512C48.1569 23.3083 48.2432 23.1791 48.3521 23.0716C48.4576 22.9608 48.5841 22.8732 48.7239 22.8142C48.8637 22.7552 49.0138 22.726 49.165 22.7284C49.4848 22.7284 49.7571 22.843 49.9825 23.0716ZM49.3395 23.8504C49.4271 23.8153 49.4711 23.7481 49.4711 23.6493C49.4711 23.4622 49.3641 23.4131 49.1141 23.4131H48.9219V23.8791H49.125C49.1976 23.8823 49.2702 23.8726 49.3395 23.8504ZM48.6982 24.5462V23.2535V23.2529H49.1433C49.3006 23.2529 49.4162 23.2681 49.49 23.2997C49.6216 23.3558 49.6868 23.4651 49.6868 23.6283C49.6868 23.8054 49.6067 23.9089 49.3824 23.9469C49.4599 23.9576 49.5309 23.9963 49.5827 24.0561C49.6345 24.1159 49.6635 24.1927 49.6645 24.2726C49.6645 24.2726 49.6656 24.4287 49.6788 24.5298L49.6868 24.5456H49.4791L49.4757 24.5333C49.4744 24.5285 49.4734 24.5236 49.4728 24.5187L49.4677 24.4772V24.3749C49.4677 24.2264 49.4282 24.1281 49.3481 24.0802C49.3006 24.0521 49.2177 24.0387 49.0987 24.0387H48.9219V24.5462H48.6982Z" fill="#016D71"></path><defs><linearGradient id="paint0_linear_738_10846" x1="64.9997" y1="24.9119" x2="5.04236" y2="39.063" gradientUnits="userSpaceOnUse"><stop stop-color="#5CE1E6"></stop><stop offset="0.916667" stop-color="#94FBFF"></stop></linearGradient></defs></svg> 