<?xml version="1.0" encoding="UTF-8"?> <svg xmlns="http://www.w3.org/2000/svg" width="29" height="29" viewBox="0 0 29 29" fill="none"><ellipse cx="13.75" cy="14.9472" rx="13.75" ry="14.0529" fill="#016D71"></ellipse><path d="M28.681 14.0529C28.681 21.6445 22.6612 27.7868 15.25 27.7868C7.83876 27.7868 1.81897 21.6445 1.81897 14.0529C1.81897 6.46125 7.83876 0.318966 15.25 0.318966C22.6612 0.318966 28.681 6.46125 28.681 14.0529Z" fill="url(#paint0_linear_738_15958)" stroke="#016D71" stroke-width="0.637931"></path><path d="M26.931 14.0529C26.931 20.6567 21.6947 25.9982 15.25 25.9982C8.80526 25.9982 3.56897 20.6567 3.56897 14.0529C3.56897 7.44907 8.80526 2.10754 15.25 2.10754C21.6947 2.10754 26.931 7.44907 26.931 14.0529Z" stroke="#016D71" stroke-width="0.637931"></path><path fill-rule="evenodd" clip-rule="evenodd" d="M15.2561 19.9588H17.0348L17.5976 18.256H20.581L21.0987 19.9588H22.9337L20.0854 11.6979H18.138L15.2561 19.9588ZM20.108 16.8293H18.0479L19.0837 13.5617H19.1061L20.108 16.8293ZM15.4401 10.5929L16.2348 13.0943L17.1857 10.3973C17.2852 10.1017 17.2762 9.99082 17.1768 9.66762L16.508 7.58008L16.1375 8.59625C16.1195 8.65154 16.1465 8.77163 16.2008 8.88247L16.0743 8.80852L15.9477 9.17802C15.9297 9.23332 15.9569 9.31651 16.002 9.42736L15.8845 9.35349L15.74 9.7414C15.7219 9.79678 15.7582 9.91687 15.8032 10.0185L15.6768 9.93535L15.4401 10.5929ZM16.4268 14.8492C16.5171 14.7936 16.5081 14.6366 16.481 14.5536C16.481 14.5536 16.5442 14.4428 16.5261 14.3597L14.3663 7.58008L14.0591 8.42994C14.0411 8.47607 14.0681 8.587 14.1042 8.69785L13.9868 8.62389L13.797 9.15038C13.788 9.20584 13.8061 9.3166 13.8422 9.4182L13.7247 9.33509C13.7157 9.36125 13.7058 9.3889 13.6955 9.4178C13.6331 9.59289 13.5543 9.81378 13.562 10.0278C13.562 10.1036 13.6074 10.128 13.6642 10.1585C13.6835 10.1689 13.7041 10.18 13.7247 10.194L13.562 10.2125C13.562 10.2125 13.5892 10.4528 13.6073 10.4804C13.6344 10.6466 13.6795 10.7576 13.6795 10.7576C13.6975 10.8221 13.788 10.8868 13.8874 10.9422L13.7608 10.9607L13.9145 11.5148C13.9353 11.5646 13.983 11.598 14.0491 11.6444C14.0689 11.6583 14.0904 11.6733 14.1133 11.6903H13.9777L14.1494 12.2445C14.1641 12.3041 14.2259 12.3397 14.2968 12.3805C14.3136 12.3902 14.3309 12.4002 14.3483 12.4108L14.2036 12.4201L14.9085 14.572L15.0865 14.5917L15.1932 14.7194C15.1932 14.7194 15.0984 14.8122 15.0984 14.8492C15.0984 14.9137 15.1616 14.9694 15.1616 14.9694C15.1616 14.9694 15.1707 14.8954 15.1978 14.8954H15.6046C15.6315 14.8954 15.6225 14.96 15.6225 14.96C15.6225 14.96 15.6769 14.9231 15.6769 14.8678C15.6677 14.8031 15.6046 14.7845 15.6046 14.7845L15.3877 14.72L15.2972 14.5629L15.496 14.0364H15.7129L16.2822 14.7105C16.3274 14.7661 16.2641 14.8769 16.2641 14.8769C16.2641 14.8769 16.3544 14.9046 16.4268 14.8492ZM14.3574 14.0272L14.3844 14.1288L14.6572 14.1362L14.2991 13.0723L13.5711 14.1288H13.8693C13.881 14.1288 13.8965 14.1055 13.9158 14.0765C13.9263 14.0608 13.9379 14.0434 13.9506 14.0272L13.9777 14.1288H14.2669C14.2861 14.1288 14.3054 14.1008 14.3279 14.0681C14.3371 14.0547 14.3469 14.0405 14.3574 14.0272ZM7.56641 19.9588H9.34512L9.90813 18.2561H12.8913L13.4091 19.9588H15.2441L12.3959 11.6979H10.4484L7.56641 19.9588ZM12.4184 16.8293H10.3584L11.394 13.5617H11.4166L12.4184 16.8293Z" fill="#016D71"></path><defs><linearGradient id="paint0_linear_738_15958" x1="29" y1="11.1145" x2="2.24978" y2="17.4281" gradientUnits="userSpaceOnUse"><stop stop-color="#5CE1E6"></stop><stop offset="0.916667" stop-color="#94FBFF"></stop></linearGradient></defs></svg> 