<?xml version="1.0" encoding="UTF-8"?> <svg xmlns="http://www.w3.org/2000/svg" width="78" height="78" viewBox="0 0 78 78" fill="none"><ellipse cx="36.9828" cy="40.2026" rx="36.9828" ry="37.7974" fill="#016D71"></ellipse><path d="M77.526 37.7974C77.526 58.4202 61.1709 75.1206 41.0174 75.1206C20.864 75.1206 4.50881 58.4202 4.50881 37.7974C4.50881 17.1745 20.864 0.474138 41.0174 0.474138C61.1709 0.474138 77.526 17.1745 77.526 37.7974Z" fill="url(#paint0_linear_738_10966)" stroke="#016D71" stroke-width="0.948276"></path><path d="M72.8188 37.7973C72.8188 55.7634 58.571 70.31 41.0171 70.31C23.4632 70.31 9.21535 55.7634 9.21535 37.7973C9.21535 19.8313 23.4632 5.28468 41.0171 5.28468C58.571 5.28468 72.8188 19.8313 72.8188 37.7973Z" stroke="#016D71" stroke-width="0.948276"></path><path d="M61.5849 38.9885C61.7793 38.7398 62.2075 38.0952 62.0348 37.3771C61.9303 36.9743 61.6278 37.4776 61.6278 37.4776C61.3936 37.874 60.9578 38.6122 60.643 39.5888C61.0907 39.48 61.483 39.1476 61.5849 38.9885ZM62.0171 36.442C62.4351 36.6911 62.5471 37.4215 62.5573 37.4889C62.6729 38.2414 62.4532 38.8698 62.4532 38.8698C62.2393 39.4036 61.5162 40.8781 60.3569 40.7456C60.1174 41.8005 59.969 42.6593 59.9712 44.184C59.9752 44.4888 59.7565 44.4371 59.7565 44.4371C59.5134 44.3652 59.0683 44.0742 58.9771 43.4812C58.8934 42.9341 58.8788 41.7064 59.2911 40.1261C59.0776 39.8385 58.9293 39.4204 58.9381 38.7851C58.9612 37.5603 59.8902 36.3282 59.8902 36.3282C59.9925 36.1686 60.0815 36.1987 60.0815 36.1987C60.1661 36.2061 60.1886 36.6237 60.1346 36.8221C60.081 37.0201 60.0297 37.0994 59.7861 37.8499L59.725 38.0036C59.512 38.6758 59.6506 39.1663 59.6506 39.1663C60.0168 38.3936 60.6793 37.0708 61.2966 36.5537C61.5826 36.2189 62.0171 36.442 62.0171 36.442ZM57.3435 37.4249H57.4268C58.0091 37.4023 58.8411 37.3565 59.0696 37.287C59.0696 37.287 59.2981 37.2171 59.1737 36.9625C59.1737 36.9625 58.9027 36.2913 58.5701 36.3159C57.5725 36.2465 56.1577 36.5237 56.012 36.57C55.8455 36.6399 55.8667 36.7778 56.0545 37.0329C56.0545 37.0329 56.2409 37.3102 56.5943 37.3102L56.2821 37.9804C56.2821 37.9804 56.0332 38.0041 55.9504 38.074C55.9504 38.074 55.8047 38.236 55.9708 38.7437C55.9084 38.8831 55.8455 39.1146 55.8455 39.1146C55.7622 39.345 55.555 39.7395 55.8247 40.363C55.8247 40.363 56.116 40.9647 56.5323 40.9411C57.3015 40.9647 58.5086 40.2019 58.5914 39.9C58.6326 39.6932 58.4457 39.415 58.2792 39.3692C58.134 39.3224 56.9065 39.5312 56.7608 39.577C56.7608 39.577 56.5943 39.6233 56.6784 39.4608L56.8865 38.7679C58.0512 38.7437 58.2168 38.7221 58.2168 38.7221C58.2168 38.7221 58.3833 38.6979 58.3833 38.5596C58.4045 38.3744 58.4045 38.1666 58.4045 38.1666C58.4045 38.1666 58.4045 37.9804 58.2588 37.9804C58.2588 37.9804 57.801 37.9346 57.1978 37.9583L57.3435 37.4249ZM54.1194 38.3448L54.037 38.1823C54.037 38.1823 53.5375 37.2112 53.2461 36.9098C53.1624 36.8177 52.9756 36.6099 52.7471 36.8871C52.4973 37.1649 52.2892 38.1129 52.2064 38.9914C52.1023 39.8715 52.1435 40.3566 52.2693 40.5885C52.3733 40.7958 52.6222 40.8663 52.8294 40.7042C53.038 40.5186 53.038 39.3623 53.0796 38.7605C53.0796 38.7605 53.1213 38.1823 53.1837 38.2744C53.1837 38.2744 53.2253 38.2744 53.4538 38.8294C54.0782 40.3103 54.4736 40.5412 54.4736 40.5412C54.8691 40.7737 55.2012 40.4265 55.3469 40.102C55.4713 39.7779 55.721 38.6915 55.4297 37.488C55.4297 37.488 55.1387 36.2622 54.4736 35.8682C54.3071 35.7766 54.2651 35.9618 54.2651 35.9618C54.2651 35.9618 54.2026 36.1696 54.2651 36.3543C54.2651 36.3543 54.6605 37.9967 54.7234 38.9698C54.7437 39.2465 54.7017 39.2692 54.7017 39.2692C54.7017 39.2692 54.6605 39.2933 54.6189 39.2465C54.6189 39.2465 54.5781 39.2465 54.1194 38.3448ZM51.3331 37.1565L51.7693 37.1102C52.0399 37.0649 52.0806 36.8783 52.1435 36.7399C52.1435 36.7399 52.1847 36.6252 52.1648 36.5552C52.1648 36.5552 51.8734 36.1854 50.3129 36.2075C49.731 36.2075 48.3995 36.4626 48.2126 37.1102C48.2126 37.1102 48.0257 37.7573 48.171 37.9888C48.3379 38.3133 49.4613 38.3355 49.7731 38.3601C50.0844 38.4054 50.8965 38.5448 51.1662 38.7295C51.1662 38.7295 51.4576 38.9146 51.2495 39.1456C51.2495 39.1456 50.9793 39.608 49.4813 39.608C48.9406 39.6321 48.7949 39.4933 48.7949 39.4933C48.6492 39.3534 48.608 39.2387 48.7745 39.0535C48.7745 39.0535 48.9198 38.8442 49.336 39.0761C49.6478 39.3534 50.1061 39.3766 50.1061 39.3766C50.5427 39.4002 50.854 39.215 50.8748 39.0535C50.8748 39.0535 50.8965 38.891 50.5011 38.7073C50.5011 38.7073 49.1903 38.2434 48.6492 38.5911C48.6492 38.5911 47.9009 39.0988 48.4207 39.77C49.565 41.2046 51.416 40.3492 51.6236 40.1635C51.8526 39.9552 51.9358 39.7479 51.9571 39.1692C51.9571 39.1692 51.9779 38.6137 51.7693 38.3355C51.3943 37.8278 50.3341 37.7815 50.0432 37.7573C49.7527 37.7347 49.1283 37.6194 48.9831 37.5722C48.9831 37.5722 48.8374 37.5495 48.9406 37.4343C49.1487 37.2723 50.5835 37.2255 51.3331 37.1565ZM48.9933 33.8954C49.243 33.2936 48.639 33.3631 48.639 33.3631C48.1187 33.432 47.3084 34.1727 46.9342 34.7735C47.4952 34.9129 48.5354 34.9129 48.9933 33.8954ZM46.4139 33.7797C46.227 34.0791 46.227 34.2416 46.289 34.3805C46.4767 34.0565 46.8505 33.5709 47.35 33.2242C46.9545 33.2478 46.6428 33.4094 46.4139 33.7797ZM48.8892 32.7623C49.6584 32.7844 49.6168 33.5473 49.6168 33.5473C49.596 34.2884 48.7435 35.2138 47.8495 35.5137C47.3084 35.6988 46.9342 35.6299 46.6007 35.4679C46.4767 35.7215 46.3935 35.8151 46.2677 35.8151C46.1026 35.8382 45.9777 35.56 45.9569 35.4679C45.9144 35.3984 45.8524 35.2596 45.9569 35.0054C45.6447 34.6809 45.6234 34.2648 45.7071 33.9875C45.7899 33.664 46.3514 32.4146 47.9527 32.3225C48.7435 32.2762 48.868 32.7623 48.868 32.7623H48.8892ZM47.7344 38.9373V38.7989C47.7344 37.3176 47.6927 36.9935 47.6927 36.9935C47.6927 36.6941 47.5891 36.5321 47.5063 36.4159C47.4222 36.277 47.3185 36.0923 47.1113 36.277C46.9027 36.4626 46.8607 37.6884 46.8195 38.6605C46.7575 39.6543 46.7982 40.2556 46.9027 40.4413C47.0068 40.6028 47.4222 40.6954 47.6095 40.5333C47.6095 40.5333 47.7344 40.395 47.7344 38.9373ZM37.1067 37.9651C37.751 38.7526 38.5414 39.2613 39.2902 39.5854C39.3943 38.3828 39.4151 37.5037 39.4359 37.1102C38.2297 37.1565 37.5637 37.3643 37.2311 37.5037C37.2311 37.5037 36.8773 37.6652 37.1067 37.9651ZM42.556 32.6229C45.9879 34.7282 46.5286 37.0181 46.4449 37.8972C46.3621 38.7757 46.0291 40.2556 43.8451 40.9037C42.4099 41.343 41.0792 41.0647 40.3508 40.8342C40.3304 41.1809 40.2892 41.3203 40.2472 41.3656C40.1847 41.4355 39.7069 41.7138 39.4771 41.274C39.3527 41.0884 39.3115 40.7185 39.2902 40.395C37.6682 39.5154 36.9189 38.2665 36.8986 38.1971C36.8773 38.1523 36.5036 37.7125 36.8986 37.2018C37.2524 36.7168 38.417 36.2548 39.4771 36.1159C39.5192 35.1212 39.644 34.3805 39.7893 34.0338C39.9354 33.664 40.1223 34.0102 40.2892 34.2884C40.4132 34.4967 40.4761 35.3516 40.4761 36.045C41.1412 36.0229 41.5575 36.1159 42.3067 36.277C43.2424 36.4848 43.9079 37.1102 43.8451 37.7125C43.7831 38.3355 43.2623 38.5211 43.0759 38.5911C43.0759 38.5911 42.889 38.6364 42.556 38.4286C42.3479 38.2897 42.556 38.2434 42.8049 38.0814C42.8049 38.0814 43.1383 37.8972 43.0343 37.7815C42.785 37.2954 41.6199 37.1102 40.3928 37.0871C40.372 37.8736 40.372 39.1692 40.372 39.9321C40.372 39.9321 41.2661 40.1399 41.9321 40.1399C45.1762 40.1399 45.3431 37.8278 45.3431 37.8278C45.4879 35.5378 42.2027 33.2015 39.7485 32.4146C37.294 31.6281 35.8801 32.0905 35.7543 32.1373C35.7543 32.1373 35.6299 32.2068 35.7543 32.2531C35.8801 32.2762 36.1086 32.3688 36.1086 32.3688C36.1086 32.3688 36.3583 32.4609 36.1498 32.5993C35.7543 32.7381 35.2765 32.6229 35.1724 32.4146C35.0892 32.2068 35.2557 31.9989 35.443 31.7207C35.443 31.7207 35.6091 31.4434 35.8176 31.4661C35.8176 31.4661 38.8948 30.4029 42.556 32.6229ZM35.7924 35.8771C35.8092 35.623 35.5608 35.6978 35.5608 35.6978C35.3947 35.7476 35.2499 35.7968 35.1109 36.1701C35.4023 36.1637 35.7543 36.0869 35.7924 35.8771ZM35.4891 35.1906C36.4256 35.2157 36.2808 36.4459 36.2808 36.4459C36.2157 37.4653 34.8173 37.2407 34.8173 37.2407C34.6654 38.0306 34.518 39.0988 34.6929 40.7599C34.7673 41.4286 34.4768 41.4818 34.4768 41.4818C34.1863 41.5119 33.5517 40.9465 33.4977 40.2541C33.4459 39.6538 33.4415 38.2188 33.8768 36.9837C33.4791 36.831 32.8295 36.5434 32.6935 35.9451C32.6028 35.4846 32.8069 35.2251 32.8069 35.2251C32.9282 35.0847 32.9929 35.1748 32.9929 35.1748C33.0562 35.2438 32.9947 35.2679 33.0164 35.3595C33.0394 35.4516 33.0243 35.8219 34.2567 36.0962C34.2567 36.0962 34.8824 35.0173 35.4891 35.1906ZM31.5542 40.5924C32.7183 40.8239 33.2803 39.3431 33.3006 39.1121C33.3006 38.858 33.259 38.6029 32.9681 38.7644C32.6767 38.9259 32.136 39.2268 31.8035 39.2973C31.6782 39.3431 31.6782 39.1579 31.6782 39.1579C31.699 38.9732 31.8035 37.7475 32.2188 36.4282C32.3645 35.9662 32.1564 35.689 32.1564 35.689C32.0103 35.4107 31.8035 35.7111 31.8035 35.7111C31.5949 35.9884 31.2216 36.7064 30.9922 37.7475L30.9298 38.0484C30.4095 40.3841 31.5542 40.5924 31.5542 40.5924ZM29.0784 38.1971C29.0784 38.1971 29.515 38.1971 29.8059 38.1971C29.8059 38.1971 29.7647 37.3643 29.6399 36.9935C29.4946 37.1797 29.2865 37.6431 29.0784 38.1971ZM30.0145 35.4221C30.8045 36.9709 30.6592 40.2792 30.6592 40.5112C30.638 40.7185 30.5135 40.6269 30.4719 40.6028C30.4507 40.6028 30.243 40.4639 29.9946 40.2556C29.9946 40.2556 29.7647 40.0246 29.8484 39.215C29.5362 39.2387 28.7246 39.1924 28.7246 39.1924C28.5169 39.8621 28.3504 40.4413 28.3296 40.5575C28.3296 40.5575 28.2879 40.8569 28.1422 40.7884C28.1422 40.7884 27.7473 40.7884 27.6016 40.6028C27.6016 40.6028 27.3523 40.2556 27.4975 39.5622C27.5599 39.284 27.664 39.0067 27.7472 38.7526C27.7472 38.7526 27.5396 38.4975 27.4559 38.2434V38.1523C27.6228 38.1523 27.7884 38.1735 27.9762 38.1735C27.9762 38.1735 28.6001 36.671 29.4946 35.4915C29.4534 35.4442 29.4946 35.329 29.4946 35.329C29.5562 35.2138 29.7444 35.2596 29.8688 35.2596C29.8688 35.2596 29.9946 35.2822 30.0145 35.4221ZM23.1813 35.8205C23.1282 36.3568 22.9365 37.39 23.0959 38.7467C23.5887 37.8785 24.2043 36.212 23.8283 35.1029C23.7304 34.8316 23.5653 34.8671 23.5653 34.8671C23.4213 34.9001 23.2748 35.2581 23.1813 35.8205ZM25.5137 30.6053C27.9151 32.1767 27.9425 35.6279 27.9425 35.6279C27.97 39.0791 26.2023 41.3582 24.3942 41.437C23.5002 41.4769 22.8864 40.9396 22.4919 40.2261C22.1899 40.4092 21.8626 40.524 21.5305 40.5476C19.9527 40.6575 19.4687 39.0929 19.4444 37.912C19.4408 36.7527 19.629 34.5391 21.232 32.6657C21.9366 31.8517 22.4471 31.6764 22.4471 31.6764C22.715 31.6114 22.6694 31.9162 22.6694 31.9162C22.6566 32.0561 22.4223 32.3274 22.4223 32.3274C22.2076 32.5978 21.2918 33.727 20.8982 35.2379C20.4832 36.7502 20.346 38.3813 20.7976 39.3706C21.1289 40.0665 21.7462 39.9296 22.2297 39.641C21.9862 39.0092 21.8626 38.2995 21.8502 37.7219C21.8117 36.2868 22.286 34.3539 24.0112 34.28C25.093 34.2505 24.9699 36.4833 24.9699 36.4833C24.9398 37.0654 24.5846 37.7854 24.5846 37.7854C24.3783 38.1941 23.9408 38.9437 23.3297 39.5647C23.4931 39.8779 23.8066 40.2502 24.3251 40.2128C25.1767 40.1546 26.8563 38.9023 26.8404 34.9168C26.808 32.1373 25.1483 30.7939 25.1483 30.7939C24.9801 30.7584 25.0487 30.4994 25.0487 30.4994C25.0487 30.4994 25.1173 30.2389 25.5137 30.6053Z" fill="#016D71"></path><defs><linearGradient id="paint0_linear_738_10966" x1="78.0002" y1="29.8943" x2="6.05132" y2="46.8756" gradientUnits="userSpaceOnUse"><stop stop-color="#5CE1E6"></stop><stop offset="0.916667" stop-color="#94FBFF"></stop></linearGradient></defs></svg> 