<?xml version="1.0" encoding="UTF-8"?> <svg xmlns="http://www.w3.org/2000/svg" width="29" height="29" viewBox="0 0 29 29" fill="none"><ellipse cx="13.75" cy="14.9472" rx="13.75" ry="14.0529" fill="#016D71"></ellipse><path d="M28.681 14.0529C28.681 21.6445 22.6612 27.7868 15.25 27.7868C7.83876 27.7868 1.81897 21.6445 1.81897 14.0529C1.81897 6.46125 7.83876 0.318966 15.25 0.318966C22.6612 0.318966 28.681 6.46125 28.681 14.0529Z" fill="url(#paint0_linear_738_15948)" stroke="#016D71" stroke-width="0.637931"></path><path d="M26.931 14.0529C26.931 20.6567 21.6947 25.9982 15.25 25.9982C8.80526 25.9982 3.56897 20.6567 3.56897 14.0529C3.56897 7.44907 8.80526 2.10754 15.25 2.10754C21.6947 2.10754 26.931 7.44907 26.931 14.0529Z" stroke="#016D71" stroke-width="0.637931"></path><path fill-rule="evenodd" clip-rule="evenodd" d="M15.2502 9.07056C11.2231 9.07056 7.9585 10.9057 7.9585 13.1693C7.9585 14.5922 9.24841 15.8458 11.2068 16.5807L12.7201 11.4607C12.8656 10.974 13.3918 9.9575 14.5336 9.91421C14.8471 9.8926 15.4743 10.1089 15.4742 10.7036C15.4742 10.9316 15.2686 11.1166 15.0151 11.1166C14.7615 11.1166 14.5559 10.9316 14.5559 10.7036C14.5559 10.4756 14.7615 10.2907 15.0151 10.2907C14.9367 10.1954 14.7016 10.0656 14.5336 10.0656C14.3657 10.0656 13.9739 10.1305 13.7276 10.9415L13.3358 12.2392H14.8023L14.1754 14.3804H13.3974L13.9515 12.4988H13.263L11.9815 16.8341C12.9646 17.1118 14.0749 17.2681 15.2501 17.2681C19.2771 17.2681 22.5418 15.4329 22.5418 13.1692C22.5419 10.9057 19.2771 9.07056 15.2502 9.07056ZM12.0985 12.4321C11.841 13.373 10.9566 13.3622 10.6655 13.3622H10.0946L9.78112 14.3788H8.94144L9.80349 11.4589H9.37804L9.44523 11.2426H11.2252C12.2104 11.2426 12.2217 11.9239 12.0985 12.4321ZM16.4493 14.3812H14.6245L15.923 12.4995H15.1731L15.2514 12.24H17.0874L15.7887 14.1217H16.5276L16.4493 14.3812ZM19.3829 13.3646H17.8268C17.7149 13.7106 17.6476 14.154 17.95 14.1648C18.2522 14.1757 18.4201 13.8837 18.5209 13.5917H19.2821C19.036 14.3811 18.3417 14.4568 17.9052 14.4352C16.9759 14.3811 16.8529 13.8188 17.0543 13.2132C17.3118 12.413 17.8605 12.1318 18.532 12.1318C19.5061 12.1534 19.5061 12.932 19.3829 13.3646ZM21.6639 12.9696C21.4321 12.9696 21.2272 12.786 21.2443 12.5265C21.0823 12.5589 20.8355 12.8779 20.7906 13.0401L20.3876 14.3811H19.5369L20.0965 12.4994H19.7607L19.8391 12.2399H21.0259L20.9251 12.586C21.1714 12.2723 21.5183 12.1912 21.664 12.1861C21.8957 12.1861 22.0836 12.3404 22.0836 12.5643C22.0835 12.6718 22.0393 12.7749 21.9606 12.8509C21.8819 12.9269 21.7752 12.9696 21.6639 12.9696ZM17.9057 13.1456C17.9841 12.9076 18.096 12.3669 18.4879 12.3669C18.8798 12.3669 18.6782 12.9401 18.6222 13.1456H17.9057ZM10.6665 11.4563H11.0135C11.2822 11.4671 11.3941 11.705 11.2486 12.3214C11.1031 12.9378 10.7672 13.1433 10.5097 13.1433H10.1627L10.6665 11.4563Z" fill="#016D71"></path><defs><linearGradient id="paint0_linear_738_15948" x1="29" y1="11.1145" x2="2.24978" y2="17.4281" gradientUnits="userSpaceOnUse"><stop stop-color="#5CE1E6"></stop><stop offset="0.916667" stop-color="#94FBFF"></stop></linearGradient></defs></svg> 