<?xml version="1.0" encoding="UTF-8"?> <svg xmlns="http://www.w3.org/2000/svg" width="74" height="72" viewBox="0 0 74 72" fill="none"><ellipse cx="35.0862" cy="37.1101" rx="35.0862" ry="34.8899" fill="#016D71"></ellipse><path d="M73.5259 34.8899C73.5259 53.8946 58.0321 69.3056 38.9138 69.3056C19.7956 69.3056 4.30177 53.8946 4.30177 34.8899C4.30177 15.8851 19.7956 0.474138 38.9138 0.474138C58.0321 0.474138 73.5259 15.8851 73.5259 34.8899Z" fill="url(#paint0_linear_738_10904)" stroke="#016D71" stroke-width="0.948276"></path><path d="M69.0602 34.8898C69.0602 51.4421 55.5657 64.865 38.9137 64.865C22.2617 64.865 8.76711 51.4421 8.76711 34.8898C8.76711 18.3374 22.2617 4.91457 38.9137 4.91457C55.5657 4.91457 69.0602 18.3374 69.0602 34.8898Z" stroke="#016D71" stroke-width="0.948276"></path><path d="M42.7583 25.1169C41.7957 26.2821 40.2554 27.2012 38.7151 27.0699C38.5226 25.4944 39.2767 23.8204 40.1591 22.7865C41.1218 21.5885 42.8065 20.7351 44.1703 20.6694C44.3307 22.3106 43.705 23.9189 42.7583 25.1169ZM44.1542 27.3817C41.924 27.2504 40.0147 28.6782 38.9558 28.6782C37.8808 28.6782 36.2603 27.4473 34.4954 27.4802C32.201 27.513 30.0671 28.8423 28.8958 30.9594C26.4891 35.1935 28.2701 41.4626 30.5965 44.909C31.7357 46.6158 33.0995 48.4867 34.8965 48.4211C36.5972 48.3554 37.2711 47.2887 39.3248 47.2887C41.3945 47.2887 41.9882 48.4211 43.7852 48.3882C45.6464 48.3554 46.8176 46.6815 47.9568 44.9747C49.2564 43.0381 49.7859 41.1508 49.818 41.0524C49.7859 41.0195 46.224 39.6246 46.1919 35.4233C46.1598 31.9112 48.9997 30.2373 49.128 30.1388C47.5236 27.7099 45.0206 27.4473 44.1542 27.3817Z" fill="#016D71"></path><defs><linearGradient id="paint0_linear_738_10904" x1="74.0001" y1="27.5947" x2="5.94315" y2="44.1036" gradientUnits="userSpaceOnUse"><stop stop-color="#5CE1E6"></stop><stop offset="0.916667" stop-color="#94FBFF"></stop></linearGradient></defs></svg> 