<?xml version="1.0" encoding="UTF-8"?> <svg xmlns="http://www.w3.org/2000/svg" width="74" height="72" viewBox="0 0 74 72" fill="none"><ellipse cx="35.0862" cy="37.1101" rx="35.0862" ry="34.8899" fill="#016D71"></ellipse><path d="M73.5259 34.8899C73.5259 53.8946 58.0321 69.3056 38.9138 69.3056C19.7956 69.3056 4.30177 53.8946 4.30177 34.8899C4.30177 15.8851 19.7956 0.474138 38.9138 0.474138C58.0321 0.474138 73.5259 15.8851 73.5259 34.8899Z" fill="url(#paint0_linear_738_15883)" stroke="#016D71" stroke-width="0.948276"></path><path d="M69.0602 34.8898C69.0602 51.4421 55.5657 64.865 38.9137 64.865C22.2617 64.865 8.76711 51.4421 8.76711 34.8898C8.76711 18.3374 22.2617 4.91457 38.9137 4.91457C55.5657 4.91457 69.0602 18.3374 69.0602 34.8898Z" stroke="#016D71" stroke-width="0.948276"></path><path fill-rule="evenodd" clip-rule="evenodd" d="M42.0795 39.4029C42.0859 39.4158 35.4576 24.3813 35.4278 24.3514C35.4934 24.3012 31.0694 34.4632 31.0162 34.4759H31.0161C31.0161 34.4759 31.0162 34.4759 31.0162 34.4759H35.6993C35.6872 34.4902 36.3338 36.0346 36.9014 37.3904C37.3422 38.4434 37.7354 39.3826 37.7354 39.4029H42.0795ZM21.3101 15.1189H21.3101C21.3101 15.1189 21.3101 15.1189 21.3101 15.1189ZM31.491 15.1189H21.3101C21.3207 15.136 21.3441 39.3355 21.3438 39.3695C21.3776 39.4012 31.5205 15.1126 31.491 15.1189ZM49.7693 15.1189H39.2415C39.2415 15.1189 49.7681 39.4604 49.762 39.3824L49.7693 15.1189ZM27.7064 52.8265L25.4447 43.2016H23.8608L21.5991 52.8265H23.247L23.6241 51.0252H25.6706L26.0583 52.8265H27.7064ZM24.6474 45.7867L25.3584 49.3891H23.9367L24.6474 45.7867ZM31.3691 51.9874L31.4124 52.8262V52.8265H32.7155V43.2016H31.2614V46.3226C30.8521 45.7866 30.5828 45.5801 30.0119 45.5801C28.3749 45.5801 27.9224 47.5191 27.9224 49.3064C27.9224 51.3965 28.5363 53.0875 29.9904 53.0875C30.6045 53.0875 31.0889 52.6479 31.3153 51.9874H31.3691ZM29.4306 49.3339C29.4306 47.3818 29.9797 46.9963 30.3784 46.9963C30.7661 46.9963 31.3261 47.3818 31.3261 49.3339C31.3261 50.3925 31.1754 51.6986 30.3784 51.6986C29.549 51.6986 29.4306 50.2411 29.4306 49.3339ZM36.2064 45.5801C34.4938 45.5801 33.7398 47.1614 33.7398 49.3203C33.7398 51.5064 34.5047 53.0875 36.2064 53.0875C37.8975 53.0875 38.6728 51.5067 38.6728 49.3203C38.6728 47.1614 37.9082 45.5801 36.2064 45.5801ZM36.2064 46.9826C36.7664 46.9826 37.1653 47.4227 37.1653 49.3203C37.1653 51.1077 36.8309 51.685 36.2064 51.685C35.7648 51.685 35.2478 51.369 35.2478 49.3203C35.2478 47.3125 35.7648 46.9826 36.2064 46.9826ZM39.6737 52.8262H40.9771L41.0198 51.9874H41.0628C41.3752 52.7712 41.7523 53.0875 42.3877 53.0875C43.9283 53.0875 44.4774 51.4101 44.4774 49.3064C44.4774 47.1892 43.9172 45.5801 42.3771 45.5801C42.0106 45.5801 41.4397 45.7178 41.1385 46.4053V43.2016H39.6737V52.8262ZM42.9695 49.3203C42.9695 50.3788 42.8185 51.685 42.0215 51.685C41.1923 51.685 41.0742 50.2275 41.074 49.3203C41.074 47.3677 41.6231 46.9826 42.0215 46.9826C42.4097 46.9826 42.9695 47.3675 42.9695 49.3203ZM49.9936 50.8055C49.9936 50.8054 49.9936 50.8054 49.9936 50.8053V50.8055H49.9936ZM47.6454 53.0875C48.4426 53.0875 49.627 52.9228 49.9936 50.8055H48.5286C48.3883 51.5894 48.0435 51.6852 47.7099 51.6852C47.3006 51.6852 46.7297 51.4928 46.7297 49.8431H50.0905V49.458C50.0905 46.1165 48.7226 45.5801 47.7529 45.5801C46.2127 45.5801 45.222 46.9274 45.222 49.3203C45.222 52.7576 46.7515 53.0875 47.6454 53.0875ZM47.7101 46.9826C48.1945 46.9826 48.5392 47.258 48.5822 48.6741H46.73C46.7409 48.1516 46.8807 46.9826 47.7101 46.9826ZM50.5104 15.1189V15.684H51.43V18.0851H52.0744V15.684H52.9942V15.1189H50.5104ZM53.7931 18.0851V15.7951L54.6007 18.0851H55.0558L55.8722 15.7951V18.0853H56.517V15.1189H55.6749L54.8415 17.453L53.9994 15.1189H53.1488V18.0851H53.7931Z" fill="#016D71"></path><defs><linearGradient id="paint0_linear_738_15883" x1="74.0001" y1="27.5947" x2="5.94315" y2="44.1036" gradientUnits="userSpaceOnUse"><stop stop-color="#5CE1E6"></stop><stop offset="0.916667" stop-color="#94FBFF"></stop></linearGradient></defs></svg> 