<?xml version="1.0" encoding="UTF-8"?> <svg xmlns="http://www.w3.org/2000/svg" width="55" height="53" viewBox="0 0 55 53" fill="none"><ellipse cx="26.0776" cy="27.3171" rx="26.0776" ry="25.6828" fill="#016D71"></ellipse><path d="M54.6809 25.6828C54.6809 39.6863 43.153 51.0467 28.9223 51.0467C14.6916 51.0467 3.16369 39.6863 3.16369 25.6828C3.16369 11.6793 14.6916 0.318966 28.9223 0.318966C43.153 0.318966 54.6809 11.6793 54.6809 25.6828Z" fill="url(#paint0_linear_738_10814)" stroke="#016D71" stroke-width="0.637931"></path><path d="M51.3619 25.6827C51.3619 37.8809 41.3199 47.7778 28.9222 47.7778C16.5245 47.7778 6.48254 37.8809 6.48254 25.6827C6.48254 13.4844 16.5245 3.58752 28.9222 3.58752C41.3199 3.58752 51.3619 13.4844 51.3619 25.6827Z" stroke="#016D71" stroke-width="0.637931"></path><path fill-rule="evenodd" clip-rule="evenodd" d="M44.1343 20.7499H37.6746C37.6943 20.4318 37.8414 20.1329 38.0857 19.9145C38.3301 19.696 38.6532 19.5744 38.9889 19.5746V16.8336C33.0219 16.6354 30.2294 14.7875 28.9441 13.853C27.6587 14.7877 24.8583 16.6356 18.8913 16.8336V19.5746C19.2271 19.5743 19.5502 19.6959 19.7946 19.9144C20.0389 20.1329 20.186 20.4318 20.2056 20.7499H13.7104V28.3286H19.7472C19.7472 28.5708 19.612 29.2881 17.9902 29.4593C19.1014 30.4284 25.5803 35.6445 28.9441 35.6445C32.3079 35.6445 38.8033 30.4284 39.9147 29.4593C38.3978 29.3023 38.1576 28.6706 38.1576 28.3286H44.1341V20.7499H44.1343ZM19.5507 19.1065L19.5517 17.3968C24.9518 17.131 27.6165 15.593 28.9441 14.6479C30.3678 15.6065 32.9284 17.1308 38.3285 17.3968L38.3257 19.1065C37.591 19.3581 37.0607 19.9714 37.0358 20.7499H36.3876C36.4089 19.8685 36.9165 19.1456 37.6657 18.7247L37.6676 17.9504C33.3075 17.6588 30.4603 16.3761 28.9441 15.3861C27.6199 16.3087 24.958 17.5448 20.2128 17.9504L20.2147 18.7247C20.9639 19.1456 21.4716 19.8685 21.4926 20.7499H20.8442C20.8195 19.9714 20.2855 19.3579 19.5507 19.1065V19.1065ZM35.8001 20.0531V20.7499H35.0943V20.2028C35.0943 20.0318 34.8764 19.9534 34.779 19.9534H34.1032V20.7499H33.3974V17.8084L35.0945 18.1433C35.3347 18.1931 35.8003 18.3428 35.8003 18.7846V19.2619C35.8003 19.4329 35.7776 19.5826 35.5526 19.6894C35.6575 19.7467 35.8001 19.939 35.8001 20.0531ZM32.7967 18.3001V20.0958C32.8043 20.3167 32.669 20.7499 32.0535 20.7499H31.1298C30.822 20.7499 30.4241 20.5946 30.4241 20.0673V17.4449C30.4241 17.1315 30.762 16.9319 31.1375 17.0602L32.3688 17.5091C32.669 17.623 32.8043 17.8724 32.7967 18.3001ZM27.6612 17.4806V16.7394L28.9442 16.0769L30.2889 16.7751V17.5162L29.3579 17.0389V20.7499H28.5922V16.9959L27.6612 17.4806V17.4806ZM27.5709 17.4449V20.0673C27.5709 20.5946 27.173 20.7499 26.8652 20.7499H25.9417C25.3258 20.7499 25.1907 20.3167 25.1983 20.0958V18.3001C25.1908 17.8724 25.326 17.623 25.6263 17.5091L26.8577 17.0602C27.2332 16.9319 27.5709 17.1315 27.5709 17.4449V17.4449ZM23.524 20.7499L22.9457 19.5757V20.7499H22.24V18.2786L22.9457 18.1575L23.5014 19.2835L24.1171 17.9224L24.7778 17.7585V20.7499H24.072V19.5328L23.524 20.7499ZM38.413 29.7158C36.6412 31.426 31.2868 34.989 28.9441 34.989C26.6014 34.989 21.2639 31.426 19.4919 29.7158C20.4079 29.331 20.558 28.7705 20.6182 28.3288H21.354C21.309 28.7421 21.2189 29.4023 20.6182 29.8015C21.309 30.4285 26.4812 34.3621 28.9441 34.3621C31.4068 34.3621 36.5959 30.4287 37.2867 29.8015C36.6862 29.4023 36.5959 28.7421 36.5509 28.3288H37.2867C37.3469 28.7705 37.497 29.331 38.413 29.7158V29.7158ZM22.8812 30.1134C22.9215 30.1388 24.5067 31.3118 24.5067 31.3118V32.0259C24.5067 32.0259 22.2767 30.4449 22.2096 30.4066C22.1289 30.3557 22.0214 30.1773 21.9946 30.0498C21.9677 29.9223 21.9946 28.9021 21.9946 28.7875C21.9946 28.6728 22.1289 28.3288 22.3169 28.3288H24.0499V29.0042H23.0155C22.8543 28.9913 22.7603 29.0424 22.7603 29.1826V29.9348C22.7603 29.9859 22.8275 30.0879 22.8812 30.1134V30.1134ZM24.4657 28.3288H25.1912L25.5808 29.4764L26.2123 28.3288H26.8974L25.9168 30.3433V32.7532C25.9168 32.8678 25.2317 32.5108 25.2183 32.4216C25.1913 32.3324 25.2183 30.3179 25.2183 30.3179L24.4657 28.3288V28.3288ZM27.8524 32.6998C27.8928 32.7763 28.7794 33.1716 28.7794 33.1716V33.9621C28.7794 33.9621 27.3553 33.3883 27.221 33.2608C27.0732 33.1206 27.0597 32.9677 27.0597 32.9039V28.9006C27.0597 28.6583 27.5703 28.3289 27.6911 28.3289H28.7389V29.0535C28.7389 29.079 28.1344 29.079 27.9866 29.0535C27.9059 29.0407 27.7986 29.1427 27.7986 29.4997V32.4578C27.7988 32.5213 27.7988 32.636 27.8524 32.6998V32.6998ZM30.8749 32.5085V33.1969C30.8749 33.1969 29.6926 33.6941 29.5046 33.7834C29.397 33.8344 29.276 33.7452 29.276 33.5923V28.3288H30.0821V32.8144L30.8749 32.5085V32.5085ZM32.6071 30.0878V30.6742H31.8546V32.0895L32.7681 31.6814V32.3062L31.5592 32.88C31.4112 32.9438 31.2232 32.88 31.2232 32.7525V28.5833C31.2232 28.4175 31.3708 28.3288 31.4918 28.3288H32.9024V29.0551H31.8546V30.0878H32.6071ZM34.9298 30.137C34.9298 30.137 33.7475 30.1625 33.5325 30.137C33.3312 30.1115 33.2506 30.0732 33.2506 29.933C33.2506 29.8056 33.2372 28.9642 33.2506 28.7217C33.2772 28.4796 33.6804 28.3539 33.8687 28.3286C34.043 28.3158 35.6415 28.3286 35.6415 28.3286V28.9895H33.9357C33.8687 28.9895 33.882 29.5377 33.9357 29.5377H35.4672C35.6819 29.5377 35.6552 29.5886 35.6552 29.6778V30.494C35.6552 30.583 35.5209 30.6852 35.4672 30.7361C35.4269 30.7744 33.1832 32.0622 33.1832 32.0622V31.4884C33.1832 31.4884 34.9701 30.4174 34.9834 30.3409C35.0104 30.2262 34.9298 30.137 34.9298 30.137V30.137ZM43.4885 27.6921H14.3863V21.4782H43.4885V27.6921V27.6921ZM26.0693 18.0791L26.6399 17.8653C26.745 17.8226 26.8652 17.8653 26.8652 18.0221V19.8464C26.8652 19.9676 26.8052 20.0673 26.6474 20.0673H26.1293C25.9641 20.0673 25.9039 19.9889 25.9039 19.8606V18.4069C25.9041 18.2502 25.9192 18.1504 26.0693 18.0791V18.0791ZM32.0909 18.4069V19.8606C32.0909 19.9889 32.0309 20.0673 31.8657 20.0673H31.3476C31.1897 20.0673 31.1297 19.9676 31.1297 19.8464V18.0221C31.1297 17.8653 31.2497 17.8226 31.3549 17.8653L31.9257 18.0791C32.0761 18.1504 32.0909 18.2502 32.0909 18.4069V18.4069ZM34.9441 18.7633C35.0943 18.7918 35.0943 18.9272 35.0943 19.0483C35.0943 19.1695 35.0717 19.2835 34.9364 19.2835H34.103V18.5994L34.9441 18.7633ZM15.0621 22.0483V27.0507H42.828V22.0483H15.0621ZM17.652 26.4664H17.0407V24.7937H16.5579V26.4664H15.9466V22.5698H16.5579V24.128H17.0407V22.5698H17.652V26.4664ZM19.0754 26.4664L18.9676 25.453H18.5201L18.3948 26.4664H17.8413L18.3083 22.5698H19.2253L19.6924 26.4664H19.0754V26.4664ZM21.6349 23.7902C21.6349 24.0802 21.5792 24.3072 21.3599 24.4722C21.3916 24.5068 21.6274 24.6559 21.6344 24.9198L21.6349 26.4664H21.0236L21.0237 25.1632C21.0237 24.9278 20.9187 24.8528 20.5289 24.8528V26.4664H19.9176V22.5698H20.9276C21.4178 22.5698 21.635 22.7339 21.635 23.2375V23.7902H21.6349ZM23.2206 26.4664H21.9886V22.5698H22.5998V25.8506H23.2206V26.4664ZM24.7002 26.4664H23.4255V22.5698H24.6888V23.1785H24.0367V24.1302H24.6599V24.746H24.0367V25.8504H24.7002V26.4664ZM26.1179 26.4664H25.5067V25.0105L24.8781 22.5698H25.5067L25.8361 23.9311L26.1755 22.5698H26.7465L26.1179 24.9834V26.4664V26.4664ZM27.6761 24.7491H26.5573V24.2574H27.6761V24.7491V24.7491ZM29.6025 25.7604C29.6025 26.1326 29.3487 26.4664 28.8759 26.4664H28.0053V22.5698H28.7434C29.3488 22.5698 29.6027 22.7668 29.6027 23.4509V25.7604H29.6025ZM30.9988 26.4664L30.8911 25.453H30.4436L30.3184 26.4664H29.7648L30.2317 22.5698H31.1487L31.6159 26.4664H30.9988ZM32.6814 26.4664H31.9973L31.4234 22.5698H32.0465L32.3435 24.913L32.6394 22.5698H33.2553L32.6814 26.4664ZM34.0389 26.4664H33.4278V22.5698H34.0389V26.4664ZM35.9995 25.7604C35.9995 26.1326 35.7456 26.4664 35.2727 26.4664H34.4021V22.5698H35.1402C35.7456 22.5698 35.9993 22.7668 35.9993 23.4509V25.7604H35.9995V25.7604ZM37.9888 23.8925H37.3773V23.3489C37.3773 23.1518 37.2541 23.1082 37.1328 23.1082C37.0061 23.1082 36.8901 23.1518 36.8901 23.3489V23.7806C36.8901 24.0598 37.9811 24.5534 37.9811 24.9474V25.8864C37.9811 26.3954 37.5076 26.5431 37.1271 26.5431C36.7522 26.5431 36.2863 26.3954 36.2863 25.8864V25.0388H36.8974V25.7302C36.8974 25.9271 37.0061 25.9711 37.1328 25.9711C37.2541 25.9711 37.37 25.9273 37.37 25.7302V25.3198C37.37 24.7724 36.2787 24.621 36.2787 23.986V23.15C36.2787 22.641 36.7522 22.4933 37.1271 22.4933C37.5076 22.4933 37.9888 22.6411 37.9888 23.15V23.8925V23.8925ZM39.9735 25.8862C39.9735 26.3952 39.481 26.5429 39.1061 26.5429C38.731 26.5429 38.2501 26.3952 38.2501 25.8862V23.15C38.2501 22.641 38.731 22.4933 39.1061 22.4933C39.481 22.4933 39.9735 22.6411 39.9735 23.15V25.8862V25.8862ZM42.072 26.4664H41.3244L40.8382 24.2481V26.4664H40.224V22.5698H41.0507L41.4503 24.5509V22.5698H42.0721V26.4664H42.072V26.4664ZM18.5928 24.7943L18.735 23.2812H18.7755L18.8949 24.7943H18.5928V24.7943ZM20.5287 23.1063H20.7704C20.9088 23.1063 21.001 23.2 21.001 23.3477V23.9325C21.001 24.0748 20.9548 24.2484 20.7414 24.2484H20.5287V23.1063ZM28.6162 23.1846H28.7605C28.9163 23.1846 28.9911 23.2228 28.9911 23.4746V25.5614C28.9911 25.8132 28.9161 25.8515 28.7605 25.8515H28.6162V23.1846ZM30.516 24.7943L30.6586 23.2812H30.6989L30.8183 24.7943H30.516ZM35.0133 23.1846H35.1576C35.3132 23.1846 35.3882 23.2228 35.3882 23.4746V25.5614C35.3882 25.8132 35.3132 25.8515 35.1576 25.8515H35.0133V23.1846ZM38.8616 25.6518V23.3631C38.8616 23.1662 38.9848 23.1222 39.1118 23.1222C39.2385 23.1222 39.3621 23.166 39.3621 23.3631V25.6518C39.3621 25.8487 39.2385 25.8926 39.1118 25.8926C38.9848 25.8924 38.8616 25.8487 38.8616 25.6518V25.6518Z" fill="#016D71"></path><defs><linearGradient id="paint0_linear_738_10814" x1="54.9999" y1="20.3128" x2="4.47174" y2="32.6884" gradientUnits="userSpaceOnUse"><stop stop-color="#5CE1E6"></stop><stop offset="0.916667" stop-color="#94FBFF"></stop></linearGradient></defs></svg> 