<?xml version="1.0" encoding="UTF-8"?> <svg xmlns="http://www.w3.org/2000/svg" width="48" height="48" viewBox="0 0 48 48" fill="none"><ellipse cx="22.7586" cy="24.7404" rx="22.7586" ry="23.2599" fill="#016D71"></ellipse><path d="M47.526 23.2599C47.526 35.8539 37.5392 46.0457 25.2415 46.0457C12.9438 46.0457 2.95705 35.8539 2.95705 23.2599C2.95705 10.6659 12.9438 0.474138 25.2415 0.474138C37.5392 0.474138 47.526 10.6659 47.526 23.2599Z" fill="url(#paint0_linear_738_11060)" stroke="#016D71" stroke-width="0.948276"></path><path d="M44.6294 23.26C44.6294 34.2191 35.9394 43.0854 25.2415 43.0854C14.5435 43.0854 5.85353 34.2191 5.85353 23.26C5.85353 12.3009 14.5435 3.43459 25.2415 3.43459C35.9394 3.43459 44.6294 12.3009 44.6294 23.26Z" stroke="#016D71" stroke-width="0.948276"></path><path d="M17.2941 25.8282C17.2941 25.4784 17.2497 25.1727 17.1166 24.9103C16.9391 24.6915 16.6281 24.6487 16.1396 24.6487H15.0295V25.9593H15.3849C15.9178 25.9593 16.0065 25.8282 16.0065 25.1732H16.4506V27.3585H16.0065C16.0065 26.6148 15.9178 26.4405 15.3849 26.4405H15.0295V27.5773C15.0295 27.9708 15.0739 27.9708 15.4736 27.9708H15.9621V28.4944H13.2534V27.9708H13.5196C13.875 27.9708 14.0081 27.9262 14.0081 27.5773V24.998C14.0081 24.6487 13.8746 24.6054 13.5196 24.6054H13.2534V24.125H17.7826V25.8291L17.2941 25.8282V25.8282ZM27.5065 27.2707H27.1072C27.1072 27.7511 27.1072 27.9699 26.8405 27.9699C26.7074 27.9699 26.5747 27.838 26.5747 27.5764V27.3576C26.5299 26.7462 26.3973 26.4838 25.6421 26.265C26.4856 26.178 26.9741 25.7846 26.9741 25.1732C26.9741 24.4299 26.4412 24.1242 25.3311 24.1242H22.2674V24.6046H22.6232C23.023 24.6046 23.0674 24.6487 23.0674 24.9972V27.5764C23.0674 27.8821 22.8899 27.9699 22.6232 27.9699H22.3122C22.046 27.9699 21.9124 27.8821 21.7793 27.5764L20.3586 24.1242H19.292L17.7817 27.5764C17.6486 27.8821 17.5599 27.9699 17.2049 27.9699H17.0274V28.4935H19.3364V27.9699H18.8479C18.626 27.9699 18.4925 27.9699 18.4925 27.838C18.4925 27.7935 18.5369 27.7066 18.5812 27.6188L18.8031 27.0943H20.4904L20.7123 27.5755C20.7567 27.6625 20.7567 27.7498 20.7567 27.7935C20.7567 27.969 20.6235 27.969 20.4013 27.969H19.9128V28.4927H24.93V27.969H24.5302C24.1305 27.969 24.0861 27.969 24.0861 27.5755V26.4388H24.5302C25.285 26.4388 25.5072 26.5707 25.5516 27.3127V27.793C25.596 28.4053 25.9957 28.58 26.6169 28.58C27.1498 28.58 27.5047 28.2743 27.5047 27.4432C27.5065 27.4013 27.5065 27.3135 27.5065 27.2707V27.2707ZM18.9814 26.5711L19.6918 24.9098L20.3578 26.5711H18.9814V26.5711ZM25.0201 25.9151L24.0874 25.9593V24.6046H25.0201C25.6417 24.6046 25.9527 24.7792 25.9527 25.2601V25.3046C25.9523 25.7405 25.6417 25.9151 25.0201 25.9151V25.9151ZM31.4584 25.5217C31.2362 24.8662 30.792 24.5605 30.0817 24.5605C29.3718 24.5605 28.7936 25.1282 28.7936 26.2641C28.7936 27.4009 29.2382 27.969 30.0817 28.0123C30.6589 28.0123 31.1918 27.7066 31.1918 27.2266V26.9641C31.1918 26.6584 31.147 26.6584 30.7037 26.6584H30.4814V26.178H32.5681V26.6584H32.3911C32.0805 26.6584 32.0352 26.6584 32.0352 27.0082V28.4507H31.6355L31.4132 28.1009C31.0134 28.4066 30.4362 28.5813 29.9033 28.5813C29.2817 28.5813 28.7936 28.3625 28.3934 27.9254C27.9497 27.4878 27.6831 26.92 27.6831 26.2641C27.6831 25.5649 27.9054 25.0404 28.3495 24.6037C28.7493 24.2102 29.3265 24.036 29.9486 24.036C30.4362 24.036 31.0143 24.167 31.3249 24.5159L31.5463 24.036H31.9026V25.5217H31.4584V25.5217ZM35.4982 28.5372C34.0336 28.5372 32.8787 27.6633 32.8787 26.2645C32.8787 24.9098 34.0336 24.0364 35.4982 24.0364C36.9637 24.0364 38.0739 24.9103 38.0739 26.3091C38.0743 27.6633 36.9637 28.5372 35.4982 28.5372ZM37.0081 26.3086C37.0081 24.7347 35.9424 24.5605 35.4982 24.5605C34.6548 24.5605 33.9879 25.1727 33.9879 26.3086C33.9879 27.4445 34.6548 28.0568 35.4982 28.0568C35.9428 28.0568 37.0081 27.8384 37.0081 26.3086ZM28.5279 21.1078C28.3948 21.3698 28.0833 21.4139 27.5504 21.4139H26.4408V18.4857C26.4408 18.1364 26.5295 18.0923 26.9736 18.0923H27.2846V17.5678H24.6207V18.0923H24.8426C25.2423 18.0923 25.4642 18.0923 25.4642 18.4857V21.0645C25.4642 21.4139 25.2867 21.4576 24.8869 21.4576H24.6647V21.9384H29.2387V20.1902H28.7058C28.7053 20.5833 28.661 20.8457 28.5279 21.1078V21.1078ZM22.7111 21.4139H21.2904V19.9278H21.6014C22.1343 19.9278 22.223 20.0151 22.2674 20.758H22.7559V18.5726H22.2674C22.223 19.2282 22.1343 19.4028 21.6014 19.4028H21.2904V18.0918H22.4892C23.3771 18.0918 23.6437 18.2665 23.6881 19.2718H24.1766V17.5678H17.6051V18.0923H17.9161C18.1824 18.0923 18.2715 18.1364 18.2715 18.2669C18.2715 18.3547 18.2715 18.4421 18.2272 18.6167L17.3837 20.8021H17.3393C16.9396 19.7094 16.4067 18.4421 16.4067 18.4421C16.3623 18.3547 16.3623 18.3106 16.3623 18.2669C16.3623 18.1359 16.4511 18.0923 16.6734 18.0923H17.0288V17.5678H14.6754V18.0923H14.9864C15.3418 18.0923 15.4749 18.2669 15.5193 18.6167L14.6315 20.8021H14.5871C14.1874 19.6221 13.6545 18.3984 13.6545 18.3984C13.6101 18.3547 13.6545 18.311 13.6545 18.2674C13.6101 18.1364 13.7432 18.0927 14.0099 18.0927H14.1874V17.5678H11.9658V18.0923H12.0546C12.3656 18.0923 12.6314 18.2669 12.7649 18.6604L14.0969 21.938H14.896L15.873 19.5343L16.8943 21.938H17.6934L18.9366 18.6163C19.1141 18.2228 19.2028 18.0918 19.6026 18.0918H19.647C20.0467 18.0918 20.2686 18.0918 20.2686 18.4853V21.0641C20.2686 21.4135 20.0467 21.4572 19.647 21.4572H19.3808V21.938H24.2649V20.1898H23.732C23.6881 21.0645 23.5102 21.4139 22.7111 21.4139ZM33.4564 20.1902C33.4564 20.5837 33.4116 20.8457 33.2789 21.1082C33.1453 21.3702 32.8348 21.4143 32.3019 21.4143H31.2362V18.4862C31.2362 18.1368 31.3249 18.0927 31.7247 18.0927H32.08V17.5678H29.3713V18.0923H29.6823C30.0382 18.0923 30.2148 18.0923 30.2148 18.4857V21.0645C30.2148 21.4139 30.0817 21.4576 29.6823 21.4576H29.5932V21.9384H33.9892V20.1902H33.4564V20.1902ZM38.5175 20.6706C38.5175 21.6759 37.7189 22.0253 36.5644 22.0253C35.8541 22.0253 35.1442 21.6318 35.0102 21.5008L34.8327 21.938H34.3886V20.1898H34.9214C35.055 21.02 35.6318 21.3698 36.4313 21.4135C37.1417 21.4572 37.6302 21.2825 37.6745 20.8016C37.7637 20.2335 37.1417 20.2771 36.6097 20.1898L35.8541 20.0588C34.7444 19.84 34.3442 19.5343 34.3442 18.791C34.2994 18.0045 35.0545 17.48 36.0311 17.48C36.5201 17.48 37.1412 17.5673 37.5858 17.9171L37.8076 17.5673H38.207V19.0971H37.7189C37.6302 18.2669 36.7415 18.0045 36.0311 18.0045C35.4982 18.0486 35.1877 18.3106 35.1877 18.6604C35.1877 19.0098 35.4982 19.0539 35.898 19.1412L36.8306 19.2723C37.8076 19.4469 38.5175 19.6221 38.5175 20.6706V20.6706Z" fill="#016D71"></path><defs><linearGradient id="paint0_linear_738_11060" x1="48.0002" y1="18.3965" x2="3.72393" y2="28.8465" gradientUnits="userSpaceOnUse"><stop stop-color="#5CE1E6"></stop><stop offset="0.916667" stop-color="#94FBFF"></stop></linearGradient></defs></svg> 