<?xml version="1.0" encoding="UTF-8"?> <svg xmlns="http://www.w3.org/2000/svg" width="53" height="52" viewBox="0 0 53 52" fill="none"><ellipse cx="25.1293" cy="26.8018" rx="25.1293" ry="25.1982" fill="#016D71"></ellipse><path d="M52.5257 25.1982C52.5257 38.8542 41.486 49.9223 27.8705 49.9223C14.2551 49.9223 3.21535 38.8542 3.21535 25.1982C3.21535 11.5423 14.2551 0.474138 27.8705 0.474138C41.486 0.474138 52.5257 11.5423 52.5257 25.1982Z" fill="url(#paint0_linear_738_15990)" stroke="#016D71" stroke-width="0.948276"></path><path d="M49.3274 25.1982C49.3274 37.083 39.7196 46.7153 27.8705 46.7153C16.0214 46.7153 6.41359 37.083 6.41359 25.1982C6.41359 13.3135 16.0214 3.68117 27.8705 3.68117C39.7196 3.68117 49.3274 13.3135 49.3274 25.1982Z" stroke="#016D71" stroke-width="0.948276"></path><path fill-rule="evenodd" clip-rule="evenodd" d="M24.4702 27.0967C23.3793 26.4119 21.8988 26.2918 19.5111 26.9372C19.1471 27.0206 18.8177 27.0997 18.5173 27.1718C16.7175 27.604 15.9577 27.7864 15.0025 27.1437C14.5743 26.7752 14.4208 26.182 14.5355 25.3275C14.8013 23.9345 15.5198 22.594 16.7961 21.1071C17.5084 20.3335 18.1693 19.6697 19.0418 19.4032C19.7105 19.236 19.648 19.748 19.5671 19.8213C19.4817 19.8213 19.3383 19.8344 19.2274 19.9049C19.1374 19.9729 18.8905 20.1924 18.8772 20.4877C18.8581 20.9398 19.3382 20.8457 19.5453 20.5975C19.7685 20.3178 20.0984 19.7821 19.8389 19.2829C19.7301 19.1053 19.5422 18.9825 19.3089 18.9406C18.5099 18.8962 17.7658 19.2673 17.0791 19.6776C15.5772 20.6941 14.3758 22.1027 13.696 23.6446C13.3041 24.5749 12.9496 25.9076 13.4809 26.9922C13.8919 27.7448 14.7452 28.1445 15.7632 28.0609C16.3661 27.9992 17.0755 27.8293 17.6312 27.6962C17.7337 27.6716 17.8309 27.6484 17.9212 27.6272C17.9738 27.6149 18.0459 27.5956 18.1343 27.5719C19.0234 27.3334 21.5627 26.6524 22.4509 28.2284C22.4509 28.2284 22.7757 27.6141 23.5873 27.601C24.2546 27.541 25.2172 27.7892 25.9182 28.2909C25.6847 27.9487 25.0225 27.4443 24.4702 27.0967ZM19.8142 21.2821C19.2583 20.9267 18.1409 21.6062 17.2459 22.7717C16.4275 23.8171 16.0742 25.0321 16.4588 25.594C17.0308 26.2551 18.0929 25.2935 18.5445 24.7788L18.6028 24.7186C18.9041 24.4032 19.1382 24.025 19.3638 23.6603L19.3769 23.6392C19.3769 23.6392 19.588 23.2995 19.5981 23.2838C19.7285 23.2603 19.8857 23.2237 20.0627 23.1741L20.0535 23.19C19.9728 23.328 19.3899 24.3242 19.4541 24.836C19.4563 24.8529 19.4581 24.8743 19.4601 24.8994L19.4601 24.8994C19.4787 25.1226 19.5211 25.6336 20.0719 25.8004C20.8885 25.9338 21.5406 25.3169 22.1159 24.7681C22.1159 24.7681 22.214 24.6768 22.2694 24.6246C22.2554 24.6793 22.2371 24.7523 22.2371 24.7523C21.998 25.5625 22.3203 25.7325 22.5219 25.7952C23.0989 25.9587 23.7823 25.1937 23.855 25.1123L23.8613 25.1053C23.8594 25.1337 23.857 25.1615 23.8547 25.1888L23.8547 25.1889C23.8347 25.4234 23.818 25.6205 24.0812 25.7821C24.3586 25.8789 24.6393 25.7313 24.8528 25.5928C25.6214 25.065 26.2407 24.2387 26.7408 23.5246H26.4218C26.4214 23.5246 26.4138 23.5349 26.3999 23.5538C26.2694 23.7301 25.5854 24.6543 25.1258 24.8716L25.1242 24.8723C25.1119 24.8779 25.0285 24.9153 24.979 24.8813C24.913 24.8264 24.939 24.7123 24.9798 24.6314C24.9824 24.6262 26.9442 21.3107 26.9442 21.3107H26.0179C26.0179 21.3107 25.9168 21.4702 25.9085 21.4807C25.9051 21.4778 25.8991 21.4683 25.8927 21.4581L25.8926 21.458C25.8874 21.4497 25.8818 21.4408 25.8772 21.4349C25.3033 20.6614 24.0037 21.8512 23.0252 23.2309C22.6485 23.7615 22.169 24.3589 21.6716 24.79C21.6716 24.79 20.9349 25.4481 20.6201 24.9753C20.5051 24.7766 20.5405 24.4862 20.6054 24.2955C20.9719 23.2789 21.6034 22.3563 22.3221 21.7997C22.5249 21.6456 22.7455 21.601 22.8549 21.6664C22.9592 21.7266 22.976 21.8754 22.91 21.9773C22.7427 21.9721 22.6085 22.0217 22.4995 22.1315C22.2848 22.351 22.2102 22.5627 22.2785 22.7613C22.6101 23.2213 23.2717 22.3118 23.2397 21.7578C23.2282 21.5592 23.1195 21.3711 22.9572 21.2795C22.7152 21.1384 22.3462 21.175 22.1074 21.2874C21.7876 21.405 21.2816 21.8152 20.9862 22.1341C20.6143 22.534 19.9764 22.9782 19.777 22.9285C19.7831 22.9125 19.7934 22.8887 19.8065 22.8581C19.9335 22.5631 20.3278 21.6468 19.8142 21.2821ZM24.28 22.871C24.4602 22.628 24.9847 21.9773 25.1125 21.8675C25.5426 21.4989 25.7144 21.6611 25.7293 21.776C25.328 22.4764 24.8543 23.2787 24.409 24C24.4099 23.9974 24.2696 24.2064 24.2696 24.2064C24.0729 24.499 23.8749 24.7499 23.5519 24.925C23.5058 24.9382 23.4299 24.9434 23.3793 24.9067C23.3185 24.8675 23.2945 24.8021 23.3013 24.7342C23.3207 24.5095 23.5555 23.8223 24.28 22.871ZM19.2409 23.2917C19.2409 23.2917 19.2328 23.3153 19.2288 23.323C19.2278 23.323 18.825 23.9632 18.825 23.9632L18.8192 23.9707C18.577 24.2858 18.2753 24.6783 17.8988 24.8675C17.7864 24.9041 17.6309 24.9277 17.5517 24.831C17.3837 24.635 17.4703 24.3632 17.5406 24.1437L17.5655 24.0653C17.7671 23.5323 18.087 23.0618 18.3985 22.6253C18.4023 22.6228 18.4111 22.6202 18.4142 22.6202L18.4151 22.6223C18.4158 22.6234 18.4164 22.6246 18.4167 22.628C18.6121 22.9938 18.9785 23.1636 19.2525 23.2421C19.2542 23.2421 19.256 23.2447 19.256 23.25C19.256 23.2578 19.2516 23.2683 19.2409 23.2917ZM19.6225 22.5366C19.6207 22.5418 19.4431 22.939 19.4431 22.939C19.4186 22.959 19.3804 22.9503 19.3365 22.9404L19.3303 22.939L19.2505 22.9259C19.0001 22.8501 18.8112 22.6881 18.753 22.4947C18.6727 22.1184 19.0027 21.8231 19.148 21.716C19.2875 21.6218 19.5043 21.5722 19.6302 21.6689C19.7079 21.7578 19.7373 21.8728 19.7373 21.9983C19.7374 22.1681 19.6836 22.3588 19.6225 22.5366ZM31.3327 23.749C31.2434 23.5609 31.0314 23.4407 30.8054 23.4537C30.0716 23.5191 29.3539 24.1071 28.977 24.9511C28.7793 25.385 28.6713 25.7429 28.6006 26.3126C28.8288 26.0566 29.2942 25.6359 29.8223 25.4059C29.8223 25.4059 29.8942 24.8597 30.2607 24.3736C30.3993 24.1724 30.6768 23.8483 30.9884 23.9345C31.2607 24.0234 31.165 24.7578 30.8032 25.4685C30.5354 25.9912 30.1257 26.514 29.7111 26.8745C29.3446 27.1777 28.8024 27.5435 28.3279 27.2613C28.0291 27.0889 27.8767 26.7282 27.9089 26.263C28.0517 24.9434 28.6682 23.8196 29.5505 22.5391C30.4602 21.3501 31.463 20.1297 32.8139 19.4789C33.0895 19.343 33.3447 19.3117 33.5652 19.3953C33.5652 19.3953 32.2971 20.0747 31.6926 21.3318L31.6859 21.3457C31.5327 21.6631 31.3281 22.0872 31.5403 22.4633C31.6529 22.6619 31.8527 22.6776 32.0136 22.6671C32.7546 22.4998 33.2333 21.8256 33.6244 21.2089C33.8512 20.7412 34.0527 20.276 34.0527 19.7585C34.0527 19.6958 34.0494 19.6122 34.044 19.5495C34.398 19.3666 35.1239 19.6906 35.1239 19.6906C35.4573 19.7982 36.0121 20.154 36.4955 20.4641C36.8345 20.6816 37.1385 20.8766 37.3064 20.9476C37.5052 20.7229 37.8318 20.3832 38.0157 20.2133L37.7495 20.0539C37.341 19.811 36.9103 19.58 36.4849 19.3519L36.4848 19.3519L36.4294 19.3222C35.4224 18.7865 34.6026 18.9746 34.1855 19.121C34.0215 19.1784 33.8717 19.2281 33.8717 19.2281C33.5621 18.8988 33.0543 18.9301 32.6802 19.019C31.3348 19.3953 30.0856 20.3126 28.7463 21.9041C27.7617 23.1507 27.1509 24.2274 26.8254 25.291C26.5745 26.007 26.4982 27.0601 27.1106 27.6847C27.6314 28.2151 28.3218 28.1002 28.8094 27.9095C29.8658 27.4025 30.8153 26.3101 31.2884 25.0531C31.4026 24.6794 31.5293 24.1515 31.3327 23.749ZM33.7619 19.8109C33.6221 21.3736 32.3754 22.291 32.0669 22.364C31.88 22.4006 31.561 22.3196 31.8458 21.6638C32.2651 20.7804 32.981 20.0304 33.7492 19.6462C33.7679 19.7116 33.7674 19.7533 33.7619 19.8109ZM41.1572 20.0094C40.4866 20.3805 39.7914 20.6209 38.9499 20.5373C38.7167 20.7935 38.4896 21.0574 38.2803 21.3291C39.4614 21.6218 40.7136 20.9711 41.4119 20.3518C42.1507 19.7272 42.5294 18.9407 42.5294 18.9407C42.5294 18.9407 41.9757 19.5574 41.1572 20.0094ZM28.4837 21.3108H27.6041L27.1079 22.0964H27.9873L28.4837 21.3108ZM38.7686 27.0402C38.7189 27.1839 38.8518 27.2321 38.9464 27.1694C39.4702 26.8695 39.8906 26.2497 40.2243 25.7575C40.2368 25.7391 40.2492 25.7208 40.2614 25.7028H40.5745C40.3357 26.0956 39.4158 27.4542 38.6474 27.8619C38.6171 27.8778 38.5873 27.8941 38.5579 27.9102C38.3795 28.0079 38.213 28.0991 38.0007 28.0609C37.6397 28.0165 37.6218 27.5722 37.6877 27.324C37.4825 27.5356 37.0404 27.9486 36.6436 28.0531C36.2981 28.1183 35.845 27.985 35.9699 27.1331C35.3881 27.844 34.6728 28.3823 34.2408 27.8622C33.9384 27.4938 34.0865 26.8718 34.4065 25.9572C34.4065 25.9572 34.5143 25.6435 34.5263 25.6044C34.5216 25.6017 34.5205 25.6017 34.5177 25.6017C34.3422 25.6458 34.1192 25.6583 34.0409 25.6627C34.0261 25.6635 34.0165 25.664 34.0133 25.6644C33.5083 26.5268 32.8676 27.4702 31.9507 27.9406C31.8158 28.0085 31.4724 28.1496 31.1996 28.0138C30.9343 27.8675 30.8303 27.5747 30.8814 27.1201C30.9539 26.5398 31.2157 26.0331 31.4782 25.56C31.9664 24.8153 32.6428 23.911 33.5479 23.5451C33.75 23.4564 34.0496 23.4015 34.2921 23.5191C34.4988 23.6653 34.5543 23.8769 34.5543 24.1019C34.5543 24.2064 34.5416 24.3134 34.5279 24.418C34.4492 24.7839 34.2918 25.1211 34.1667 25.3719C34.227 25.4111 34.5815 25.3301 34.6733 25.2622C35.9395 22.6855 37.3878 20.7986 39.1029 19.4894L39.1164 19.4816C39.45 19.2594 39.8647 18.9851 40.2451 19.0556C40.3618 19.0766 40.4512 19.168 40.4719 19.2882C40.5342 19.6618 40.3653 19.9755 40.2129 20.255C40.0815 20.2969 39.8814 20.3335 39.8814 20.3335L40.0227 20.0513C40.1235 19.8579 40.2113 19.688 40.2001 19.4581C40.1707 19.3979 40.1366 19.3953 40.1102 19.3979C39.8596 19.4476 39.538 19.7507 39.2277 20.046L39.0269 20.2342C37.7516 21.4755 36.2528 24.0704 36.0208 24.6141C36.5444 24.3659 38.2717 22.6985 39.1157 21.5513C39.2885 21.5461 39.4349 21.5173 39.4349 21.5173C39.2997 21.7761 38.3747 22.9337 37.2776 23.9556C36.7721 24.4286 36.2158 24.8598 35.7283 25.1891C35.4887 25.6935 35.2508 26.25 35.1484 26.8355C35.1369 26.9165 35.1096 27.2643 35.3745 27.2433C35.7138 27.1701 36.3251 26.1853 36.3251 26.1853L36.3475 26.1511C36.9248 25.2703 37.6551 24.1559 38.6514 23.5882C38.8835 23.4602 39.22 23.3935 39.4493 23.5347C39.5028 23.5686 39.6327 23.7253 39.6761 23.7958C39.6761 23.7958 39.7715 23.6318 39.8161 23.5604H40.7549L39.3844 25.9288C39.3844 25.9288 38.8924 26.6744 38.7686 27.0402ZM31.9823 26.8473C31.9839 26.9307 32 27.0078 32.0488 27.0784C32.4554 27.5384 33.4299 26.2174 33.7141 25.6007C33.4853 25.5039 33.1063 25.2744 32.9389 24.9173H32.9381C32.5388 25.4172 31.9729 26.3348 31.9823 26.8473ZM33.2771 24.7553C33.3695 25.1864 33.8474 25.3433 33.8745 25.3249C34.0278 25.0647 34.1459 24.7863 34.226 24.4966L34.2282 24.4782L34.2293 24.4701C34.2394 24.3913 34.2504 24.3056 34.2504 24.222C34.2504 24.0812 34.2201 23.9504 34.1084 23.8771C33.988 23.8355 33.8239 23.8641 33.7149 23.9478C33.4611 24.094 33.1988 24.384 33.2771 24.7553ZM37.6169 26.9922C37.6169 26.9922 37.7072 26.9138 37.7076 26.9138C38.1714 26.3518 38.5423 25.7117 38.8999 25.0923C38.921 25.0562 38.9422 25.0198 38.9635 24.9834C39.1264 24.7036 39.2938 24.4163 39.4687 24.141C39.4769 24.128 39.4913 24.0862 39.4913 24.0705C39.4913 24.0209 39.4547 23.9712 39.4233 23.9425C39.2867 23.8876 39.1574 23.958 39.0382 24.0418C38.343 24.5836 37.8658 25.3602 37.4562 26.0267L37.4346 26.0618L37.3977 26.1376L37.3962 26.1405C37.2526 26.4297 37.1051 26.7266 37.1124 27.0469C37.1198 27.0915 37.151 27.149 37.1952 27.1646C37.3518 27.2234 37.4821 27.1097 37.6084 26.9996L37.6169 26.9922Z" fill="#016D71"></path><defs><linearGradient id="paint0_linear_738_15990" x1="52.9998" y1="19.9295" x2="4.21147" y2="31.6659" gradientUnits="userSpaceOnUse"><stop stop-color="#5CE1E6"></stop><stop offset="0.916667" stop-color="#94FBFF"></stop></linearGradient></defs></svg> 