<?xml version="1.0" encoding="UTF-8"?> <svg xmlns="http://www.w3.org/2000/svg" width="40" height="40" viewBox="0 0 40 40" fill="none"><ellipse cx="18.9655" cy="20.6167" rx="18.9655" ry="19.3833" fill="#016D71"></ellipse><path d="M39.5257 19.3833C39.5257 29.8363 31.2372 38.2924 21.0344 38.2924C10.8315 38.2924 2.54299 29.8363 2.54299 19.3833C2.54299 8.93025 10.8315 0.474138 21.0344 0.474138C31.2372 0.474138 39.5257 8.93025 39.5257 19.3833Z" fill="url(#paint0_linear_738_15871)" stroke="#016D71" stroke-width="0.948276"></path><path d="M37.1122 19.3833C37.1122 28.4739 29.9044 35.8255 21.0346 35.8255C12.1649 35.8255 4.95705 28.4739 4.95705 19.3833C4.95705 10.2928 12.1649 2.94118 21.0346 2.94118C29.9044 2.94118 37.1122 10.2928 37.1122 19.3833Z" stroke="#016D71" stroke-width="0.948276"></path><path fill-rule="evenodd" clip-rule="evenodd" d="M21.0225 16.5635L15.8737 14.1291V22.49L21.0226 24.9245L26.1956 22.49V14.1291L21.0227 16.5635V16.5636L21.0226 16.5636L21.0225 16.5636V16.5635ZM21.0226 12.5307L12.2886 8.39943V24.8262L21.0225 28.9573V28.9574L21.0226 28.9574L21.0227 28.9574V28.9573L29.7807 24.8261V8.39941L21.0226 12.5307Z" fill="#016D71"></path><defs><linearGradient id="paint0_linear_738_15871" x1="39.9999" y1="15.3304" x2="3.10303" y2="24.0388" gradientUnits="userSpaceOnUse"><stop stop-color="#5CE1E6"></stop><stop offset="0.916667" stop-color="#94FBFF"></stop></linearGradient></defs></svg> 