<?xml version="1.0" encoding="UTF-8"?> <svg xmlns="http://www.w3.org/2000/svg" width="48" height="46" viewBox="0 0 48 46" fill="none"><ellipse cx="22.7586" cy="23.7092" rx="22.7586" ry="22.2907" fill="#016D71"></ellipse><path d="M47.526 22.2907C47.526 34.3305 37.5582 44.1074 25.2415 44.1074C12.9248 44.1074 2.95705 34.3305 2.95705 22.2907C2.95705 10.251 12.9248 0.474138 25.2415 0.474138C37.5582 0.474138 47.526 10.251 47.526 22.2907Z" fill="url(#paint0_linear_738_10956)" stroke="#016D71" stroke-width="0.948276"></path><path d="M44.6294 22.2907C44.6294 32.7636 35.9585 41.2703 25.2415 41.2703C14.5245 41.2703 5.85353 32.7636 5.85353 22.2907C5.85353 11.8177 14.5245 3.31105 25.2415 3.31105C35.9585 3.31105 44.6294 11.8177 44.6294 22.2907Z" stroke="#016D71" stroke-width="0.948276"></path><path fill-rule="evenodd" clip-rule="evenodd" d="M25.2413 14.3877C18.5759 14.3877 13.1724 17.2986 13.1724 20.8892C13.1724 23.1461 15.3074 25.1347 18.5489 26.3004L21.0536 18.179C21.2945 17.407 22.1654 15.7946 24.0554 15.7259C24.5742 15.6916 25.6124 16.0347 25.6121 16.9781C25.6121 17.3398 25.2719 17.6331 24.8522 17.6331C24.4325 17.6331 24.0923 17.3398 24.0923 16.9781C24.0923 16.6163 24.4325 16.3231 24.8522 16.3231C24.7225 16.1719 24.3334 15.966 24.0554 15.966C23.7773 15.966 23.1289 16.0689 22.7213 17.3554L22.0727 19.4138H24.5001L23.4624 22.8102H22.1746L23.0918 19.8256H21.9522L19.8311 26.7023C21.4583 27.1428 23.2961 27.3906 25.2412 27.3906C31.9065 27.3906 37.3103 24.4798 37.3103 20.889C37.3104 17.2986 31.9067 14.3877 25.2413 14.3877V14.3877ZM20.0248 19.7198C19.5986 21.2122 18.1348 21.1952 17.653 21.1952H16.7079L16.1891 22.8076H14.7993L16.2261 18.1761H15.522L15.6332 17.8331H18.5794C20.21 17.8329 20.2286 18.9136 20.0248 19.7198ZM27.2262 22.8115H24.2057L26.355 19.8267H25.1137L25.2434 19.415H28.2822L26.1327 22.3998H27.3557L27.2262 22.8115V22.8115ZM32.0817 21.1989H29.5061C29.3208 21.7478 29.2095 22.4511 29.71 22.4683C30.2102 22.4855 30.4881 22.0223 30.6549 21.5591H31.9149C31.5075 22.8113 30.3584 22.9315 29.6359 22.8972C28.0977 22.8113 27.8941 21.9193 28.2275 20.9588C28.6537 19.6895 29.5618 19.2434 30.6733 19.2434C32.2857 19.2777 32.2857 20.5127 32.0817 21.1989V21.1989ZM35.8571 20.5724C35.4736 20.5724 35.1344 20.2812 35.1626 19.8695C34.8945 19.9209 34.486 20.4269 34.4117 20.6842L33.7447 22.8113H32.3366L33.2629 19.8266H32.707L32.8368 19.4149H34.8011L34.6343 19.9639C35.042 19.4664 35.6163 19.3378 35.8573 19.3295C36.2408 19.3295 36.5518 19.5744 36.5518 19.9295C36.5517 20.1 36.4785 20.2635 36.3483 20.3841C36.218 20.5047 36.0413 20.5724 35.8571 20.5724V20.5724ZM29.6367 20.8515C29.7665 20.4741 29.9516 19.6164 30.6003 19.6164C31.249 19.6164 30.9153 20.5256 30.8226 20.8515H29.6367ZM17.6545 18.1719H18.2289C18.6737 18.1891 18.8589 18.5664 18.6181 19.5443C18.3772 20.522 17.8212 20.848 17.3951 20.848H16.8207L17.6545 18.1719V18.1719Z" fill="#016D71"></path><defs><linearGradient id="paint0_linear_738_10956" x1="48.0002" y1="17.63" x2="3.93053" y2="28.4835" gradientUnits="userSpaceOnUse"><stop stop-color="#5CE1E6"></stop><stop offset="0.916667" stop-color="#94FBFF"></stop></linearGradient></defs></svg> 