<?xml version="1.0" encoding="UTF-8"?> <svg xmlns="http://www.w3.org/2000/svg" width="29" height="29" viewBox="0 0 29 29" fill="none"><ellipse cx="13.75" cy="14.9472" rx="13.75" ry="14.0529" fill="#016D71"></ellipse><path d="M28.681 14.0529C28.681 21.6445 22.6612 27.7868 15.25 27.7868C7.83876 27.7868 1.81897 21.6445 1.81897 14.0529C1.81897 6.46125 7.83876 0.318966 15.25 0.318966C22.6612 0.318966 28.681 6.46125 28.681 14.0529Z" fill="url(#paint0_linear_738_15933)" stroke="#016D71" stroke-width="0.637931"></path><path d="M26.931 14.0529C26.931 20.6567 21.6947 25.9982 15.25 25.9982C8.80526 25.9982 3.56897 20.6567 3.56897 14.0529C3.56897 7.44907 8.80526 2.10754 15.25 2.10754C21.6947 2.10754 26.931 7.44907 26.931 14.0529Z" stroke="#016D71" stroke-width="0.637931"></path><path fill-rule="evenodd" clip-rule="evenodd" d="M17.2081 11.1187C17.2682 11.1801 17.3019 11.2633 17.3019 11.3502V12.9051C17.3019 12.9919 17.2682 13.0752 17.2081 13.1366C17.148 13.198 17.0666 13.2325 16.9816 13.2325C16.8967 13.2325 16.8152 13.198 16.7551 13.1366C16.6951 13.0752 16.6613 12.9919 16.6613 12.9051V11.3502C16.6613 11.2633 16.6951 11.1801 16.7551 11.1187C16.8152 11.0573 16.8967 11.0228 16.9816 11.0228C17.0666 11.0228 17.148 11.0573 17.2081 11.1187ZM18.9297 9.91155C18.9898 9.97295 19.0235 10.0562 19.0235 10.143V13.5394C19.0235 13.6262 18.9898 13.7095 18.9297 13.7708C18.8697 13.8322 18.7882 13.8667 18.7032 13.8667C18.6183 13.8667 18.5368 13.8322 18.4768 13.7708C18.4167 13.7095 18.3829 13.6262 18.3829 13.5394V10.143C18.3829 10.0562 18.4167 9.97295 18.4768 9.91155C18.5368 9.85016 18.6183 9.81567 18.7032 9.81567C18.7882 9.81567 18.8697 9.85016 18.9297 9.91155ZM20.7208 11.2249C20.7369 11.2646 20.7452 11.3072 20.7452 11.3502V12.9051C20.7452 12.9481 20.7369 12.9907 20.7208 13.0304C20.7047 13.0701 20.6811 13.1062 20.6514 13.1366C20.6216 13.167 20.5863 13.1911 20.5474 13.2076C20.5086 13.224 20.4669 13.2325 20.4249 13.2325C20.3828 13.2325 20.3412 13.224 20.3023 13.2076C20.2634 13.1911 20.2281 13.167 20.1984 13.1366C20.1686 13.1062 20.145 13.0701 20.1289 13.0304C20.1129 12.9907 20.1046 12.9481 20.1046 12.9051V11.3502C20.1046 11.3072 20.1129 11.2646 20.1289 11.2249C20.145 11.1852 20.1686 11.1491 20.1984 11.1187C20.2281 11.0883 20.2634 11.0642 20.3023 11.0477C20.3412 11.0313 20.3828 11.0228 20.4249 11.0228C20.4669 11.0228 20.5086 11.0313 20.5474 11.0477C20.5863 11.0642 20.6216 11.0883 20.6514 11.1187C20.6811 11.1491 20.7047 11.1852 20.7208 11.2249ZM22.373 11.9985C22.4331 12.0599 22.4668 12.1431 22.4668 12.2299V12.9051C22.4668 12.9919 22.4331 13.0752 22.373 13.1366C22.3129 13.198 22.2314 13.2325 22.1465 13.2325C22.0615 13.2325 21.9801 13.198 21.92 13.1366C21.8599 13.0752 21.8262 12.9919 21.8262 12.9051V12.2299C21.8262 12.1431 21.8599 12.0599 21.92 11.9985C21.9801 11.9371 22.0615 11.9026 22.1465 11.9026C22.2314 11.9026 22.3129 11.9371 22.373 11.9985ZM10.3721 11.2243C10.388 11.2642 10.3959 11.307 10.3954 11.3502H10.4154V12.9051C10.4159 12.9483 10.408 12.9911 10.3921 13.0311C10.3762 13.071 10.3526 13.1073 10.3228 13.1378C10.2929 13.1683 10.2574 13.1924 10.2183 13.2087C10.1792 13.225 10.1373 13.233 10.0951 13.2325C10.0529 13.233 10.011 13.225 9.97186 13.2087C9.93276 13.1924 9.89723 13.1683 9.86738 13.1378C9.83753 13.1073 9.81396 13.071 9.79805 13.0311C9.78215 12.9911 9.77423 12.9483 9.77477 12.9051V11.3502C9.77477 11.1661 9.89488 11.0228 10.0751 11.0228C10.1173 11.0223 10.1592 11.0304 10.1983 11.0466C10.2374 11.0629 10.2729 11.087 10.3027 11.1175C10.3326 11.148 10.3562 11.1843 10.3721 11.2243ZM12.1137 10.0171C12.1296 10.0571 12.1375 10.0999 12.137 10.1431V13.5394C12.1375 13.5825 12.1296 13.6253 12.1137 13.6653C12.0978 13.7053 12.0742 13.7416 12.0444 13.7721C12.0145 13.8026 11.979 13.8267 11.9399 13.843C11.9008 13.8592 11.8589 13.8673 11.8167 13.8668C11.7745 13.8673 11.7326 13.8592 11.6935 13.843C11.6544 13.8267 11.6189 13.8026 11.589 13.7721C11.5592 13.7416 11.5356 13.7053 11.5197 13.6653C11.5038 13.6253 11.4959 13.5825 11.4964 13.5394V10.1431C11.4959 10.0999 11.5038 10.0571 11.5197 10.0171C11.5356 9.97717 11.5592 9.94086 11.589 9.91036C11.6189 9.87985 11.6544 9.85576 11.6935 9.8395C11.7326 9.82324 11.7745 9.81515 11.8167 9.8157C11.8589 9.81515 11.9008 9.82324 11.9399 9.8395C11.979 9.85576 12.0145 9.87985 12.0444 9.91036C12.0742 9.94086 12.0978 9.97717 12.1137 10.0171ZM13.8353 11.2243C13.8512 11.2642 13.8592 11.307 13.8586 11.3502V12.9051C13.8592 12.9483 13.8512 12.9911 13.8353 13.0311C13.8194 13.071 13.7959 13.1073 13.766 13.1378C13.7362 13.1683 13.7006 13.1924 13.6615 13.2087C13.6224 13.225 13.5805 13.233 13.5383 13.2325C13.4961 13.233 13.4542 13.225 13.4151 13.2087C13.376 13.1924 13.3405 13.1683 13.3106 13.1378C13.2808 13.1073 13.2572 13.071 13.2413 13.0311C13.2254 12.9911 13.2175 12.9483 13.218 12.9051V11.3502C13.2175 11.307 13.2254 11.2642 13.2413 11.2243C13.2572 11.1843 13.2808 11.148 13.3106 11.1175C13.3405 11.087 13.376 11.0629 13.4151 11.0466C13.4542 11.0304 13.4961 11.0223 13.5383 11.0228C13.5805 11.0223 13.6224 11.0304 13.6615 11.0466C13.7006 11.0629 13.7362 11.087 13.766 11.1175C13.7959 11.148 13.8194 11.1843 13.8353 11.2243ZM8.67383 12.23C8.67437 12.1868 8.66645 12.144 8.65055 12.104C8.63464 12.0641 8.61107 12.0278 8.58122 11.9973C8.55137 11.9668 8.51584 11.9427 8.47674 11.9264C8.43764 11.9101 8.39574 11.9021 8.35353 11.9026C8.31132 11.9021 8.26943 11.9101 8.23032 11.9264C8.19122 11.9427 8.1557 11.9668 8.12584 11.9973C8.09599 12.0278 8.07242 12.0641 8.05651 12.104C8.04061 12.144 8.03269 12.1868 8.03323 12.23V12.9051C8.03269 12.9483 8.04061 12.9911 8.05651 13.0311C8.07242 13.071 8.09599 13.1073 8.12584 13.1378C8.1557 13.1683 8.19122 13.1924 8.23032 13.2087C8.26943 13.225 8.31132 13.233 8.35353 13.2325C8.39574 13.233 8.43764 13.225 8.47674 13.2087C8.51584 13.1924 8.55137 13.1683 8.58122 13.1378C8.61107 13.1073 8.63464 13.071 8.65055 13.0311C8.66645 12.9911 8.67437 12.9483 8.67383 12.9051V12.23ZM12.1371 14.9715H12.7777V17.529H12.1371V14.9715ZM17.8625 15.7081C17.8425 15.6876 17.6423 15.5649 17.322 15.5649C16.9216 15.5649 16.6213 15.8513 16.6213 16.24C16.6213 16.6288 16.9016 16.9152 17.322 16.9152C17.5981 16.9152 17.7896 16.8114 17.8498 16.7788L17.8625 16.772V17.4676L17.8475 17.4715C17.7571 17.4949 17.5462 17.5495 17.282 17.5495C16.5613 17.5495 15.9407 17.0584 15.9407 16.2196C15.9407 15.4626 16.5012 14.8897 17.282 14.8897C17.4894 14.8897 17.6587 14.9288 17.7633 14.9529C17.8101 14.9637 17.8439 14.9715 17.8625 14.9715V15.7081ZM11.2563 15.7081C11.2362 15.6876 11.0361 15.5649 10.7158 15.5649C10.3154 15.5649 10.0151 15.8513 10.0151 16.24C10.0151 16.6288 10.2954 16.9152 10.7158 16.9152C10.9919 16.9152 11.1834 16.8114 11.2435 16.7788L11.2563 16.772V17.4676L11.2412 17.4715C11.1509 17.4949 10.94 17.5495 10.6757 17.5495C9.97506 17.5495 9.33445 17.0584 9.33445 16.2196C9.33445 15.4626 9.89498 14.8897 10.6757 14.8897C10.8832 14.8897 11.0525 14.9288 11.1571 14.9529C11.2039 14.9637 11.2377 14.9715 11.2563 14.9715V15.7081ZM21.1656 16.2605C21.1656 16.9971 20.6051 17.5904 19.8444 17.5904C19.0837 17.5904 18.5231 16.9971 18.5231 16.2605C18.5231 15.5239 19.0837 14.9306 19.8444 14.9306C20.6251 14.9306 21.1656 15.5239 21.1656 16.2605ZM19.8444 15.5853C19.464 15.5853 19.1838 15.8922 19.1838 16.2605C19.1838 16.6288 19.464 16.9357 19.8444 16.9357C20.2247 16.9357 20.505 16.6288 20.505 16.2605C20.505 15.8922 20.2247 15.5853 19.8444 15.5853ZM15.16 15.5649C15.16 15.5649 14.8797 15.483 14.6595 15.483C14.3992 15.483 14.2591 15.5649 14.2591 15.6876C14.2591 15.8292 14.3939 15.8789 14.4951 15.9163C14.5109 15.9221 14.5259 15.9276 14.5394 15.9331L14.7195 15.9945C15.1199 16.1377 15.3201 16.4242 15.3201 16.7311C15.3201 17.3653 14.7596 17.5904 14.2791 17.5904C14.0052 17.5904 13.7443 17.5506 13.6424 17.5351C13.6177 17.5313 13.6024 17.529 13.5985 17.529V16.9357C13.6585 16.9561 13.9188 17.038 14.199 17.038C14.5193 17.038 14.6595 16.9357 14.6595 16.7925C14.6595 16.6697 14.5394 16.5879 14.3792 16.5469C14.3392 16.5265 14.2791 16.506 14.2391 16.506C13.8787 16.3833 13.5985 16.1787 13.5985 15.749C13.5985 15.2784 13.9588 14.9511 14.5394 14.9511C14.778 14.9511 15.0167 15.0028 15.1146 15.024L15.1147 15.024L15.1147 15.024L15.1147 15.024C15.14 15.0295 15.1558 15.0329 15.16 15.0329V15.5649ZM15.5803 12.23C15.5809 12.1868 15.573 12.144 15.5571 12.104C15.5411 12.0641 15.5176 12.0278 15.4877 11.9973C15.4579 11.9668 15.4224 11.9427 15.3832 11.9264C15.3441 11.9101 15.3023 11.9021 15.26 11.9026C15.2178 11.9021 15.1759 11.9101 15.1368 11.9264C15.0977 11.9427 15.0622 11.9668 15.0324 11.9973C15.0025 12.0278 14.9789 12.0641 14.963 12.104C14.9471 12.144 14.9392 12.1868 14.9397 12.23V12.9051C14.9392 12.9483 14.9471 12.9911 14.963 13.0311C14.9789 13.071 15.0025 13.1073 15.0324 13.1378C15.0622 13.1683 15.0977 13.1924 15.1368 13.2087C15.1759 13.225 15.2178 13.233 15.26 13.2325C15.3023 13.233 15.3441 13.225 15.3832 13.2087C15.4224 13.1924 15.4579 13.1683 15.4877 13.1378C15.5176 13.1073 15.5411 13.071 15.5571 13.0311C15.573 12.9911 15.5809 12.9483 15.5803 12.9051V12.23Z" fill="#016D71"></path><defs><linearGradient id="paint0_linear_738_15933" x1="29" y1="11.1145" x2="2.24978" y2="17.4281" gradientUnits="userSpaceOnUse"><stop stop-color="#5CE1E6"></stop><stop offset="0.916667" stop-color="#94FBFF"></stop></linearGradient></defs></svg> 