<?xml version="1.0" encoding="UTF-8"?> <svg xmlns="http://www.w3.org/2000/svg" width="48" height="48" viewBox="0 0 48 48" fill="none"><ellipse cx="22.7586" cy="24.7404" rx="22.7586" ry="23.2599" fill="#016D71"></ellipse><path d="M47.526 23.2599C47.526 35.8539 37.5392 46.0457 25.2415 46.0457C12.9438 46.0457 2.95705 35.8539 2.95705 23.2599C2.95705 10.6659 12.9438 0.474138 25.2415 0.474138C37.5392 0.474138 47.526 10.6659 47.526 23.2599Z" fill="url(#paint0_linear_738_11014)" stroke="#016D71" stroke-width="0.948276"></path><path d="M44.6294 23.26C44.6294 34.2191 35.9394 43.0854 25.2415 43.0854C14.5435 43.0854 5.85353 34.2191 5.85353 23.26C5.85353 12.3009 14.5435 3.43459 25.2415 3.43459C35.9394 3.43459 44.6294 12.3009 44.6294 23.26Z" stroke="#016D71" stroke-width="0.948276"></path><path d="M30.5145 12.8907C32.5923 12.8907 34.278 22.1178 34.278 33.5156H37.3103C37.3103 21.2453 34.2508 11.313 30.5054 11.313C28.3662 11.313 26.4754 14.2884 25.2272 18.9655C23.9791 14.2895 22.0883 11.313 19.9662 11.313C16.2208 11.313 13.1724 21.2368 13.1724 33.5072H16.2037C16.2037 22.1104 17.8712 12.8907 19.9491 12.8907C22.027 12.8907 23.7116 21.4147 23.7116 31.9294H26.7258C26.7258 21.4147 28.4195 12.8907 30.4974 12.8907H30.5145Z" fill="#016D71"></path><defs><linearGradient id="paint0_linear_738_11014" x1="48.0002" y1="18.3965" x2="3.72393" y2="28.8465" gradientUnits="userSpaceOnUse"><stop stop-color="#5CE1E6"></stop><stop offset="0.916667" stop-color="#94FBFF"></stop></linearGradient></defs></svg> 