<?xml version="1.0" encoding="UTF-8"?> <svg xmlns="http://www.w3.org/2000/svg" width="29" height="29" viewBox="0 0 29 29" fill="none"><ellipse cx="13.75" cy="14.9474" rx="13.75" ry="14.0529" fill="#016D71"></ellipse><path d="M28.681 14.0529C28.681 21.6445 22.6612 27.7868 15.25 27.7868C7.83876 27.7868 1.81897 21.6445 1.81897 14.0529C1.81897 6.46125 7.83876 0.318966 15.25 0.318966C22.6612 0.318966 28.681 6.46125 28.681 14.0529Z" fill="url(#paint0_linear_738_10934)" stroke="#016D71" stroke-width="0.637931"></path><path d="M26.931 14.0529C26.931 20.6567 21.6947 25.9982 15.25 25.9982C8.80526 25.9982 3.56897 20.6567 3.56897 14.0529C3.56897 7.44907 8.80526 2.10754 15.25 2.10754C21.6947 2.10754 26.931 7.44907 26.931 14.0529Z" stroke="#016D71" stroke-width="0.637931"></path><path fill-rule="evenodd" clip-rule="evenodd" d="M16.491 15.8709C16.4935 15.8761 13.8959 9.82052 13.8842 9.8085C13.9099 9.78827 12.1762 13.8813 12.1553 13.8864H12.1553C12.1553 13.8864 12.1553 13.8864 12.1553 13.8864H13.9906C13.9858 13.8922 14.2392 14.5142 14.4617 15.0603C14.6344 15.4844 14.7885 15.8627 14.7885 15.8709H16.491ZM8.35156 6.08985H8.35157C8.35157 6.08984 8.35157 6.08984 8.35156 6.08985ZM12.3414 6.08985H8.35157C8.35574 6.09675 8.3649 15.8437 8.3648 15.8574C8.37805 15.8702 12.353 6.08729 12.3414 6.08985ZM19.5045 6.08985H15.3787C15.3787 6.08985 19.504 15.8941 19.5016 15.8627L19.5045 6.08985ZM10.8582 21.2776L9.97188 17.4009H9.35119L8.46483 21.2776H9.11062L9.2584 20.5521H10.0604L10.2124 21.2776H10.8582ZM9.65945 18.4421L9.93808 19.8931H9.38091L9.65945 18.4421ZM12.2936 20.9397L12.3106 21.2775V21.2776H12.8213V17.4009H12.2514V18.658C12.091 18.4421 11.9855 18.3589 11.7617 18.3589C11.1202 18.3589 10.9429 19.1399 10.9429 19.8598C10.9429 20.7016 11.1835 21.3828 11.7533 21.3828C11.994 21.3828 12.1838 21.2057 12.2725 20.9397H12.2936ZM11.5339 19.8709C11.5339 19.0846 11.7491 18.9293 11.9054 18.9293C12.0573 18.9293 12.2768 19.0846 12.2768 19.8709C12.2768 20.2972 12.2177 20.8233 11.9054 20.8233C11.5803 20.8233 11.5339 20.2363 11.5339 19.8709ZM14.1893 18.3589C13.5182 18.3589 13.2227 18.9959 13.2227 19.8654C13.2227 20.7459 13.5224 21.3828 14.1893 21.3828C14.8521 21.3828 15.1559 20.746 15.1559 19.8654C15.1559 18.9959 14.8562 18.3589 14.1893 18.3589ZM14.1893 18.9238C14.4088 18.9238 14.5651 19.1011 14.5651 19.8654C14.5651 20.5853 14.4341 20.8179 14.1893 20.8179C14.0163 20.8179 13.8136 20.6906 13.8136 19.8654C13.8136 19.0567 14.0163 18.9238 14.1893 18.9238ZM15.5481 21.2775H16.0589L16.0757 20.9397H16.0925C16.2149 21.2554 16.3627 21.3828 16.6117 21.3828C17.2155 21.3828 17.4307 20.7071 17.4307 19.8598C17.4307 19.007 17.2111 18.3589 16.6076 18.3589C16.4639 18.3589 16.2402 18.4144 16.1222 18.6913V17.4009H15.5481V21.2775ZM16.8397 19.8654C16.8397 20.2918 16.7805 20.8179 16.4682 20.8179C16.1433 20.8179 16.097 20.2308 16.0969 19.8654C16.0969 19.079 16.3121 18.9238 16.4682 18.9238C16.6203 18.9238 16.8397 19.0789 16.8397 19.8654ZM19.5924 20.4636C19.5924 20.4636 19.5924 20.4636 19.5924 20.4635V20.4636H19.5924ZM18.6722 21.3828C18.9846 21.3828 19.4487 21.3164 19.5924 20.4636H19.0183C18.9633 20.7793 18.8282 20.8179 18.6974 20.8179C18.5371 20.8179 18.3133 20.7404 18.3133 20.076H19.6304V19.9209C19.6304 18.575 19.0943 18.3589 18.7143 18.3589C18.1107 18.3589 17.7225 18.9016 17.7225 19.8654C17.7225 21.2499 18.3218 21.3828 18.6722 21.3828ZM18.6975 18.9238C18.8874 18.9238 19.0225 19.0348 19.0393 19.6052H18.3134C18.3177 19.3947 18.3725 18.9238 18.6975 18.9238ZM19.7949 6.08984V6.31745H20.1553V7.28457H20.4078V6.31745H20.7683V6.08984H19.7949ZM21.0814 7.28457V6.36221L21.3979 7.28457H21.5763L21.8962 6.36221V7.28466H22.1489V6.08984H21.8189L21.4923 7.02999L21.1622 6.08984H20.8289V7.28457H21.0814Z" fill="#016D71"></path><defs><linearGradient id="paint0_linear_738_10934" x1="29" y1="11.1145" x2="2.24978" y2="17.4281" gradientUnits="userSpaceOnUse"><stop stop-color="#5CE1E6"></stop><stop offset="0.916667" stop-color="#94FBFF"></stop></linearGradient></defs></svg> 