<?xml version="1.0" encoding="UTF-8"?> <svg xmlns="http://www.w3.org/2000/svg" width="49" height="49" viewBox="0 0 49 49" fill="none"><ellipse cx="23.2328" cy="25.2555" rx="23.2328" ry="23.7445" fill="#016D71"></ellipse><path d="M48.5261 23.7445C48.5261 36.6061 38.327 47.0148 25.7674 47.0148C13.2079 47.0148 3.00881 36.6061 3.00881 23.7445C3.00881 10.8828 13.2079 0.474138 25.7674 0.474138C38.327 0.474138 48.5261 10.8828 48.5261 23.7445Z" fill="url(#paint0_linear_738_10836)" stroke="#016D71" stroke-width="0.948276"></path><path d="M45.5688 23.7444C45.5688 34.9371 36.6936 43.9928 25.7671 43.9928C14.8406 43.9928 5.96535 34.9371 5.96535 23.7444C5.96535 12.5518 14.8406 3.49611 25.7671 3.49611C36.6936 3.49611 45.5688 12.5518 45.5688 23.7444Z" stroke="#016D71" stroke-width="0.948276"></path><path fill-rule="evenodd" clip-rule="evenodd" d="M29.997 15.3259C33.104 15.3259 36.1649 16.8012 38.003 19.2769L38.0876 19.4011H35.7727L35.7496 19.3718C34.173 17.8236 32.112 17.0056 29.997 17.0056C27.8821 17.0056 25.821 17.8236 24.2444 19.3718L24.2214 19.4011H21.9065L21.9988 19.2769C23.8291 16.8012 26.89 15.3259 29.997 15.3259ZM31.6428 28.6906C32.0889 28.6906 32.5888 28.5299 33.1271 28.2232L33.2502 28.1575L32.7657 29.9541L32.7426 29.9687C32.4119 30.1512 31.8658 30.4068 30.9584 30.3922C29.6202 30.363 28.7281 29.3844 28.7281 27.953V22.6948H27.0284V20.942H28.7281V19.0432L30.6969 18.0427V20.942H32.7426V22.6948H30.6969V27.639C30.6969 28.362 30.9968 28.6906 31.6428 28.6906ZM20.9528 27.5148L20.9067 27.5586C20.1992 28.2451 19.3763 28.6103 18.5226 28.6103C16.7538 28.6103 15.4694 27.3468 15.4694 25.6087C15.4694 23.8706 16.7538 22.6071 18.5226 22.6071C19.3686 22.6071 20.1915 22.9723 20.9067 23.6661L20.9528 23.7099L22.0911 22.4026L22.0603 22.3661C21.1143 21.3072 19.9761 20.7887 18.5841 20.7887C17.1844 20.7887 15.9001 21.2341 14.9772 22.0448C13.9774 22.9212 13.4468 24.1554 13.4468 25.6087C13.4468 27.0693 13.9774 28.3036 14.9772 29.1799C15.9001 29.9906 17.1767 30.4361 18.5841 30.4361C19.9838 30.4361 21.1143 29.9175 22.0603 28.8586L22.0911 28.8221L20.9528 27.5148ZM23.2446 30.2535H25.2519V20.9347H23.2446V30.2535ZM34.7883 30.2535H36.8032V20.9347H34.7883V30.2535Z" fill="#016D71"></path><defs><linearGradient id="paint0_linear_738_10836" x1="49.0002" y1="18.7797" x2="3.80154" y2="29.4475" gradientUnits="userSpaceOnUse"><stop stop-color="#5CE1E6"></stop><stop offset="0.916667" stop-color="#94FBFF"></stop></linearGradient></defs></svg> 