<?xml version="1.0" encoding="UTF-8"?> <svg xmlns="http://www.w3.org/2000/svg" width="97" height="97" viewBox="0 0 97 97" fill="none"><ellipse cx="45.9914" cy="49.9956" rx="45.9914" ry="47.0044" fill="#016D71"></ellipse><path d="M96.5257 47.0044C96.5257 72.7122 76.1373 93.5347 51.0085 93.5347C25.8797 93.5347 5.49123 72.7122 5.49123 47.0044C5.49123 21.2967 25.8797 0.474138 51.0085 0.474138C76.1373 0.474138 96.5257 21.2967 96.5257 47.0044Z" fill="url(#paint0_linear_738_10874)" stroke="#016D71" stroke-width="0.948276"></path><path d="M90.6723 47.0042C90.6723 69.408 72.9046 87.5521 51.0085 87.5521C29.1125 87.5521 11.3447 69.408 11.3447 47.0042C11.3447 24.6004 29.1125 6.45632 51.0085 6.45632C72.9046 6.45632 90.6723 24.6004 90.6723 47.0042Z" stroke="#016D71" stroke-width="0.948276"></path><path fill-rule="evenodd" clip-rule="evenodd" d="M44.7849 50.5456C42.7883 49.2683 40.0787 49.0442 35.7089 50.2482C35.0426 50.4037 34.4399 50.5512 33.8901 50.6858C30.5961 51.4919 29.2054 51.8322 27.4573 50.6333C26.6737 49.946 26.3927 48.8394 26.6025 47.2455C27.0891 44.647 28.4041 42.1464 30.7399 39.3727C32.0436 37.9298 33.2531 36.6915 34.85 36.1943C36.0739 35.8823 35.9594 36.8376 35.8113 36.9742C35.6551 36.9742 35.3926 36.9987 35.1897 37.1301C35.025 37.257 34.573 37.6665 34.5487 38.2173C34.5137 39.0606 35.3924 38.8851 35.7714 38.4221C36.18 37.9003 36.7837 36.9012 36.3088 35.97C36.1097 35.6386 35.7658 35.4095 35.3388 35.3315C33.8765 35.2485 32.5147 35.9408 31.2578 36.7061C28.5091 38.6024 26.3103 41.23 25.0661 44.1062C24.3489 45.8416 23.7002 48.3275 24.6725 50.3507C25.4248 51.7546 26.9864 52.5003 28.8495 52.3443C29.9529 52.2292 31.2512 51.9123 32.2683 51.6639C32.4558 51.6182 32.6337 51.5747 32.7991 51.5353C32.8953 51.5124 33.0272 51.4763 33.1891 51.432C34.8162 50.9873 39.4636 49.7169 41.0894 52.6567C41.0894 52.6567 41.6837 51.5109 43.1692 51.4864C44.3904 51.3745 46.1522 51.8375 47.4351 52.7733C47.0077 52.1349 45.7958 51.1941 44.7849 50.5456ZM36.2636 39.6993C35.2461 39.0363 33.2012 40.3037 31.5632 42.4778C30.0654 44.4279 29.4186 46.6945 30.1225 47.7426C31.1695 48.9758 33.1133 47.182 33.9399 46.2218L34.0465 46.1096C34.598 45.5213 35.0264 44.8157 35.4394 44.1354L35.4633 44.0961C35.4633 44.0961 35.8496 43.4624 35.868 43.4331C36.1068 43.3894 36.3944 43.3211 36.7185 43.2284L36.7016 43.2582C36.5539 43.5156 35.487 45.3739 35.6046 46.3286C35.6085 46.3601 35.6118 46.4001 35.6156 46.4469L35.6156 46.4469C35.6495 46.8632 35.7272 47.8165 36.7352 48.1276C38.2299 48.3764 39.4233 47.2257 40.4762 46.202C40.4762 46.202 40.6556 46.0316 40.7571 45.9342C40.7314 46.0363 40.6979 46.1725 40.6979 46.1725C40.2604 47.6837 40.8502 48.0009 41.2191 48.1178C42.2752 48.4228 43.5259 46.9958 43.659 46.844L43.6706 46.831C43.667 46.8838 43.6627 46.9357 43.6585 46.9867L43.6584 46.9868C43.6219 47.4244 43.5912 47.7921 44.073 48.0934C44.5807 48.2739 45.0945 47.9987 45.4851 47.7403C46.8919 46.7557 48.0253 45.2145 48.9407 43.8823H48.3567C48.3561 43.8823 48.3421 43.9016 48.3166 43.9367C48.0778 44.2657 46.8261 45.9897 45.9848 46.3951L45.982 46.3963C45.9594 46.4067 45.8068 46.4765 45.7162 46.4131C45.5953 46.3107 45.643 46.0978 45.7176 45.947C45.7223 45.9372 49.3129 39.7526 49.3129 39.7526H47.6176C47.6176 39.7526 47.4324 40.0501 47.4174 40.0696C47.4111 40.0643 47.4001 40.0465 47.3883 40.0274L47.3883 40.0274C47.3787 40.0118 47.3685 39.9953 47.36 39.9842C46.3097 38.5413 43.9311 40.7608 42.1404 43.3345C41.451 44.3242 40.5732 45.4385 39.6631 46.2428C39.6631 46.2428 38.3147 47.4703 37.7386 46.5884C37.528 46.2179 37.5928 45.6761 37.7116 45.3204C38.3824 43.424 39.5382 41.703 40.8535 40.6646C41.2248 40.3772 41.6284 40.2941 41.8286 40.416C42.0195 40.5283 42.0503 40.8059 41.9296 40.9961C41.6232 40.9864 41.3778 41.0788 41.1783 41.2836C40.7853 41.6931 40.6487 42.088 40.7737 42.4586C41.3807 43.3165 42.5914 41.62 42.5329 40.5866C42.5119 40.216 42.3129 39.8651 42.0158 39.6943C41.5731 39.4312 40.8977 39.4994 40.4606 39.7091C39.8754 39.9284 38.9492 40.6937 38.4085 41.2885C37.7279 42.0345 36.5605 42.8631 36.1955 42.7703C36.2067 42.7406 36.2255 42.696 36.2496 42.6391C36.482 42.0887 37.2036 40.3795 36.2636 39.6993ZM44.4369 42.6631C44.7667 42.2098 45.7266 40.996 45.9606 40.7913C46.7476 40.1037 47.0621 40.4062 47.0894 40.6205C46.3549 41.927 45.488 43.4236 44.6729 44.7691C44.6746 44.7643 44.4179 45.1542 44.4179 45.1542C44.0579 45.7 43.6955 46.168 43.1042 46.4946C43.0199 46.5191 42.8809 46.5289 42.7885 46.4604C42.6771 46.3873 42.6332 46.2654 42.6457 46.1386C42.6812 45.7195 43.1109 44.4377 44.4369 42.6631ZM35.2144 43.4479C35.2144 43.4479 35.1995 43.4919 35.1923 43.5063C35.1904 43.5063 34.4531 44.7005 34.4531 44.7005L34.4425 44.7146C33.9993 45.3022 33.4471 46.0344 32.7582 46.3873C32.5523 46.4555 32.2677 46.4996 32.1227 46.3193C31.8153 45.9536 31.9738 45.4466 32.1025 45.0372L32.1481 44.8909C32.5171 43.8966 33.1026 43.019 33.6725 42.2048C33.6796 42.2001 33.6956 42.1952 33.7014 42.1952L33.703 42.1991C33.7042 42.2012 33.7054 42.2034 33.706 42.2098C34.0636 42.8922 34.7342 43.2089 35.2357 43.3554C35.2387 43.3554 35.242 43.3603 35.242 43.37C35.2421 43.3846 35.2339 43.4042 35.2144 43.4479ZM35.9128 42.0393C35.9095 42.049 35.5844 42.7899 35.5844 42.7899C35.5395 42.8272 35.4697 42.8111 35.3893 42.7926L35.3779 42.7899L35.232 42.7654C34.7737 42.6242 34.428 42.3219 34.3214 41.9612C34.1745 41.2592 34.7783 40.7083 35.0443 40.5086C35.2996 40.3329 35.6965 40.2403 35.9269 40.4208C36.069 40.5866 36.1229 40.801 36.1229 41.0351C36.123 41.3518 36.0245 41.7077 35.9128 42.0393ZM57.3446 44.301C57.1811 43.9501 56.7931 43.7258 56.3796 43.7501C55.0366 43.8721 53.723 44.9689 53.0333 46.5433C52.6713 47.3526 52.4738 48.0204 52.3443 49.0831C52.762 48.6055 53.6138 47.8207 54.5804 47.3917C54.5804 47.3917 54.7119 46.3729 55.3826 45.4661C55.6364 45.0906 56.1443 44.4862 56.7146 44.647C57.2129 44.8128 57.0377 46.1827 56.3755 47.5084C55.8854 48.4835 55.1356 49.4587 54.3769 50.1312C53.7061 50.6967 52.7137 51.3792 51.8454 50.8528C51.2985 50.5312 51.0195 49.8582 51.0784 48.9906C51.3397 46.5289 52.4681 44.4327 54.0829 42.0441C55.7478 39.826 57.5831 37.5495 60.0556 36.3355C60.5599 36.082 61.0269 36.0236 61.4306 36.1796C61.4306 36.1796 59.1097 37.447 58.0033 39.7919L57.991 39.8179C57.7107 40.41 57.3362 41.2011 57.7247 41.9026C57.9306 42.273 58.2963 42.3023 58.5908 42.2828C59.9469 41.9707 60.8231 40.7131 61.5389 39.5627C61.954 38.6901 62.3228 37.8224 62.3228 36.8572C62.3228 36.7402 62.3167 36.5843 62.3068 36.4672C62.9546 36.1261 64.2833 36.7304 64.2833 36.7304C64.8935 36.9311 65.9088 37.5949 66.7935 38.1733C67.414 38.579 67.9703 38.9427 68.2777 39.0753C68.6415 38.6561 69.2392 38.0224 69.5758 37.7055L69.0885 37.4081C68.341 36.955 67.5527 36.5241 66.7741 36.0987L66.774 36.0986L66.6725 36.0431C64.8295 35.0439 63.3292 35.3948 62.5658 35.6679C62.2657 35.775 61.9915 35.8677 61.9915 35.8677C61.4249 35.2535 60.4956 35.3118 59.8108 35.4777C57.3484 36.1796 55.0622 37.8906 52.6111 40.8595C50.809 43.1848 49.6912 45.1933 49.0954 47.1772C48.6362 48.5129 48.4966 50.4774 49.6175 51.6425C50.5705 52.6319 51.8342 52.4175 52.7265 52.0619C54.6599 51.1161 56.3977 49.0783 57.2636 46.7335C57.4725 46.0365 57.7044 45.0518 57.3446 44.301ZM61.7906 36.9548C61.5346 39.8699 59.2529 41.5811 58.6883 41.7174C58.3462 41.7855 57.7624 41.6345 58.2836 40.4111C59.0511 38.7633 60.3614 37.3643 61.7672 36.6477C61.8015 36.7696 61.8006 36.8474 61.7906 36.9548ZM75.3253 37.3251C74.098 38.0174 72.8257 38.4658 71.2856 38.3099C70.8588 38.7877 70.4432 39.28 70.0601 39.7869C72.2218 40.3329 74.5134 39.1191 75.7915 37.9639C77.1436 36.7988 77.8368 35.3316 77.8368 35.3316C77.8368 35.3316 76.8234 36.4819 75.3253 37.3251ZM52.1305 39.7527H50.5205L49.6124 41.2181H51.222L52.1305 39.7527ZM70.9537 50.4403C70.8628 50.7083 71.106 50.7983 71.2791 50.6813C72.2379 50.1219 73.0071 48.9656 73.6179 48.0475C73.6408 48.0132 73.6634 47.9792 73.6858 47.9455H74.259C73.8219 48.6782 72.1383 51.2125 70.7319 51.9731C70.6764 52.0028 70.6219 52.0332 70.5681 52.0632C70.2416 52.2455 69.9369 52.4156 69.5482 52.3442C68.8876 52.2615 68.8549 51.4326 68.9755 50.9696C68.5999 51.3643 67.7907 52.1347 67.0645 52.3296C66.4323 52.4514 65.6031 52.2026 65.8317 50.6135C64.7668 51.9397 63.4577 52.9438 62.667 51.9737C62.1136 51.2864 62.3845 50.126 62.9703 48.42C62.9703 48.42 63.1676 47.8349 63.1895 47.762C63.181 47.7569 63.1789 47.7569 63.1738 47.7569C62.8526 47.8391 62.4445 47.8624 62.3011 47.8706C62.2741 47.8721 62.2565 47.8732 62.2507 47.8739C61.3264 49.4827 60.1538 51.2424 58.4757 52.1199C58.2288 52.2465 57.6003 52.5098 57.101 52.2565C56.6154 51.9835 56.4252 51.4374 56.5187 50.5893C56.6513 49.5069 57.1304 48.5617 57.6109 47.6791C58.5044 46.2899 59.7424 44.6031 61.3989 43.9206C61.7687 43.7551 62.3171 43.6526 62.7609 43.872C63.1393 44.1448 63.2407 44.5396 63.2407 44.9592C63.2407 45.1541 63.2175 45.3538 63.1925 45.5489C63.0484 46.2314 62.7603 46.8604 62.5314 47.3283C62.6417 47.4015 63.2906 47.2502 63.4585 47.1236C65.776 42.317 68.4266 38.7974 71.5656 36.3551L71.5902 36.3406C72.2009 35.926 72.9597 35.4143 73.6561 35.546C73.8697 35.585 74.0332 35.7556 74.0712 35.9799C74.1851 36.6768 73.8761 37.262 73.5971 37.7833C73.3566 37.8615 72.9905 37.9298 72.9905 37.9298L73.2489 37.4032C73.4334 37.0425 73.5942 36.7256 73.5737 36.2967C73.5198 36.1844 73.4575 36.1796 73.409 36.1844C72.9504 36.2771 72.3619 36.8425 71.7939 37.3934L71.4266 37.7445C69.0924 40.06 66.3493 44.9005 65.9247 45.9147C66.8831 45.4517 70.0443 42.3414 71.5891 40.2014C71.9053 40.1917 72.1731 40.138 72.1731 40.138C71.9257 40.6206 70.2329 42.7802 68.2249 44.6864C67.2997 45.5687 66.2816 46.373 65.3895 46.9872C64.9509 47.9281 64.5155 48.9663 64.3281 50.0584C64.3071 50.2096 64.257 50.8582 64.7419 50.8192C65.3629 50.6826 66.4817 48.8455 66.4817 48.8455L66.5227 48.7818C67.5792 47.1387 68.9159 45.0599 70.7393 44.001C71.1641 43.7622 71.7799 43.6377 72.1996 43.9011C72.2975 43.9643 72.5352 44.2567 72.6147 44.3882C72.6147 44.3882 72.7892 44.0823 72.8709 43.9491H74.589L72.0808 48.367C72.0808 48.367 71.1803 49.7578 70.9537 50.4403ZM58.5335 50.0804C58.5364 50.236 58.566 50.3799 58.6552 50.5116C59.3994 51.3695 61.183 48.9055 61.703 47.755C61.2842 47.5745 60.5906 47.1463 60.2844 46.4802H60.2828C59.5519 47.4128 58.5164 49.1245 58.5335 50.0804ZM60.9033 46.178C61.0724 46.9823 61.947 47.275 61.9965 47.2406C62.2771 46.7552 62.4934 46.2358 62.6399 45.6954L62.644 45.6611L62.6459 45.646C62.6644 45.4991 62.6846 45.3391 62.6846 45.1833C62.6846 44.9205 62.6292 44.6766 62.4247 44.5398C62.2043 44.4622 61.904 44.5156 61.7046 44.6717C61.24 44.9444 60.7599 45.4855 60.9033 46.178ZM68.8459 50.3507C68.8459 50.3507 69.0112 50.2045 69.0119 50.2045C69.8607 49.1562 70.5396 47.9621 71.1941 46.8068C71.2327 46.7393 71.2715 46.6715 71.3104 46.6035C71.6086 46.0817 71.915 45.5457 72.235 45.0322C72.2501 45.0079 72.2764 44.93 72.2764 44.9006C72.2764 44.8081 72.2094 44.7154 72.1519 44.6619C71.902 44.5594 71.6653 44.6908 71.4471 44.8471C70.1747 45.8578 69.3014 47.3064 68.5518 48.5497L68.5123 48.6151L68.4447 48.7566L68.4421 48.762C68.1792 49.3014 67.9092 49.8552 67.9225 50.4528C67.9362 50.536 67.9931 50.6431 68.0741 50.6723C68.3607 50.782 68.5993 50.57 68.8304 50.3646L68.8459 50.3507Z" fill="#016D71"></path><defs><linearGradient id="paint0_linear_738_10874" x1="96.9998" y1="37.1762" x2="7.52498" y2="58.294" gradientUnits="userSpaceOnUse"><stop stop-color="#5CE1E6"></stop><stop offset="0.916667" stop-color="#94FBFF"></stop></linearGradient></defs></svg> 