<?xml version="1.0" encoding="UTF-8"?> <svg xmlns="http://www.w3.org/2000/svg" width="29" height="29" viewBox="0 0 29 29" fill="none"><ellipse cx="13.75" cy="14.9472" rx="13.75" ry="14.0529" fill="#016D71"></ellipse><path d="M28.681 14.0529C28.681 21.6445 22.6612 27.7868 15.25 27.7868C7.83876 27.7868 1.81897 21.6445 1.81897 14.0529C1.81897 6.46125 7.83876 0.318966 15.25 0.318966C22.6612 0.318966 28.681 6.46125 28.681 14.0529Z" fill="url(#paint0_linear_738_15923)" stroke="#016D71" stroke-width="0.637931"></path><path d="M26.931 14.0529C26.931 20.6567 21.6947 25.9982 15.25 25.9982C8.80526 25.9982 3.56897 20.6567 3.56897 14.0529C3.56897 7.44907 8.80526 2.10754 15.25 2.10754C21.6947 2.10754 26.931 7.44907 26.931 14.0529Z" stroke="#016D71" stroke-width="0.637931"></path><path d="M11.2805 15.2464C10.9741 15.2333 10.7233 15.1431 10.5273 14.9757C10.4899 14.9437 10.4007 14.8477 10.3708 14.8073C10.2913 14.6998 10.2373 14.5951 10.2012 14.4791C10.0903 14.1218 10.1474 13.6529 10.3645 13.1383C10.5504 12.6977 10.8373 12.2608 11.3378 11.6556C11.4115 11.5666 11.6311 11.3062 11.6325 11.3062C11.633 11.3062 11.6211 11.3284 11.606 11.3556C11.4759 11.59 11.3645 11.8661 11.3039 12.1052C11.2064 12.4887 11.2182 12.8179 11.3383 13.0731C11.4212 13.2489 11.5632 13.4012 11.7229 13.4854C12.0026 13.6328 12.412 13.645 12.912 13.5211C12.9464 13.5125 14.6521 13.0256 16.7025 12.439C18.7529 11.8523 20.4308 11.3727 20.4311 11.3731C20.4317 11.3736 15.6674 13.566 13.1942 14.7033C12.8026 14.8834 12.6978 14.9289 12.5137 14.9984C12.043 15.1762 11.6213 15.261 11.2805 15.2464Z" fill="#016D71"></path><defs><linearGradient id="paint0_linear_738_15923" x1="29" y1="11.1145" x2="2.24978" y2="17.4281" gradientUnits="userSpaceOnUse"><stop stop-color="#5CE1E6"></stop><stop offset="0.916667" stop-color="#94FBFF"></stop></linearGradient></defs></svg> 