<?xml version="1.0" encoding="UTF-8"?> <svg xmlns="http://www.w3.org/2000/svg" width="53" height="52" viewBox="0 0 53 52" fill="none"><ellipse cx="25.1293" cy="26.8018" rx="25.1293" ry="25.1982" fill="#016D71"></ellipse><path d="M52.5257 25.1982C52.5257 38.8542 41.486 49.9223 27.8705 49.9223C14.2551 49.9223 3.21535 38.8542 3.21535 25.1982C3.21535 11.5423 14.2551 0.474138 27.8705 0.474138C41.486 0.474138 52.5257 11.5423 52.5257 25.1982Z" fill="url(#paint0_linear_738_11093)" stroke="#016D71" stroke-width="0.948276"></path><path d="M49.3274 25.1982C49.3274 37.083 39.7196 46.7153 27.8705 46.7153C16.0214 46.7153 6.41359 37.083 6.41359 25.1982C6.41359 13.3135 16.0214 3.68117 27.8705 3.68117C39.7196 3.68117 49.3274 13.3135 49.3274 25.1982Z" stroke="#016D71" stroke-width="0.948276"></path><path fill-rule="evenodd" clip-rule="evenodd" d="M19.7265 18.937H14.5444V19.6814H19.7265V18.937ZM14.5444 20.3571H19.7265V21.1014H14.5444V20.3571ZM16.0228 21.7772H18.2456V22.5215H16.0228V21.7772ZM18.2456 23.1999H16.0228V23.9442H18.2456V23.1999ZM16.0228 24.62H18.2456V25.3643H16.0228V24.62ZM18.2456 26.04H16.0228V26.7844H18.2456V26.04ZM14.5444 27.4601H19.7265V28.2044H14.5444V27.4601ZM14.5444 28.8828H19.7265V29.6245H14.5444V28.8828ZM28.4355 28.2044H20.4657V27.4601H28.7312C28.6704 27.724 28.5701 27.9748 28.4355 28.2044ZM27.8151 24.62H21.9467V25.3643H28.4355C28.2666 25.0792 28.058 24.8285 27.8151 24.62ZM21.9467 23.9442V23.1999H28.4355C28.2718 23.4849 28.0633 23.7357 27.8151 23.9442H21.9467ZM28.4355 20.3571H20.4657V21.1014H28.7312C28.6626 20.8375 28.5622 20.5867 28.4355 20.3571ZM20.4657 18.937H25.9857C26.7196 18.937 27.3928 19.2221 27.8891 19.6814H20.4657V18.937ZM24.1668 21.7772H21.9467V22.5215H24.1668V21.7772ZM28.7127 22.5215H26.3896V21.7772H28.813C28.813 22.0332 28.7787 22.284 28.7127 22.5215ZM21.9467 26.04H24.1668V26.7844H21.9467V26.04ZM26.3896 26.7844V26.04H28.7127C28.7787 26.2776 28.813 26.5283 28.813 26.7844H26.3896ZM20.4657 29.6193L25.9857 29.6272C26.7249 29.6272 27.3928 29.3421 27.8917 28.8828H20.4657V29.6193ZM33.0527 28.8828H29.3516V29.6245H33.0527V28.8828ZM29.3516 27.4601H33.0527V28.2044H29.3516V27.4601ZM33.0527 26.04H30.8299V26.7844H33.0527V26.04ZM30.8299 24.62H33.0527V25.3643H30.8299V24.62ZM29.3516 20.3571H34.0822L34.3383 21.1014H29.3516V20.3571ZM33.5912 18.937H29.3516V19.6814H33.8473L33.5912 18.937ZM41.1967 28.8828H37.493V29.6245H41.1967V28.8828ZM37.493 27.4601H41.1967V28.2044H37.493V27.4601ZM39.7157 26.04H37.493V26.7844H39.7157V26.04ZM37.493 24.62H39.7157V25.3643H37.493V24.62ZM39.7157 23.9442H37.493V23.2606L37.258 23.9442H33.2876L33.0527 23.2606V23.9442H30.8299V23.1999H33.0527H35.0643L35.2728 23.8017L35.4814 23.1999H37.493H39.7157V23.9442ZM39.7157 21.7772H35.9724L35.7163 22.5215H39.7157V21.7772ZM36.701 19.6814L36.9571 18.937H41.1967V19.6814H36.701ZM35.2728 29.6193L35.5289 28.8828H35.0168L35.2728 29.6193ZM35.7638 28.2044H34.7818L34.5205 27.4601H36.0278L35.7638 28.2044ZM34.2829 26.7844H36.2628L36.5241 26.04H34.0215L34.2829 26.7844ZM36.7617 25.3643H33.7866L33.5305 24.62H37.0151L36.7617 25.3643ZM30.8299 22.5215H34.8293L34.5733 21.7772H30.8299V22.5215ZM41.1967 21.1014H36.21L36.4634 20.3571H41.1967V21.1014Z" fill="#016D71"></path><defs><linearGradient id="paint0_linear_738_11093" x1="52.9998" y1="19.9295" x2="4.21147" y2="31.6659" gradientUnits="userSpaceOnUse"><stop stop-color="#5CE1E6"></stop><stop offset="0.916667" stop-color="#94FBFF"></stop></linearGradient></defs></svg> 