<?xml version="1.0" encoding="UTF-8"?> <svg xmlns="http://www.w3.org/2000/svg" width="48" height="48" viewBox="0 0 48 48" fill="none"><ellipse cx="22.7586" cy="24.7404" rx="22.7586" ry="23.2599" fill="#016D71"></ellipse><path d="M47.526 23.2599C47.526 35.8539 37.5392 46.0457 25.2415 46.0457C12.9438 46.0457 2.95705 35.8539 2.95705 23.2599C2.95705 10.6659 12.9438 0.474138 25.2415 0.474138C37.5392 0.474138 47.526 10.6659 47.526 23.2599Z" fill="url(#paint0_linear_738_11070)" stroke="#016D71" stroke-width="0.948276"></path><path d="M44.6294 23.26C44.6294 34.2191 35.9394 43.0854 25.2415 43.0854C14.5435 43.0854 5.85353 34.2191 5.85353 23.26C5.85353 12.3009 14.5435 3.43459 25.2415 3.43459C35.9394 3.43459 44.6294 12.3009 44.6294 23.26Z" stroke="#016D71" stroke-width="0.948276"></path><path d="M19.2632 22.5499V17.48H20.4701V20.5982C21.0635 19.8738 21.8801 19.6646 22.6847 19.6646C24.0324 19.6646 25.529 20.5961 25.529 22.6066C25.529 22.8467 25.5139 23.0775 25.4686 23.295C25.71 22.3129 26.75 21.9502 28.3813 21.91C28.8942 21.8914 29.4826 21.8914 29.9502 21.8914V21.7523C29.9502 20.8404 29.391 20.4704 28.4114 20.4704C27.6873 20.4704 27.1593 20.7796 27.0989 21.3051H25.8166C25.9534 19.9758 27.3252 19.6357 28.5181 19.6357C29.5882 19.6357 30.5245 19.914 30.9469 20.6868L30.5084 19.8212H31.9265L33.9933 24.0719L36.0602 19.8202H37.3103L33.5689 27.3478H32.2152L33.2913 25.2457L30.9479 20.7322C31.0787 20.9949 31.1491 21.3041 31.1491 21.6905V24.2255C31.1491 24.582 31.1591 24.9365 31.1893 25.2611H30.0689C30.0385 24.9995 30.023 24.7363 30.0227 24.4728C29.4162 25.2292 28.6951 25.4621 27.6893 25.4621C26.2008 25.4621 25.4043 24.6583 25.4043 23.7154C25.4043 23.5608 25.4193 23.4227 25.4415 23.298C25.1397 24.582 24.0737 25.4476 22.6586 25.4476C21.7836 25.4476 20.9548 25.123 20.4459 24.4893C20.4459 24.7366 20.4308 24.9983 20.4057 25.2457H19.2189C19.239 24.8438 19.2591 24.3646 19.2591 23.9627V22.8807H14.4014C14.4668 24.0091 15.2241 24.6737 16.265 24.6737C16.9872 24.6737 17.6278 24.3646 17.842 23.7154H19.0892C18.8478 25.0447 17.4699 25.493 16.2831 25.493C14.1278 25.5146 13.1724 24.2914 13.1724 22.653C13.1724 20.8455 14.16 19.6543 16.3063 19.6543C18.004 19.6543 19.2531 20.5673 19.2632 22.5458V22.551V22.5499ZM28.4527 22.7385C27.3514 22.7735 26.6725 22.9786 26.6725 23.7175C26.6725 24.1966 27.0346 24.717 27.985 24.717C29.2522 24.717 29.9311 24.006 29.9311 22.8477V22.7138C29.4785 22.7138 28.9354 22.72 28.4386 22.7364H28.4507L28.4527 22.7385ZM22.3579 24.6706C23.4742 24.6706 24.2446 23.8401 24.2446 22.5891C24.2446 21.3381 23.4722 20.5075 22.3408 20.5075C21.2244 20.5075 20.4399 21.3381 20.4399 22.5891C20.4399 23.8401 21.2093 24.6706 22.3257 24.6706H22.3558H22.3579ZM17.9829 22.08C17.9386 20.9207 17.1239 20.4869 16.2479 20.4869C15.2985 20.4869 14.5442 20.9754 14.4225 22.08H17.9829Z" fill="#016D71"></path><defs><linearGradient id="paint0_linear_738_11070" x1="48.0002" y1="18.3965" x2="3.72393" y2="28.8465" gradientUnits="userSpaceOnUse"><stop stop-color="#5CE1E6"></stop><stop offset="0.916667" stop-color="#94FBFF"></stop></linearGradient></defs></svg> 