<?xml version="1.0" encoding="UTF-8"?> <svg xmlns="http://www.w3.org/2000/svg" width="74" height="72" viewBox="0 0 74 72" fill="none"><ellipse cx="35.0862" cy="37.1101" rx="35.0862" ry="34.8899" fill="#016D71"></ellipse><path d="M73.5259 34.8899C73.5259 53.8946 58.0321 69.3056 38.9138 69.3056C19.7956 69.3056 4.30177 53.8946 4.30177 34.8899C4.30177 15.8851 19.7956 0.474138 38.9138 0.474138C58.0321 0.474138 73.5259 15.8851 73.5259 34.8899Z" fill="url(#paint0_linear_738_15903)" stroke="#016D71" stroke-width="0.948276"></path><path d="M69.0602 34.8898C69.0602 51.4421 55.5657 64.865 38.9137 64.865C22.2617 64.865 8.76711 51.4421 8.76711 34.8898C8.76711 18.3374 22.2617 4.91457 38.9137 4.91457C55.5657 4.91457 69.0602 18.3374 69.0602 34.8898Z" stroke="#016D71" stroke-width="0.948276"></path><path d="M38.9139 52.1218H38.365L42.1793 41.722H47.4077C48.3334 41.722 49.3443 41.0312 49.6622 40.1693L53.7928 28.9077C54.458 27.0698 53.4176 25.5464 51.4236 25.5464H44.1439L34.6081 51.6345C26.4058 49.6779 20.3076 42.3511 20.3076 33.6196C20.3076 25.144 26.057 17.9898 33.8871 15.8066L24.4103 41.722H28.3393L33.3662 27.9594H36.3432L31.3148 41.722H35.2454L39.9543 28.8784C40.618 27.0405 39.5791 25.5171 37.5851 25.5171H34.2624L38.0767 15.1482C38.365 15.1482 38.6255 15.1189 38.9139 15.1189C49.2001 15.1189 57.5203 23.3925 57.5203 33.6211C57.5203 43.8497 49.2001 52.1233 38.9139 52.1233V52.1218ZM50.1816 27.961H47.2046L43.0461 39.2781H46.0215L50.1816 27.961Z" fill="#016D71"></path><defs><linearGradient id="paint0_linear_738_15903" x1="74.0001" y1="27.5947" x2="5.94315" y2="44.1036" gradientUnits="userSpaceOnUse"><stop stop-color="#5CE1E6"></stop><stop offset="0.916667" stop-color="#94FBFF"></stop></linearGradient></defs></svg> 