<?xml version="1.0" encoding="UTF-8"?> <svg xmlns="http://www.w3.org/2000/svg" width="94" height="90" viewBox="0 0 94 90" fill="none"><ellipse cx="44.569" cy="46.3877" rx="44.569" ry="43.6123" fill="#016D71"></ellipse><path d="M93.5256 43.6123C93.5256 67.4273 73.7934 86.7505 49.4308 86.7505C25.0681 86.7505 5.33595 67.4273 5.33595 43.6123C5.33595 19.7974 25.0681 0.474138 49.4308 0.474138C73.7934 0.474138 93.5256 19.7974 93.5256 43.6123Z" fill="url(#paint0_linear_738_10924)" stroke="#016D71" stroke-width="0.948276"></path><path d="M87.8536 43.6125C87.8536 64.3618 70.6611 81.2 49.4312 81.2C28.2014 81.2 11.0088 64.3618 11.0088 43.6125C11.0088 22.8631 28.2014 6.02492 49.4312 6.02492C70.6611 6.02492 87.8536 22.8631 87.8536 43.6125Z" stroke="#016D71" stroke-width="0.948276"></path><path fill-rule="evenodd" clip-rule="evenodd" d="M63.0302 30.9735L59.617 43.9055L56.1915 30.9735H46.148V35.7499C44.9434 31.5706 40.6884 30.5222 36.7461 30.4637C31.9439 30.4052 26.9063 32.3421 26.7213 38.2546H33.3668C33.3668 36.47 34.8372 35.4487 36.4961 35.4731C38.5296 35.4585 39.468 36.2668 39.5154 37.5265C39.4446 38.6187 38.7509 39.3799 36.5119 39.3799H34.2765V43.6725H36.3059C37.4561 43.6725 39.0611 44.2544 39.125 45.7834C39.2022 47.6038 37.8413 48.4056 36.1678 48.4197C33.1795 48.3178 32.6949 46.1789 32.6949 44.3422H25.7959C25.8269 45.5796 25.4985 53.648 36.3082 53.5895C41.4863 53.6328 45.0996 51.6087 46.1638 48.813V53.0943H52.9685V41.4149V41.3282V39.1432L56.6445 53.0943H62.5894L66.2812 39.1578V53.1094H73.066V30.9735H63.0302ZM46.1667 41.4149V43.8763C45.3221 42.2449 44.1303 41.5303 43.4571 41.3055C44.8649 40.723 45.6036 39.9326 46.1667 38.3565V41.3271V41.4149Z" fill="#016D71"></path><defs><linearGradient id="paint0_linear_738_10924" x1="93.9997" y1="34.4934" x2="7.70588" y2="55.7656" gradientUnits="userSpaceOnUse"><stop stop-color="#5CE1E6"></stop><stop offset="0.916667" stop-color="#94FBFF"></stop></linearGradient></defs></svg> 