<?xml version="1.0" encoding="UTF-8"?> <svg xmlns="http://www.w3.org/2000/svg" width="48" height="48" viewBox="0 0 48 48" fill="none"><ellipse cx="22.7586" cy="24.7401" rx="22.7586" ry="23.2599" fill="#016D71"></ellipse><path d="M47.526 23.2599C47.526 35.8539 37.5392 46.0457 25.2415 46.0457C12.9438 46.0457 2.95705 35.8539 2.95705 23.2599C2.95705 10.6659 12.9438 0.474138 25.2415 0.474138C37.5392 0.474138 47.526 10.6659 47.526 23.2599Z" fill="url(#paint0_linear_738_11036)" stroke="#016D71" stroke-width="0.948276"></path><path d="M44.6294 23.26C44.6294 34.2191 35.9394 43.0854 25.2415 43.0854C14.5435 43.0854 5.85353 34.2191 5.85353 23.26C5.85353 12.3009 14.5435 3.43459 25.2415 3.43459C35.9394 3.43459 44.6294 12.3009 44.6294 23.26Z" stroke="#016D71" stroke-width="0.948276"></path><path d="M20.6892 24.275C20.4217 24.4642 19.0123 24.9637 19.0123 23.2761V17.8086H17.3302V23.2025C17.3302 27.1402 21.4557 25.889 22.3661 25.2528V17.8086H20.6892V24.275ZM15.5864 12.278V23.8912C15.5864 29.343 19.4392 30.999 25.2416 33.5698C31.0234 30.999 34.8968 29.3535 34.8968 23.8912V12.278C28.9144 9.0395 20.4012 9.67037 15.5864 12.278ZM34.0069 23.8912C34.0069 28.444 31.2703 29.8634 25.2416 32.5814C19.1975 29.8582 16.4712 28.444 16.4712 23.8912V17.2461C21.7334 12.3148 28.3845 11.9888 34.0069 12.5251V23.8912V23.8912ZM23.2252 18.2449V29.4323H24.9072V25.8206C26.1624 26.2044 28.5954 25.6839 28.5954 21.6937C28.5954 16.5731 24.4443 17.4406 23.2252 18.2449V18.2449ZM24.9072 24.4117V19.1387C25.3393 18.9179 26.8825 18.471 26.8825 21.7305C26.8825 25.3001 25.0101 24.4537 24.9072 24.4117ZM28.9761 19.8694C28.9812 22.3561 31.6304 22.1037 31.6612 23.5705C31.6921 24.806 30.0975 24.7797 29.0481 23.8281V25.4105C30.9102 26.5409 33.261 25.8364 33.3279 23.6494C33.4153 20.9419 30.545 21.1995 30.581 19.8011C30.6119 18.7339 32.1551 18.7233 33.0758 19.6854V18.1924C31.6098 17.0358 28.9658 17.7087 28.9761 19.8694V19.8694Z" fill="#016D71"></path><defs><linearGradient id="paint0_linear_738_11036" x1="48.0002" y1="18.3965" x2="3.72393" y2="28.8465" gradientUnits="userSpaceOnUse"><stop stop-color="#5CE1E6"></stop><stop offset="0.916667" stop-color="#94FBFF"></stop></linearGradient></defs></svg> 