<?xml version="1.0" encoding="UTF-8"?> <svg xmlns="http://www.w3.org/2000/svg" width="32" height="32" viewBox="0 0 32 32" fill="none"><ellipse cx="15.1724" cy="16.4934" rx="15.1724" ry="15.5066" fill="#016D71"></ellipse><path d="M31.526 15.5066C31.526 23.8186 24.9356 30.5391 16.8277 30.5391C8.71974 30.5391 2.12941 23.8186 2.12941 15.5066C2.12941 7.19461 8.71974 0.474138 16.8277 0.474138C24.9356 0.474138 31.526 7.19461 31.526 15.5066Z" fill="url(#paint0_linear_738_10992)" stroke="#016D71" stroke-width="0.948276"></path><path d="M29.595 15.5067C29.595 22.7287 23.8693 28.5656 16.8278 28.5656C9.78634 28.5656 4.06056 22.7287 4.06056 15.5067C4.06056 8.28465 9.78634 2.44777 16.8278 2.44777C23.8693 2.44777 29.595 8.28465 29.595 15.5067Z" stroke="#016D71" stroke-width="0.948276"></path><path d="M17.8451 12.2027C16.4764 12.2556 13.0812 12.6579 13.0812 15.6535C13.0812 18.8694 16.9682 19.0016 18.2386 16.9223C18.4212 17.2218 19.2335 18.0236 19.5117 18.2967L21.1081 16.6521C21.1081 16.6521 20.2003 15.909 20.2003 15.1014V10.7813C20.2003 10.0383 19.5117 8.36426 17.0441 8.36426C14.5708 8.36426 13.2583 9.97953 13.2583 11.4274L15.324 11.6271C15.7822 10.1734 16.8474 10.1734 16.8474 10.1734C17.9912 10.1704 17.8451 11.0485 17.8451 12.2027V12.2027ZM17.8451 14.7519C17.8451 17.1014 15.4786 16.749 15.4786 15.2571C15.4786 13.8709 16.8979 13.5919 17.8451 13.5596V14.7519V14.7519ZM21.6674 19.5537C21.451 19.8474 19.7 21.5214 16.763 21.5214C13.826 21.5214 11.5776 19.4215 10.889 18.5552C10.6979 18.329 10.9171 18.2233 11.0436 18.3114C13.1037 19.6183 16.3218 21.771 21.5128 19.2013C21.7236 19.0926 21.8866 19.26 21.6674 19.5537ZM22.786 19.6183C22.6033 20.0823 22.3363 20.4054 22.1902 20.5287C22.0356 20.6609 21.9232 20.608 22.0075 20.4171C22.0918 20.2262 22.5499 19.0515 22.3644 18.8018C22.1817 18.5581 21.3245 18.6756 21.0154 18.7079C20.7118 18.7372 20.65 18.7666 20.6219 18.6991C20.5572 18.5317 21.2318 18.2438 21.6758 18.1851C22.1171 18.1322 22.8281 18.1616 22.9687 18.3525C23.0727 18.5023 22.9687 19.1484 22.786 19.6183Z" fill="#016D71"></path><defs><linearGradient id="paint0_linear_738_10992" x1="32.0001" y1="12.2643" x2="2.48262" y2="19.231" gradientUnits="userSpaceOnUse"><stop stop-color="#5CE1E6"></stop><stop offset="0.916667" stop-color="#94FBFF"></stop></linearGradient></defs></svg> 