<?xml version="1.0" encoding="UTF-8"?> <svg xmlns="http://www.w3.org/2000/svg" width="94" height="90" viewBox="0 0 94 90" fill="none"><ellipse cx="44.569" cy="46.3877" rx="44.569" ry="43.6123" fill="#016D71"></ellipse><path d="M93.5256 43.6123C93.5256 67.4273 73.7934 86.7505 49.4308 86.7505C25.0681 86.7505 5.33595 67.4273 5.33595 43.6123C5.33595 19.7974 25.0681 0.474138 49.4308 0.474138C73.7934 0.474138 93.5256 19.7974 93.5256 43.6123Z" fill="url(#paint0_linear_738_15913)" stroke="#016D71" stroke-width="0.948276"></path><path d="M87.8536 43.6122C87.8536 64.3616 70.6611 81.1997 49.4312 81.1997C28.2014 81.1997 11.0088 64.3616 11.0088 43.6122C11.0088 22.8628 28.2014 6.02468 49.4312 6.02468C70.6611 6.02468 87.8536 22.8628 87.8536 43.6122Z" stroke="#016D71" stroke-width="0.948276"></path><path d="M52.4205 34.3199C48.3999 34.4686 38.4267 35.6002 38.4267 44.0253C38.4267 53.0699 49.8447 53.4416 53.5764 47.5935C54.113 48.4361 56.4989 50.691 57.3163 51.4592L62.0056 46.8336C62.0056 46.8336 59.339 44.7439 59.339 42.4724V30.3221C59.339 28.2323 57.3163 23.5242 50.0676 23.5242C42.8024 23.5242 38.9469 28.0671 38.9469 32.1393L45.015 32.7009C46.3607 28.6123 49.4897 28.6123 49.4897 28.6123C52.8498 28.604 52.4205 31.0737 52.4205 34.3199ZM52.4205 41.4895C52.4205 48.0974 45.469 47.1062 45.469 42.9102C45.469 39.0115 49.6383 38.2268 52.4205 38.136V41.4895ZM63.6486 54.9944C63.0129 55.8204 57.8694 60.5286 49.242 60.5286C40.6146 60.5286 34.0098 54.6227 31.9871 52.1861C31.4257 51.55 32.0697 51.2527 32.4412 51.5005C38.4928 55.1761 47.9458 61.2307 63.1945 54.0032C63.8137 53.6976 64.2925 54.1684 63.6486 54.9944ZM66.9344 55.1761C66.3978 56.4812 65.6135 57.3898 65.1842 57.7367C64.7301 58.1084 64.3999 57.9597 64.6475 57.4228C64.8952 56.886 66.2409 53.582 65.696 52.8799C65.1594 52.1943 62.6413 52.5247 61.7332 52.6156C60.8416 52.6982 60.6599 52.7808 60.5774 52.5908C60.3875 52.12 62.3689 51.3105 63.6733 51.1453C64.9695 50.9966 67.0583 51.0792 67.4711 51.6161C67.7765 52.0374 67.4711 53.8546 66.9344 55.1761Z" fill="#016D71"></path><defs><linearGradient id="paint0_linear_738_15913" x1="93.9997" y1="34.4934" x2="7.70588" y2="55.7656" gradientUnits="userSpaceOnUse"><stop stop-color="#5CE1E6"></stop><stop offset="0.916667" stop-color="#94FBFF"></stop></linearGradient></defs></svg> 