<?xml version="1.0" encoding="UTF-8"?> <svg xmlns="http://www.w3.org/2000/svg" width="74" height="73" viewBox="0 0 74 73" fill="none"><circle cx="35.0862" cy="37.3189" r="35.0862" fill="#016D71"></circle><circle cx="38.9138" cy="35.0862" r="34.7672" fill="url(#paint0_linear_738_11107)" stroke="#016D71" stroke-width="0.637931"></circle><circle cx="38.9137" cy="35.0863" r="30.3017" stroke="#016D71" stroke-width="0.637931"></circle><path d="M28.7846 38.066C28.0027 38.0333 27.3629 37.8082 26.8626 37.39C26.7671 37.3101 26.5396 37.0706 26.4633 36.9696C26.2605 36.7012 26.1225 36.44 26.0306 36.1502C25.7475 35.2581 25.8932 34.0874 26.4473 32.8026C26.9217 31.7027 27.6537 30.6117 28.9309 29.1008C29.119 28.8785 29.6792 28.2283 29.6828 28.2283C29.6842 28.2283 29.6537 28.2839 29.6152 28.3517C29.2832 28.937 28.999 29.6263 28.8442 30.2232C28.5956 31.1808 28.6256 32.0026 28.9321 32.6399C29.1435 33.0789 29.506 33.4592 29.9136 33.6694C30.6271 34.0372 31.6718 34.0677 32.9476 33.7584C33.0355 33.737 37.3881 32.5212 42.6201 31.0567C47.8522 29.592 52.1337 28.3945 52.1344 28.3955C52.1358 28.3968 39.9788 33.8704 33.6679 36.7101C32.6684 37.1597 32.4012 37.2732 31.9313 37.4468C30.7302 37.8906 29.6543 38.1024 28.7846 38.066Z" fill="#016D71"></path><defs><linearGradient id="paint0_linear_738_11107" x1="74.0001" y1="27.75" x2="5.90091" y2="44.1767" gradientUnits="userSpaceOnUse"><stop stop-color="#5CE1E6"></stop><stop offset="0.916667" stop-color="#94FBFF"></stop></linearGradient></defs></svg> 