<?xml version="1.0" encoding="UTF-8"?> <svg xmlns="http://www.w3.org/2000/svg" width="74" height="72" viewBox="0 0 74 72" fill="none"><ellipse cx="35.0862" cy="37.1101" rx="35.0862" ry="34.8899" fill="#016D71"></ellipse><path d="M73.5259 34.8899C73.5259 53.8946 58.0321 69.3056 38.9138 69.3056C19.7956 69.3056 4.30177 53.8946 4.30177 34.8899C4.30177 15.8851 19.7956 0.474138 38.9138 0.474138C58.0321 0.474138 73.5259 15.8851 73.5259 34.8899Z" fill="url(#paint0_linear_738_15893)" stroke="#016D71" stroke-width="0.948276"></path><path d="M69.0602 34.8898C69.0602 51.4421 55.5657 64.865 38.9137 64.865C22.2617 64.865 8.76711 51.4421 8.76711 34.8898C8.76711 18.3374 22.2617 4.91457 38.9137 4.91457C55.5657 4.91457 69.0602 18.3374 69.0602 34.8898Z" stroke="#016D71" stroke-width="0.948276"></path><path d="M42.7583 25.1172C41.7957 26.2824 40.2554 27.2014 38.7151 27.0701C38.5226 25.4946 39.2767 23.8207 40.1591 22.7867C41.1218 21.5887 42.8065 20.7353 44.1703 20.6697C44.3307 22.3108 43.705 23.9191 42.7583 25.1172ZM44.1542 27.3819C41.924 27.2506 40.0147 28.6784 38.9558 28.6784C37.8808 28.6784 36.2603 27.4476 34.4954 27.4804C32.201 27.5132 30.0671 28.8425 28.8958 30.9596C26.4891 35.1937 28.2701 41.4629 30.5965 44.9093C31.7357 46.6161 33.0995 48.4869 34.8965 48.4213C36.5972 48.3557 37.2711 47.2889 39.3248 47.2889C41.3945 47.2889 41.9882 48.4213 43.7852 48.3885C45.6464 48.3557 46.8176 46.6817 47.9568 44.9749C49.2564 43.0384 49.7859 41.1511 49.818 41.0526C49.7859 41.0198 46.224 39.6248 46.1919 35.4235C46.1598 31.9115 48.9997 30.2375 49.128 30.139C47.5236 27.7102 45.0206 27.4476 44.1542 27.3819Z" fill="#016D71"></path><defs><linearGradient id="paint0_linear_738_15893" x1="74.0001" y1="27.5947" x2="5.94315" y2="44.1036" gradientUnits="userSpaceOnUse"><stop stop-color="#5CE1E6"></stop><stop offset="0.916667" stop-color="#94FBFF"></stop></linearGradient></defs></svg> 