<?xml version="1.0" encoding="UTF-8"?> <svg xmlns="http://www.w3.org/2000/svg" width="24" height="24" viewBox="0 0 24 24" fill="none"><path fill-rule="evenodd" clip-rule="evenodd" d="M13 4C13 3.44772 12.5523 3 12 3C11.4477 3 11 3.44772 11 4V17.5077L7.69859 14.2845C7.30342 13.8987 6.6703 13.9062 6.28448 14.3014C5.89866 14.6966 5.90624 15.3297 6.30141 15.7155L11.4226 20.7155C11.6124 20.9008 11.8681 21.0031 12.1333 20.9999C12.3986 20.9967 12.6517 20.8882 12.8369 20.6984L17.7157 15.6984C18.1014 15.3031 18.0937 14.67 17.6984 14.2843C17.3031 13.8986 16.67 13.9063 16.2843 14.3016L13 17.6675V4Z" fill="#163939"></path></svg> 