<?xml version="1.0" encoding="UTF-8"?> <svg xmlns="http://www.w3.org/2000/svg" width="40" height="26" viewBox="0 0 40 26" fill="none"><path d="M2.05128 0H37.9487C39.0816 0 40 0.931268 40 2.08V23.92C40 25.0688 39.0816 26 37.9487 26H2.05128C0.91841 26 0 25.0688 0 23.92V2.08C0 0.931268 0.91841 0 2.05128 0Z" fill="#0E4595"></path><path d="M15.0361 18.134L16.7469 7.95444H19.4833L17.7712 18.134H15.0361ZM27.6571 8.17388C27.115 7.96765 26.2654 7.74634 25.2047 7.74634C22.5008 7.74634 20.5962 9.12694 20.5801 11.1057C20.5647 12.5685 21.9398 13.3844 22.9776 13.8714C24.0428 14.3703 24.4008 14.6885 24.3958 15.1341C24.389 15.8164 23.5452 16.1281 22.7587 16.1281C21.6635 16.1281 21.0817 15.9738 20.183 15.5938L19.8304 15.432L19.4463 17.7108C20.0854 17.995 21.2673 18.2411 22.4944 18.2539C25.3708 18.2539 27.238 16.8891 27.2593 14.776C27.2696 13.618 26.5406 12.7368 24.9619 12.0102C24.0054 11.5394 23.4197 11.2251 23.4259 10.7483C23.4259 10.3252 23.9217 9.87267 24.9929 9.87267C25.8878 9.85863 26.536 10.0565 27.041 10.2627L27.2862 10.3802L27.6571 8.17388ZM34.6986 7.95429H32.5842C31.9291 7.95429 31.4389 8.13561 31.1513 8.79845L27.0875 18.1273H29.9609C29.9609 18.1273 30.4306 16.8729 30.5369 16.5975C30.851 16.5975 33.6423 16.6019 34.0414 16.6019C34.1232 16.9582 34.3742 18.1273 34.3742 18.1273H36.9134L34.6986 7.95397V7.95429ZM31.3439 14.5276C31.5701 13.9411 32.4341 11.682 32.4341 11.682C32.4179 11.7092 32.6587 11.0926 32.7969 10.7104L32.9818 11.5881C32.9818 11.5881 33.5058 14.0181 33.6153 14.5276H31.3439ZM12.7131 7.95429L10.0341 14.8963L9.74863 13.4855C9.24991 11.8593 7.69606 10.0975 5.95898 9.21539L8.40852 18.1178L11.3037 18.1145L15.6116 7.95418H12.7131" fill="white"></path><path d="M7.5342 7.95382H3.12184L3.08691 8.16562C6.51963 9.00823 8.79102 11.0445 9.73409 13.4909L8.77461 8.81302C8.60897 8.16848 8.12861 7.97613 7.5343 7.95361" fill="#F2AE14"></path></svg> 