<?xml version="1.0" encoding="UTF-8"?> <svg xmlns="http://www.w3.org/2000/svg" width="24" height="22" viewBox="0 0 24 22" fill="none"><path d="M0 0V22H12.3348C20.4715 22 24 17.2617 24 10.9785C24 4.71964 20.4715 0 12.3348 0H0Z" fill="white"></path><path d="M1.3335 1.38745H12.3367C19.805 1.38745 22.6676 5.62828 22.6676 10.978C22.6676 17.3928 18.6701 20.6116 12.3367 20.6116H1.3335V1.38745ZM2.4002 2.49666V19.503H12.3367C18.3358 19.503 21.5999 16.5962 21.5999 10.978C21.5999 5.20406 18.0616 2.49632 12.3367 2.49632H2.4002V2.49666Z" fill="black"></path><path d="M3.73291 12.2288H6.91378V18.1156H3.73291V12.2288Z" fill="black"></path><path d="M5.32306 11.3181C6.41486 11.3181 7.29994 10.3977 7.29994 9.26243C7.29994 8.12713 6.41486 7.20679 5.32306 7.20679C4.23127 7.20679 3.34619 8.12713 3.34619 9.26243C3.34619 10.3977 4.23127 11.3181 5.32306 11.3181Z" fill="black"></path><path d="M13.5845 10.2241V11.1773H11.318V7.35219H13.5121V8.30507H12.2344V8.74794H13.4426V9.70116H12.2344V10.2244L13.5845 10.2241ZM13.9811 11.178L15.0901 7.35083H16.3939L17.5027 11.178H16.5488L16.3408 10.4377H15.142L14.9336 11.178H13.9811ZM15.4107 9.48549H16.074L15.7698 8.40443H15.7143L15.4107 9.48549ZM17.9635 7.35117H18.8805V10.2244H20.2378C19.8654 5.01102 15.9221 3.88452 12.3368 3.88452H8.51579V7.35321H9.08126C10.1124 7.35321 10.7526 8.08025 10.7526 9.25015C10.7526 10.4574 10.1277 11.178 9.08126 11.178H8.51579V18.118H12.3371C18.1634 18.118 20.1925 15.3042 20.2642 11.1773H17.9635V7.35117ZM8.51514 8.30609V10.2244H9.08126C9.47357 10.2244 9.8362 10.1064 9.8362 9.24981C9.8362 8.41324 9.43281 8.30609 9.08126 8.30609H8.51514Z" fill="#D50072"></path></svg> 