<?xml version="1.0" encoding="UTF-8"?> <svg xmlns="http://www.w3.org/2000/svg" width="44" height="14" viewBox="0 0 44 14" fill="none"><path d="M23.0138 0.986572V13.0132H26.2515V9.90757H28.1802L28.7173 9.88924C29.7788 9.87274 30.3802 9.85257 30.5213 9.82874C31.724 9.67107 32.5197 9.0624 32.9047 8.0064C33.099 7.47474 33.198 6.59657 33.198 5.3774C33.198 4.36357 33.1082 3.60274 32.9322 3.09857C32.593 2.1379 31.9275 1.50174 30.9338 1.1919C30.5012 1.05624 29.8705 0.988405 29.0437 0.988405L23.0138 0.986572ZM35.4622 0.986572L31.8487 13.0132H35.1963L35.7775 10.9342H40.1042L40.722 13.0114H44L40.3425 0.988405L35.4622 0.986572ZM18.3407 1.04341C17.1076 1.03983 15.9018 1.40642 14.8793 2.09574C13.9008 2.74997 13.1363 3.67766 12.6812 4.76324H11.3208L10.4702 6.58924H12.2467C12.2224 6.91033 12.2248 7.23289 12.254 7.55357H11.3978L10.5453 9.37774H12.7233C13.2074 10.4609 13.9964 11.3797 14.9939 12.022C15.9914 12.6644 17.1543 13.0024 18.3407 12.9949C19.5642 12.9984 20.7612 12.6385 21.78 11.9609L21.8038 11.9444V9.66924L21.7122 9.77191C21.2899 10.2545 20.7628 10.6341 20.1712 10.8817C19.5796 11.1292 18.9392 11.2381 18.2991 11.2001C17.6589 11.1621 17.036 10.9781 16.4779 10.6622C15.9198 10.3463 15.4413 9.90697 15.0792 9.37774H19.4718L20.3243 7.55357H14.3697C14.3264 7.23396 14.319 6.9105 14.3477 6.58924H20.7735L20.7882 6.55807L21.5912 4.83657L21.626 4.76324H14.949C15.3252 4.14522 15.8535 3.63398 16.4836 3.27835C17.1136 2.92271 17.8243 2.73458 18.5478 2.7319C19.8202 2.7319 21.0118 3.30024 21.8167 4.29024L21.868 4.35441L22.6178 2.75024L22.5903 2.72457C21.4419 1.63984 19.9204 1.03796 18.3407 1.04341ZM5.14067 1.05074C4.33583 1.05074 3.60617 1.08007 2.948 1.13874C2.15967 1.20107 1.50883 1.41374 1.001 1.77674C0.642883 2.02949 0.378565 2.39373 0.249333 2.81257C0.0916667 3.26724 0.0146667 3.87224 0.0146667 4.62757C0.0146667 5.61757 0.1595 6.35641 0.447333 6.84591C0.7755 7.42157 1.43183 7.79924 2.41633 7.9844C2.79217 8.04857 3.46133 8.11457 4.422 8.18424C5.621 8.2649 6.292 8.32724 6.435 8.37307C6.82183 8.48857 7.01433 8.81124 7.01433 9.34107C7.01974 9.53584 6.99689 9.73036 6.9465 9.91857C6.90043 10.0415 6.82746 10.1525 6.73293 10.2435C6.6384 10.3346 6.5247 10.4033 6.40017 10.4447C6.24617 10.5034 5.885 10.5327 5.32033 10.5327H4.213C3.95336 10.5337 3.69671 10.4773 3.46133 10.3677C3.16067 10.2192 3.01033 9.88374 3.01033 9.36124V9.11191H0C0 10.0891 0.0733333 10.7894 0.216333 11.2074C0.476667 11.9627 1.01383 12.4632 1.82783 12.7107C2.4915 12.9124 3.66667 13.0114 5.3515 13.0114C6.36167 13.0114 7.1115 12.9656 7.60283 12.8739C8.77617 12.6539 9.52783 12.1332 9.86333 11.3101C10.0485 10.8609 10.1402 10.1514 10.1402 9.1834C10.1402 8.76174 10.1218 8.38591 10.0797 8.05224C10.0311 7.53697 9.80033 7.05592 9.42883 6.69557C8.96683 6.2519 8.21883 5.9769 7.19217 5.87424C6.86767 5.8394 6.0555 5.77891 4.75383 5.69091L4.147 5.64874C3.92243 5.6433 3.70241 5.58421 3.50533 5.4764C3.278 5.3389 3.16617 5.04924 3.16617 4.61291C3.16617 4.12891 3.2945 3.81541 3.5475 3.67057C3.80233 3.52574 4.323 3.45424 5.1095 3.45424C5.918 3.45424 6.41117 3.57891 6.59083 3.83007C6.70633 3.99874 6.765 4.32874 6.765 4.82374H9.77533C9.79367 4.5579 9.80467 4.35991 9.80467 4.22607C9.80467 2.60541 9.15017 1.6209 7.83933 1.2689C7.30217 1.12407 6.402 1.05074 5.13883 1.05074H5.14067ZM37.9463 3.37907L39.4625 8.59124H36.4742L37.9463 3.37907ZM26.2497 3.6174H28.2957C28.6257 3.6174 28.8347 3.62474 28.9227 3.63574C29.3627 3.71274 29.6432 3.92357 29.7587 4.26824C29.8412 4.51391 29.8815 4.89157 29.8815 5.39941C29.8891 5.71347 29.8689 6.02759 29.821 6.33807C29.7568 6.65341 29.6285 6.86424 29.436 6.96874C29.2967 7.04574 28.908 7.09524 28.2682 7.11907H26.2515L26.2497 3.6174Z" fill="white"></path></svg> 