<?xml version="1.0" encoding="UTF-8"?> <svg xmlns="http://www.w3.org/2000/svg" width="32" height="20" viewBox="0 0 32 20" fill="none"><path d="M32.0002 10.0005C32.0002 15.2876 27.7148 19.5739 22.4278 19.5739C17.1414 19.5739 12.8555 15.2879 12.8555 10.0005C12.8555 4.71285 17.1413 0.426514 22.4278 0.426514C27.715 0.426514 32.0002 4.7128 32.0002 10.0005Z" fill="#D9222A"></path><path d="M15.0329 16.0794C14.7678 15.7578 14.5242 15.4191 14.3036 15.0655H17.6962C17.9004 14.739 18.0846 14.4003 18.2478 14.0515H13.7522C13.5978 13.7217 13.4626 13.3834 13.347 13.0381H18.6525C18.9718 12.0833 19.1447 11.0621 19.1447 10.0001C19.1447 9.30433 19.0705 8.62608 18.9299 7.97274H13.0706C13.1445 7.62997 13.2372 7.29151 13.3485 6.95897H18.652C18.5362 6.6138 18.401 6.27539 18.2471 5.94542H13.7535C13.9168 5.59677 14.101 5.25826 14.3048 4.93159H17.6953C17.4743 4.57863 17.2307 4.24028 16.9661 3.91873H15.0342C15.3312 3.55803 15.6541 3.21936 16.0002 2.90539C14.3013 1.36489 12.0461 0.42627 9.57236 0.42627C4.28559 0.426323 0 4.71261 0 10.0002C0 15.2874 4.2858 19.5737 9.57289 19.5737C12.0469 19.5737 14.3018 18.6352 16.0007 17.095C16.3473 16.7805 16.6706 16.4411 16.9678 16.0796H15.0335" fill="#0097D0"></path><path d="M30.7238 15.3354C30.7238 15.1647 30.8622 15.0262 31.0331 15.0262C31.2038 15.0263 31.3421 15.1647 31.342 15.3354C31.342 15.5062 31.2038 15.6447 31.0331 15.6447C30.8623 15.6448 30.7238 15.5062 30.7238 15.3354ZM31.0331 15.5705C31.1627 15.5705 31.2679 15.4655 31.268 15.3359V15.3354C31.268 15.2059 31.1631 15.1009 31.0336 15.1009H31.0331C30.9035 15.1006 30.7982 15.2055 30.7979 15.3351V15.3354C30.7979 15.4652 30.9031 15.5704 31.0328 15.5705H31.0331ZM30.9911 15.4711H30.928V15.1996H31.0426C31.0664 15.1996 31.0908 15.1998 31.1119 15.2133C31.1342 15.2284 31.1464 15.2547 31.1464 15.2811C31.1464 15.3122 31.1283 15.3404 31.0994 15.3513L31.1493 15.471H31.0791L31.0378 15.3639H30.9911V15.4711ZM30.9911 15.3176H31.0262C31.0393 15.3176 31.0531 15.3185 31.0649 15.3122C31.0751 15.3049 31.0811 15.2931 31.081 15.2806C31.0805 15.2695 31.0748 15.2594 31.0656 15.2532C31.0543 15.2466 31.0368 15.2478 31.0249 15.2478H30.9911V15.3176ZM15.8635 12.5866C15.4544 12.6951 15.0588 12.748 14.6406 12.7472C13.3063 12.7459 12.6114 12.1382 12.6114 10.9764C12.6114 9.61867 13.4961 8.61999 14.6968 8.61999C15.6791 8.61999 16.3062 9.18 16.3062 10.0571C16.3062 10.3482 16.2637 10.6316 16.1598 11.0329H13.7871C13.7026 11.6 14.1171 11.8492 14.8224 11.8492C15.2451 11.8492 15.6273 11.7731 16.0504 11.6032L15.8635 12.5866ZM15.2255 10.2319C15.2255 10.1462 15.3575 9.5368 14.6709 9.52346C14.2918 9.52346 14.0198 9.77547 13.9097 10.2319H15.2255ZM16.6673 9.96576C16.6673 10.4673 16.9498 10.8138 17.5915 11.0717C18.0821 11.2728 18.1595 11.3308 18.1595 11.5102C18.1595 11.7589 17.9426 11.8731 17.4612 11.8699C17.0997 11.8673 16.7699 11.8235 16.3805 11.7155L16.2083 12.6304C16.5543 12.7106 17.0397 12.737 17.4696 12.7471C18.7509 12.7471 19.3425 12.3275 19.3425 11.4208C19.3425 10.8759 19.0958 10.555 18.4874 10.3161C17.9787 10.113 17.919 10.0688 17.919 9.88502C17.919 9.66901 18.1205 9.55968 18.5136 9.55968C18.7516 9.55968 19.0778 9.58171 19.3872 9.61877L19.561 8.69919C19.2457 8.65519 18.7672 8.6201 18.4903 8.6201C17.1331 8.62015 16.6633 9.2313 16.6673 9.96576ZM11.961 12.6815H10.9657L10.9894 12.2645C10.6859 12.5935 10.2816 12.7466 9.73299 12.7466C9.08365 12.7466 8.63874 12.3027 8.63874 11.6642C8.63874 10.6938 9.41208 10.134 10.7416 10.134C10.8783 10.134 11.0521 10.1442 11.2306 10.164C11.2674 10.0342 11.2774 9.97846 11.2774 9.90758C11.2774 9.64203 11.0683 9.54421 10.5088 9.54421C9.95721 9.54645 9.58499 9.628 9.23966 9.72091L9.40968 8.83023C10.0068 8.67844 10.3979 8.62004 10.8404 8.62004C11.8699 8.62004 12.4137 9.02357 12.4137 9.78251C12.4226 9.98491 12.3519 10.3912 12.3166 10.569C12.2761 10.8277 11.9908 12.3275 11.961 12.6815ZM11.0875 10.9113C10.9613 10.8984 10.9063 10.8947 10.8201 10.8947C10.1412 10.8947 9.79699 11.0967 9.79699 11.4956C9.79699 11.7458 9.96494 11.9027 10.2268 11.9027C10.7146 11.9027 11.0668 11.4946 11.0875 10.9113ZM21.4401 12.6186C21.1134 12.7082 20.859 12.747 20.5836 12.747C19.9737 12.747 19.6409 12.4354 19.6409 11.8803C19.6218 11.728 19.7707 11.0239 19.8044 10.8277C19.8382 10.6309 20.3664 7.76147 20.3664 7.76147H21.5511L21.3718 8.71082H21.9794L21.8142 9.67995H21.2041C21.2041 9.67995 20.8692 11.3615 20.8692 11.4898C20.8692 11.6937 20.9927 11.7824 21.2763 11.7824C21.4121 11.7824 21.5168 11.7698 21.5979 11.7455L21.4401 12.6186ZM26.7333 8.61994C25.865 8.61994 25.1866 8.97727 24.7926 9.57419L25.1345 8.68906C24.5043 8.45775 24.098 8.78772 23.7305 9.25706C23.7305 9.25706 23.669 9.33504 23.6078 9.4064V8.71039H22.4954C22.3447 9.93862 22.0783 11.184 21.8699 12.4142L21.8197 12.682H23.0164C23.1297 12.0576 23.223 11.5506 23.316 11.1466C23.5702 10.038 23.9979 9.69909 24.6402 9.84886C24.492 10.1677 24.4106 10.5364 24.4106 10.9451C24.4106 11.936 24.9488 12.7472 26.2852 12.7472C27.6339 12.7472 28.6104 12.0266 28.6104 10.384C28.6104 9.39306 27.9597 8.61994 26.7333 8.61994ZM26.385 11.7835C25.9623 11.7902 25.7062 11.4355 25.7062 10.905C25.7062 10.2762 26.0802 9.56571 26.6808 9.56571C27.1654 9.56571 27.3314 9.94992 27.3314 10.3593C27.3315 11.2542 26.9648 11.7835 26.385 11.7835ZM8.0814 12.682H6.88982L7.59804 8.95109L5.96757 12.682H4.88137L4.68265 8.97263L3.97224 12.682H2.89111L3.81203 7.82884H5.67407L5.82938 10.5342L7.00897 7.82884H9.02077L8.0814 12.682Z" fill="black"></path><path d="M28.7011 12.0735C28.7012 11.9029 28.8396 11.7646 29.0102 11.7645C29.1811 11.7645 29.3194 11.9031 29.3194 12.0735C29.3226 12.2443 29.1867 12.3853 29.016 12.3884C28.8453 12.3917 28.7043 12.2558 28.7011 12.0851C28.701 12.0812 28.701 12.0774 28.7011 12.0735ZM29.0102 12.3089C29.1401 12.3087 29.2453 12.2034 29.2453 12.0735C29.2453 11.9438 29.14 11.8388 29.0102 11.8388C28.8804 11.8388 28.7752 11.9439 28.7752 12.0735C28.7752 12.2034 28.8804 12.3087 29.0102 12.3089ZM28.9684 12.2094H28.9051V11.9382H29.0197C29.0437 11.9382 29.0682 11.9382 29.0893 11.9516C29.111 11.9664 29.1237 11.9926 29.1237 12.0194C29.1237 12.0502 29.1058 12.0788 29.0766 12.0895L29.1265 12.2093H29.0563L29.0152 12.1021H28.9685V12.2094H28.9684ZM28.9684 12.0554H29.0035C29.0164 12.0554 29.0304 12.0563 29.0422 12.0502C29.0523 12.043 29.0582 12.0313 29.058 12.0188C29.0577 12.0078 29.0521 11.9976 29.0429 11.9915C29.0316 11.9846 29.014 11.9863 29.0022 11.9863H28.9684V12.0554ZM16.1624 12.2876C15.7535 12.396 15.3577 12.4491 14.9398 12.4482C13.6055 12.4469 12.9106 11.8391 12.9106 10.6771C12.9106 9.31975 13.7948 8.32086 14.9958 8.32086C15.9782 8.32086 16.6051 8.88066 16.6051 9.75779C16.6051 10.0494 16.5624 10.3322 16.459 10.7338H14.0863C14.0018 11.3007 14.4159 11.5503 15.1214 11.5503C15.5441 11.5503 15.9261 11.4743 16.3496 11.3041L16.1624 12.2876ZM15.5244 9.93288C15.5244 9.84733 15.6562 9.23778 14.9698 9.22466C14.5907 9.22466 14.319 9.47688 14.2087 9.93288H15.5244ZM16.9664 9.66642C16.9664 10.1682 17.2484 10.5144 17.8905 10.7729C18.3813 10.9739 18.4584 11.0319 18.4584 11.2109C18.4584 11.4598 18.2416 11.5741 17.7604 11.5709C17.3986 11.5684 17.0688 11.5245 16.6797 11.4165L16.507 12.3309C16.8532 12.4118 17.3389 12.4382 17.7685 12.4482C19.0499 12.4482 19.6417 12.0284 19.6417 11.1217C19.6417 10.5768 19.3948 10.2558 18.7861 10.0171C18.2774 9.81395 18.2179 9.76973 18.2179 9.586C18.2179 9.36999 18.4197 9.26066 18.8124 9.26066C19.0508 9.26066 19.3768 9.2829 19.6864 9.32002L19.8598 8.40022C19.5444 8.35622 19.0662 8.32113 18.7896 8.32113C17.4318 8.32108 16.9622 8.93196 16.9664 9.66642ZM12.2602 12.3827H11.2646L11.2886 11.9656C10.9848 12.2941 10.5806 12.4474 10.0321 12.4474C9.3828 12.4474 8.93768 12.0034 8.93768 11.3654C8.93768 10.3945 9.71075 9.83496 11.0406 9.83496C11.1773 9.83496 11.3508 9.8452 11.5297 9.86499C11.5666 9.73522 11.5764 9.67965 11.5764 9.60856C11.5764 9.34279 11.3675 9.24519 10.8079 9.24519C10.2564 9.24743 9.88414 9.32919 9.5388 9.42189L9.70862 8.53143C10.3059 8.37942 10.6968 8.32097 11.1395 8.32097C12.1691 8.32097 12.7126 8.72455 12.7126 9.48322C12.7215 9.68589 12.6508 10.0919 12.6157 10.2701C12.575 10.5287 12.2898 12.0284 12.2602 12.3827ZM11.3862 10.6121C11.2604 10.5991 11.2053 10.5955 11.1188 10.5955C10.4404 10.5955 10.0959 10.7975 10.0959 11.1965C10.0959 11.4468 10.2641 11.6036 10.5255 11.6036C11.0138 11.6035 11.3659 11.1953 11.3862 10.6121ZM21.7388 12.3198C21.4124 12.4092 21.1577 12.4482 20.8825 12.4482C20.2727 12.4482 19.9401 12.1364 19.9401 11.5813C19.9208 11.4291 20.0699 10.7248 20.1034 10.5287C20.1373 10.3318 20.6654 7.4624 20.6654 7.4624H21.8499L21.671 8.41175H22.2787L22.1135 9.38087H21.5033C21.5033 9.38087 21.1683 11.0625 21.1683 11.1907C21.1683 11.3947 21.292 11.4829 21.5753 11.4829C21.7109 11.4829 21.8158 11.4707 21.8969 11.446L21.7388 12.3198ZM27.6306 10.0602C27.6306 10.9549 27.2637 11.4847 26.6837 11.4847C26.2612 11.4907 26.0049 11.1367 26.0049 10.606C26.0049 9.97709 26.3788 9.26663 26.9794 9.26663C27.4644 9.26663 27.6306 9.65133 27.6306 10.0602ZM28.9095 10.0851C28.9095 9.09421 28.2584 8.32086 27.0325 8.32086C25.6218 8.32086 24.7097 9.26087 24.7097 10.646C24.7097 11.6368 25.2475 12.4482 26.5844 12.4482C27.9331 12.4482 28.9095 11.7276 28.9095 10.0851ZM22.7942 8.41132C22.6438 9.63954 22.3774 10.8847 22.1691 12.1154L22.1186 12.3831H23.3152C23.7465 10.0067 23.8912 9.32962 24.7947 9.56808L25.2293 8.44343C24.5992 8.21212 24.1933 8.54231 23.8261 9.01186C23.8593 8.80055 23.9217 8.59676 23.9066 8.41143L22.7942 8.41132ZM8.38023 12.3831H7.18886L7.89687 8.65196L6.26618 12.3831H5.1802L4.98148 8.67345L4.27107 12.3831H3.18994L4.11064 7.52971H5.97311L6.07157 10.5342L7.38225 7.52971H9.3196L8.38023 12.3831Z" fill="white"></path></svg> 