<?xml version="1.0" encoding="UTF-8"?> <svg xmlns="http://www.w3.org/2000/svg" width="38" height="38" viewBox="0 0 38 38" fill="none"><circle cx="19" cy="19" r="19" fill="#EDEDED"></circle><g clip-path="url(#clip0_701_16127)"><path d="M19.0008 27L21.2488 14.3575C23.3913 14.3575 24.0673 14.5925 24.1651 15.5515C24.1651 15.5515 25.6026 15.0155 26.3276 13.927C23.4986 12.616 20.6561 12.557 20.6561 12.557L18.9973 14.577L19.0011 14.5768L17.3423 12.5568C17.3423 12.5568 14.5001 12.616 11.6711 13.9267C12.3953 15.0153 13.8336 15.5512 13.8336 15.5512C13.9318 14.5922 14.6068 14.3572 16.7351 14.3558L19.0008 27ZM19.0001 11.9732C21.2868 11.9557 23.9046 12.327 26.5841 13.495C26.9423 12.8505 27.0341 12.5655 27.0341 12.5655C24.1051 11.4065 21.3621 11.01 19.0001 11C16.6376 11.01 13.8946 11.4065 10.9658 12.5655C10.9658 12.5655 11.0966 12.9165 11.4158 13.495C14.0951 12.327 16.7126 11.9557 19.0001 11.9732Z" fill="#E82127"></path></g><defs><clipPath id="clip0_701_16127"><rect width="16" height="16" fill="white" transform="translate(11 11)"></rect></clipPath></defs></svg> 