<?xml version="1.0" encoding="UTF-8"?> <svg xmlns="http://www.w3.org/2000/svg" width="95" height="42" viewBox="0 0 95 42" fill="none"><path d="M1.47021 37.4387C3.10175 39.1312 1.98586 37.8788 3.29917 39.2302C3.47836 39.4146 3.68602 39.5713 3.91347 39.6912L4.5294 40.0159C5.58116 40.5703 6.87578 40.0077 7.18815 38.8606L7.35752 38.2386C7.65014 37.164 8.98376 36.7908 9.79168 37.5573V37.5573C10.4385 38.171 11.4779 38.0736 11.9994 37.3504L12.5191 36.6297C12.8732 36.1387 13.4104 35.8111 14.0091 35.7212L14.6541 35.6243C15.6683 35.4719 16.5778 34.9159 17.1757 34.0827L18.9711 31.5809C19.5653 30.7529 20.3955 30.1233 21.3532 29.7746L21.8324 29.6C22.8137 29.2426 23.6083 28.5029 24.035 27.5496L24.3435 26.8605C24.9623 25.4779 26.5134 24.7721 27.9623 25.2138L28.2093 25.2891C28.7628 25.4578 29.2338 25.826 29.5312 26.3223L29.7992 26.7698C30.2054 27.4478 31.0284 27.7523 31.7781 27.502L32.2774 27.3354C32.6349 27.216 33.029 27.3282 33.2701 27.6179V27.6179C33.7548 28.2004 34.6969 27.9748 34.8651 27.236L35.6641 23.7275C35.9332 22.5456 37.5552 22.3938 38.0389 23.5052V23.5052C38.479 24.5164 39.9156 24.5093 40.3457 23.4939L40.6368 22.8066C41.0363 21.8636 42.2152 21.5462 43.0341 22.1614L44.8283 23.5091C45.0906 23.7061 45.3806 23.8633 45.6888 23.9756L46.5443 24.2872C46.8169 24.3865 47.0465 24.5777 47.1934 24.8279V24.8279C47.7305 25.7423 49.0911 25.6127 49.4459 24.6133L50.4897 21.6731C50.8348 20.701 51.8204 20.1099 52.8404 20.2631V20.2631C53.6958 20.3917 54.5452 19.9961 54.9974 19.2586L58.6634 13.2789C59.3663 12.1324 60.6173 11.4335 61.9622 11.4335V11.4335C62.3102 11.4335 62.6572 11.3862 62.9925 11.2929V11.2929C64.4245 10.8945 65.9579 11.3581 66.9294 12.4831L69.4265 15.375C70.0607 16.1094 70.926 16.6059 71.8801 16.7829L73.1034 17.0098C74.0594 17.1871 75.0283 16.7716 75.5588 15.9568L76.1201 15.0948C76.6169 14.332 77.6718 14.181 78.3625 14.774V14.774C78.8964 15.2323 79.6765 15.2598 80.2413 14.8401L87.0906 9.75045C88.4131 8.76769 89.5226 7.52689 90.3518 6.10308L93.5296 0.646973" stroke="url(#paint0_linear_706_27341)" stroke-width="2" stroke-linejoin="round"></path><defs><linearGradient id="paint0_linear_706_27341" x1="47.4999" y1="0.646973" x2="47.4999" y2="41.0965" gradientUnits="userSpaceOnUse"><stop stop-color="#99FFA3"></stop><stop offset="1" stop-color="#68EE76"></stop></linearGradient></defs></svg> 