<?xml version="1.0" encoding="UTF-8"?> <svg xmlns="http://www.w3.org/2000/svg" width="38" height="38" viewBox="0 0 38 38" fill="none"><circle cx="19" cy="19" r="19" fill="#EDEDED"></circle><path d="M22.5616 11.3653C21.82 12.2469 20.6335 12.9423 19.4469 12.843C19.2986 11.6509 19.8795 10.3842 20.5593 9.60191C21.3009 8.6954 22.5987 8.04967 23.6493 8C23.7729 9.24179 23.2909 10.4588 22.5616 11.3653ZM23.6369 13.0789C21.9189 12.9796 20.4481 14.06 19.6323 14.06C18.8042 14.06 17.5559 13.1286 16.1963 13.1534C14.4288 13.1783 12.7849 14.1841 11.8827 15.786C10.0287 18.9899 11.4006 23.7335 13.1928 26.3413C14.0704 27.6328 15.121 29.0484 16.5053 28.9987C17.8154 28.9491 18.3345 28.1419 19.9166 28.1419C21.511 28.1419 21.9684 28.9987 23.3527 28.9739C24.7864 28.9491 25.6887 27.6824 26.5662 26.391C27.5674 24.9256 27.9753 23.4976 28 23.4231C27.9753 23.3982 25.2314 22.3427 25.2067 19.1637C25.1819 16.5063 27.3696 15.2397 27.4685 15.1651C26.2325 13.3273 24.3044 13.1286 23.6369 13.0789Z" fill="black"></path></svg> 