<?xml version="1.0" encoding="UTF-8"?> <svg xmlns="http://www.w3.org/2000/svg" width="22" height="22" viewBox="0 0 22 22" fill="none"><path d="M11.0002 2.25592C13.8482 2.25592 14.1859 2.26659 15.3113 2.31814C18.2019 2.4497 19.5522 3.82125 19.6837 6.69058C19.7353 7.81503 19.7451 8.15281 19.7451 11.0008C19.7451 13.8497 19.7344 14.1866 19.6837 15.311C19.5513 18.1777 18.2046 19.5519 15.3113 19.6835C14.1859 19.735 13.8499 19.7457 11.0002 19.7457C8.15216 19.7457 7.81438 19.735 6.68994 19.6835C3.79216 19.551 2.44905 18.1733 2.3175 15.3101C2.26594 14.1857 2.25527 13.8488 2.25527 10.9999C2.25527 8.15192 2.26683 7.81503 2.3175 6.6897C2.44994 3.82125 3.79661 2.44881 6.68994 2.31725C7.81527 2.26659 8.15216 2.25592 11.0002 2.25592ZM11.0002 0.333252C8.10327 0.333252 7.74061 0.345696 6.60283 0.397252C2.72905 0.57503 0.576163 2.72436 0.398385 6.6017C0.345941 7.74036 0.333496 8.10303 0.333496 10.9999C0.333496 13.8968 0.345941 14.2604 0.397496 15.3981C0.575274 19.2719 2.72461 21.4248 6.60194 21.6026C7.74061 21.6541 8.10327 21.6666 11.0002 21.6666C13.8971 21.6666 14.2606 21.6541 15.3984 21.6026C19.2686 21.4248 21.4268 19.2755 21.6019 15.3981C21.6544 14.2604 21.6668 13.8968 21.6668 10.9999C21.6668 8.10303 21.6544 7.74036 21.6028 6.60258C21.4286 2.73236 19.2766 0.575919 15.3993 0.398141C14.2606 0.345696 13.8971 0.333252 11.0002 0.333252V0.333252ZM11.0002 5.52258C7.97527 5.52258 5.52283 7.97503 5.52283 10.9999C5.52283 14.0248 7.97527 16.4781 11.0002 16.4781C14.0251 16.4781 16.4775 14.0257 16.4775 10.9999C16.4775 7.97503 14.0251 5.52258 11.0002 5.52258ZM11.0002 14.5555C9.03661 14.5555 7.44461 12.9644 7.44461 10.9999C7.44461 9.03636 9.03661 7.44436 11.0002 7.44436C12.9637 7.44436 14.5557 9.03636 14.5557 10.9999C14.5557 12.9644 12.9637 14.5555 11.0002 14.5555ZM16.6944 4.02659C15.9868 4.02659 15.4135 4.59992 15.4135 5.30658C15.4135 6.01325 15.9868 6.58658 16.6944 6.58658C17.4011 6.58658 17.9735 6.01325 17.9735 5.30658C17.9735 4.59992 17.4011 4.02659 16.6944 4.02659Z" fill="black"></path></svg> 