<?xml version="1.0" encoding="UTF-8"?> <svg xmlns="http://www.w3.org/2000/svg" width="24" height="24" viewBox="0 0 24 24" fill="none"><path fill-rule="evenodd" clip-rule="evenodd" d="M13 20C13 20.5523 12.5523 21 12 21C11.4477 21 11 20.5523 11 20V6.49225L7.69859 9.71552C7.30342 10.1013 6.6703 10.0938 6.28448 9.69859C5.89866 9.30342 5.90624 8.6703 6.30141 8.28448L11.4226 3.28448C11.6124 3.09916 11.8681 2.99686 12.1333 3.00007C12.3986 3.00329 12.6517 3.11176 12.8369 3.30162L17.7157 8.30162C18.1014 8.69691 18.0937 9.33003 17.6984 9.71573C17.3031 10.1014 16.67 10.0937 16.2843 9.69838L13 6.33251V20Z" fill="#F7FAFF"></path></svg> 