<?xml version="1.0" encoding="UTF-8"?> <svg xmlns="http://www.w3.org/2000/svg" width="99" height="39" viewBox="0 0 99 39" fill="none"><path d="M97.0117 34.125C95.0189 36.198 96.3823 34.6636 94.7774 36.3196C94.559 36.545 94.3057 36.7367 94.0282 36.8834L93.2798 37.279C91.994 37.9587 90.4097 37.2707 90.0286 35.8671L89.8204 35.1005C89.464 33.7878 87.8344 33.3324 86.849 34.27V34.27C86.0597 35.021 84.7888 34.902 84.1527 34.0174L83.5169 33.1332C83.085 32.5325 82.4288 32.1316 81.6971 32.0214L80.9102 31.9028C79.6717 31.7162 78.5615 31.0362 77.8326 30.0177L75.6365 26.9491C74.9117 25.9362 73.898 25.1657 72.7281 24.7385L72.1451 24.5255C70.9455 24.0874 69.9747 23.182 69.4542 22.0158L69.0743 21.1647C68.3202 19.4751 66.4252 18.6125 64.6558 19.1534L64.3561 19.245C63.6796 19.4517 63.1041 19.9025 62.7414 20.5098L62.4118 21.0614C61.9169 21.8898 60.9119 22.2619 59.9968 21.9556L59.3878 21.7517C58.9508 21.6054 58.4687 21.7427 58.1744 22.0974V22.0974C57.5834 22.8098 56.4319 22.5345 56.2269 21.6318L55.2503 17.3313C54.9224 15.8871 52.9399 15.702 52.3503 17.0605V17.0605C51.8138 18.2968 50.0574 18.2882 49.533 17.0467L49.1773 16.2045C48.6899 15.0508 47.2478 14.6629 46.2475 15.4164L44.058 17.0656C43.7379 17.3067 43.3839 17.4992 43.0075 17.6366L41.9626 18.0183C41.6296 18.1398 41.3495 18.3737 41.1704 18.6795V18.6795C40.5153 19.798 38.8515 19.6399 38.4189 18.4179L37.1421 14.8113C36.7219 13.6244 35.5188 12.9023 34.2737 13.0899V13.0899C33.2289 13.2473 32.1915 12.7636 31.6404 11.8622L27.1584 4.53129C26.302 3.13054 24.7749 2.27628 23.1331 2.27628V2.27628C22.7079 2.27628 22.2838 2.21835 21.8743 2.10409V2.10409C20.1261 1.61637 18.2535 2.18315 17.0691 3.55847L14.0143 7.10599C13.2413 8.00368 12.1853 8.61095 11.0206 8.82757L9.52863 9.10506C8.35976 9.32245 7.17508 8.81389 6.52759 7.81676V7.81676C5.55851 6.32437 3.49567 6.02934 2.14711 7.19026L1.98795 7.32728" stroke="url(#paint0_linear_706_27325)" stroke-width="2" stroke-linecap="round" stroke-linejoin="round"></path><defs><linearGradient id="paint0_linear_706_27325" x1="15.7464" y1="-37.549" x2="15.7464" y2="38.6046" gradientUnits="userSpaceOnUse"><stop stop-color="#F38686"></stop><stop offset="1" stop-color="#EE6868"></stop><stop offset="1" stop-color="#AB0E0E"></stop></linearGradient></defs></svg> 