<?xml version="1.0" encoding="UTF-8"?> <svg xmlns="http://www.w3.org/2000/svg" width="32" height="32" viewBox="0 0 32 32" fill="none"><path d="M0 0H31.9205V17.2746L30.3405 19.7494L31.9205 21.9521V32H0V15.7154L0.987487 14.577L0 13.488V0Z" fill="#016FD0"></path><path d="M6.19629 22.2989V17.2749H11.5025L12.0718 18.0189L12.66 17.2749H31.9203V21.9524C31.9203 21.9524 31.4166 22.2939 30.8341 22.2989H20.1692L19.5274 21.5069V22.2989H17.424V20.947C17.424 20.947 17.1367 21.1357 16.5155 21.1357H15.7996V22.2989H12.615L12.0465 21.5389L11.4692 22.2989H6.19629Z" fill="white"></path><path d="M0 13.4878L1.19658 10.6912H3.26594L3.94501 12.2577V10.6912H6.51742L6.92167 11.8234L7.31358 10.6912H18.861V11.2604C18.861 11.2604 19.468 10.6912 20.4657 10.6912L24.2124 10.7043L24.8797 12.2503V10.6912H27.0325L27.625 11.5792V10.6912H29.7974V15.7151H27.625L27.0572 14.8242V15.7151H23.8943L23.5763 14.9232H22.726L22.4131 15.7151H20.2682C19.4097 15.7151 18.861 15.1575 18.861 15.1575V15.7151H15.627L14.9851 14.9232V15.7151H2.95938L2.64153 14.9232H1.79397L1.47836 15.7151H0V13.4878Z" fill="white"></path><path d="M1.62027 11.3108L0.00634766 15.0726H1.0571L1.35489 14.3193H3.08607L3.38232 15.0726H4.45621L2.84383 11.3108H1.62027ZM2.21739 12.1863L2.74508 13.5026H1.68816L2.21739 12.1863Z" fill="#016FD0"></path><path d="M4.56738 15.0721V11.3103L6.06055 11.3159L6.92903 13.7412L7.77672 11.3103H9.25795V15.0721H8.31983V12.3002L7.32542 15.0721H6.50269L5.5055 12.3002V15.0721H4.56738Z" fill="#016FD0"></path><path d="M9.8999 15.0721V11.3103H12.9611V12.1518H10.8479V12.7952H12.9117V13.5872H10.8479V14.2554H12.9611V15.0721H9.8999Z" fill="#016FD0"></path><path d="M13.5039 11.3108V15.0726H14.442V13.7362H14.837L15.9618 15.0726H17.1082L15.8739 13.6867C16.3805 13.6438 16.903 13.2079 16.903 12.5312C16.903 11.7396 16.2832 11.3108 15.5915 11.3108H13.5039ZM14.442 12.1522H15.5144C15.7716 12.1522 15.9587 12.354 15.9587 12.5482C15.9587 12.7981 15.7163 12.9442 15.5283 12.9442H14.442V12.1522Z" fill="#016FD0"></path><path d="M18.244 15.0721H17.2861V11.3103H18.244V15.0721Z" fill="#016FD0"></path><path d="M20.5152 15.0721H20.3084C19.3081 15.0721 18.7007 14.282 18.7007 13.2067C18.7007 12.1048 19.3013 11.3103 20.5646 11.3103H21.6014V12.2013H20.5267C20.0138 12.2013 19.6511 12.6025 19.6511 13.2159C19.6511 13.9445 20.0659 14.2504 20.6633 14.2504H20.9102L20.5152 15.0721Z" fill="#016FD0"></path><path d="M22.5563 11.3108L20.9424 15.0726H21.9931L22.2909 14.3193H24.0221L24.3184 15.0726H25.3922L23.7799 11.3108H22.5563ZM23.1534 12.1863L23.6811 13.5026H22.6242L23.1534 12.1863Z" fill="#016FD0"></path><path d="M25.502 15.0721V11.3103H26.6947L28.2175 13.6738V11.3103H29.1557V15.0721H28.0015L26.4401 12.6467V15.0721H25.502Z" fill="#016FD0"></path><path d="M6.83838 21.6549V17.8931H9.89959V18.7345H7.78637V19.378H9.85022V20.1699H7.78637V20.8382H9.89959V21.6549H6.83838Z" fill="#016FD0"></path><path d="M21.8384 21.6549V17.8931H24.8996V18.7345H22.7864V19.378H24.8403V20.1699H22.7864V20.8382H24.8996V21.6549H21.8384Z" fill="#016FD0"></path><path d="M10.0184 21.6549L11.5089 19.7972L9.98291 17.8931H11.1648L12.0736 19.0702L12.9855 17.8931H14.1211L12.6152 19.774L14.1084 21.6549H12.9267L12.0443 20.4963L11.1833 21.6549H10.0184Z" fill="#016FD0"></path><path d="M14.2197 17.8936V21.6553H15.1825V20.4674H16.17C17.0056 20.4674 17.6389 20.023 17.6389 19.1588C17.6389 18.4429 17.1422 17.8936 16.2919 17.8936H14.2197ZM15.1825 18.7443H16.2225C16.4924 18.7443 16.6854 18.9101 16.6854 19.1774C16.6854 19.4285 16.4934 19.6105 16.2194 19.6105H15.1825V18.7443Z" fill="#016FD0"></path><path d="M18.0464 17.8931V21.6549H18.9845V20.3184H19.3795L20.5043 21.6549H21.6507L20.4164 20.2689C20.9229 20.2261 21.4455 19.7902 21.4455 19.1135C21.4455 18.3219 20.8257 17.8931 20.134 17.8931H18.0464ZM18.9845 18.7345H20.0568C20.3141 18.7345 20.5012 18.9362 20.5012 19.1305C20.5012 19.3804 20.2588 19.5265 20.0707 19.5265H18.9845V18.7345Z" fill="#016FD0"></path><path d="M25.334 21.6549V20.8382H27.2114C27.4892 20.8382 27.6095 20.6877 27.6095 20.5226C27.6095 20.3645 27.4896 20.2046 27.2114 20.2046H26.363C25.6256 20.2046 25.2148 19.7542 25.2148 19.0779C25.2148 18.4747 25.591 17.8931 26.6868 17.8931H28.5137L28.1187 18.7395H26.5387C26.2367 18.7395 26.1437 18.8983 26.1437 19.0501C26.1437 19.206 26.2586 19.378 26.4893 19.378H27.3781C28.2001 19.378 28.5569 19.8455 28.5569 20.4576C28.5569 21.1158 28.1594 21.6549 27.3333 21.6549H25.334Z" fill="#016FD0"></path><path d="M28.7768 21.6549V20.8382H30.6543C30.9321 20.8382 31.0524 20.6877 31.0524 20.5226C31.0524 20.3645 30.9325 20.2046 30.6543 20.2046H29.8059C29.0684 20.2046 28.6577 19.7542 28.6577 19.0779C28.6577 18.4747 29.0338 17.8931 30.1297 17.8931H31.9565L31.5615 18.7395H29.9816C29.6795 18.7395 29.5866 18.8983 29.5866 19.0501C29.5866 19.206 29.7015 19.378 29.9322 19.378H30.8209C31.643 19.378 31.9997 19.8455 31.9997 20.4576C31.9997 21.1158 31.6022 21.6549 30.7762 21.6549H28.7768Z" fill="#016FD0"></path></svg> 