<?xml version="1.0" encoding="UTF-8"?> <svg xmlns="http://www.w3.org/2000/svg" width="40" height="24" viewBox="0 0 40 24" fill="none"><path fill-rule="evenodd" clip-rule="evenodd" d="M31.3734 12.0039H28.1865C27.8321 12.0039 27.5437 11.7284 27.5437 11.3835C27.5437 11.0386 27.8321 10.735 28.1865 10.735H33.0383V8.40015H28.1865C26.4931 8.40015 25.1153 9.74693 25.1153 11.3948C25.1153 13.0427 26.4931 14.3895 28.1865 14.3895H31.3301C31.6846 14.3895 31.973 14.6638 31.973 15.0087C31.973 15.3536 31.6846 15.6076 31.3301 15.6076H24.5891C24.0168 16.6735 23.4603 17.5871 22.3306 18.0439H31.3734C33.0383 18.0205 34.4003 16.646 34.4003 15.0127C34.4003 13.3794 33.0383 12.0273 31.3734 12.0039Z" fill="#5F6360"></path><path fill-rule="evenodd" clip-rule="evenodd" d="M19.1564 8.40015C16.4553 8.40015 14.2554 10.5591 14.2554 13.2119V13.3134V23.2211H16.7007V18.0439H19.1513C21.8524 18.0439 24.0446 15.8563 24.0446 13.2035C24.0446 10.5507 21.8575 8.40015 19.1564 8.40015ZM19.1564 15.6076H16.7007V13.2035C16.7007 11.86 17.7972 10.767 19.1564 10.767C20.5156 10.767 21.6214 11.86 21.6214 13.2035C21.6214 14.5469 20.5156 15.6076 19.1564 15.6076Z" fill="#5F6360"></path><path fill-rule="evenodd" clip-rule="evenodd" d="M6.51373 18.0444C4.20155 18.0444 2.25763 16.4371 1.73162 14.3373C1.73162 14.3373 1.57959 13.643 1.57959 13.1859C1.57959 12.7287 1.7235 12.0273 1.7235 12.0273C2.25331 9.93268 4.19484 8.37292 6.50322 8.37292C9.21811 8.37292 11.4459 10.5259 11.4459 13.1744V14.3392H4.23287C4.65884 15.1513 5.52028 15.6081 6.51373 15.6081H12.9979L13.0068 8.73974C13.0068 7.71572 12.148 6.87793 11.0983 6.87793H1.908C0.858358 6.87793 -0.000488281 7.69034 -0.000488281 8.71436V17.6799C-0.000488281 18.704 0.858358 19.5671 1.908 19.5671H11.0983C12.0404 19.5671 12.8262 18.9073 12.9779 18.0444H6.51373Z" fill="#A41760"></path><path fill-rule="evenodd" clip-rule="evenodd" d="M6.50348 10.6519C5.51388 10.6519 4.65327 11.2429 4.22559 12.0042H8.78148C8.3538 11.2429 7.49318 10.6519 6.50348 10.6519Z" fill="#A41760"></path><path fill-rule="evenodd" clip-rule="evenodd" d="M10.6658 3.96203C10.6658 1.77385 8.80169 0 6.50226 0C4.24091 0 2.40173 1.71583 2.34132 3.85386C2.34033 3.8629 2.34111 3.87168 2.34111 3.88097V5.07162C2.34111 5.21405 2.46 5.35485 2.60964 5.35485H4.14143C4.29107 5.35485 4.42228 5.21405 4.42228 5.07162V3.96203C4.42228 2.86933 5.35517 1.98033 6.50345 1.98033C7.65174 1.98033 8.58462 2.86933 8.58462 3.96203V5.07162C8.58462 5.21405 8.70601 5.35485 8.85564 5.35485H10.3875C10.5371 5.35485 10.6658 5.21405 10.6658 5.07162V3.96203Z" fill="#A41760"></path><path fill-rule="evenodd" clip-rule="evenodd" d="M21.9002 21.1399L21.6787 22.3631C21.568 22.9813 21.1528 23.2644 20.5899 23.2644C20.1132 23.2644 19.7441 22.9614 19.8518 22.3641L20.0732 21.1399H20.4146L20.1932 22.3631C20.1255 22.7443 20.3009 22.9614 20.633 22.9614C20.9744 22.9614 21.2666 22.7633 21.3373 22.3641L21.5588 21.1399H21.9002ZM20.5591 20.757C20.5591 20.859 20.6392 20.907 20.7253 20.907C20.8329 20.907 20.9498 20.832 20.9498 20.691C20.9498 20.592 20.8821 20.541 20.7929 20.541C20.6822 20.541 20.5591 20.6099 20.5591 20.757ZM21.2974 20.754C21.2974 20.859 21.3804 20.907 21.4696 20.907C21.565 20.907 21.691 20.832 21.691 20.6939C21.691 20.595 21.6172 20.541 21.5342 20.541C21.4234 20.541 21.2974 20.6099 21.2974 20.754Z" fill="#5F6360"></path><path fill-rule="evenodd" clip-rule="evenodd" d="M22.7254 21.1399L22.5716 21.985C22.7038 21.8112 22.9683 21.7191 23.1529 21.7191C23.5343 21.7191 23.7987 21.9371 23.7987 22.3422C23.7987 22.9152 23.3897 23.2599 22.8669 23.2599C22.6638 23.2599 22.4916 23.1863 22.3871 23.0003L22.3286 23.2209H22.0303L22.4086 21.1399H22.7254ZM22.4855 22.5663C22.4732 22.8123 22.6362 22.9712 22.873 22.9712C23.1713 22.9712 23.4604 22.7462 23.4789 22.4042C23.4912 22.1552 23.3251 22.0081 23.0944 22.0081C22.7992 22.0081 22.5039 22.2392 22.4855 22.5663Z" fill="#5F6360"></path><path fill-rule="evenodd" clip-rule="evenodd" d="M24.4206 22.6122C24.4083 22.8152 24.5713 22.981 24.8481 22.981C25.0019 22.981 25.2048 22.9223 25.3156 22.8203L25.4878 23.0145C25.3003 23.1824 25.0234 23.266 24.7897 23.266C24.3529 23.266 24.0977 23.0109 24.0977 22.6208C24.0977 22.1017 24.5159 21.7148 25.0511 21.7148C25.5402 21.7148 25.817 22.0031 25.6509 22.6122H24.4206ZM25.3925 22.3584C25.4171 22.1046 25.2633 22.0013 25.008 22.0013C24.7774 22.0013 24.5652 22.1046 24.4728 22.3584H25.3925Z" fill="#5F6360"></path><path fill-rule="evenodd" clip-rule="evenodd" d="M26.4969 21.7495L26.4815 21.9451C26.6292 21.7559 26.8075 21.7173 26.9706 21.7173C27.1182 21.7173 27.2504 21.7684 27.3212 21.8434L27.1305 22.1135C27.0629 22.0537 26.9952 22.0237 26.8783 22.0237C26.6599 22.0237 26.4446 22.1515 26.3954 22.4245L26.2509 23.2214H25.9341L26.2017 21.7495H26.4969Z" fill="#5F6360"></path><path fill-rule="evenodd" clip-rule="evenodd" d="M28.8472 21.749L29.0071 22.9131L29.5853 21.749H29.939L29.1455 23.221H28.7734L28.6227 22.2499L28.3797 22.7323L28.1152 23.221H27.7461L27.4785 21.749H27.8353L27.9921 22.9131L28.5734 21.749H28.8472Z" fill="#5F6360"></path><path fill-rule="evenodd" clip-rule="evenodd" d="M30.3458 22.6122C30.3336 22.8152 30.4965 22.981 30.7734 22.981C30.9272 22.981 31.1301 22.9223 31.2408 22.8203L31.4131 23.0145C31.2256 23.1824 30.9487 23.266 30.7149 23.266C30.2782 23.266 30.0229 23.0109 30.0229 22.6208C30.0229 22.1017 30.4412 21.7148 30.9764 21.7148C31.4655 21.7148 31.7423 22.0031 31.5762 22.6122H30.3458ZM31.3178 22.3584C31.3424 22.1046 31.1886 22.0013 30.9333 22.0013C30.7027 22.0013 30.4904 22.1046 30.3981 22.3584H31.3178Z" fill="#5F6360"></path><path fill-rule="evenodd" clip-rule="evenodd" d="M32.4442 21.7493L32.1767 23.2212H31.8599L32.1275 21.7493H32.4442ZM32.1643 21.3483C32.1643 21.4532 32.2444 21.5075 32.3305 21.5075C32.4535 21.5075 32.5673 21.4293 32.5673 21.2823C32.5673 21.1832 32.4904 21.1262 32.4073 21.1262C32.2935 21.1262 32.1643 21.1983 32.1643 21.3483Z" fill="#5F6360"></path><path fill-rule="evenodd" clip-rule="evenodd" d="M33.8498 22.1132C33.7514 22.0052 33.6253 21.9751 33.4746 21.9751C33.2654 21.9751 33.1178 22.0442 33.1178 22.1732C33.1178 22.2812 33.2377 22.3263 33.4162 22.3412C33.6929 22.3652 34.0467 22.4553 33.9728 22.8363C33.9205 23.1124 33.6375 23.2744 33.2439 23.2744C32.9979 23.2744 32.761 23.2204 32.6011 23.0014L32.8071 22.7823C32.921 22.9353 33.1209 22.9983 33.2993 23.0014C33.4499 23.0014 33.6284 22.9474 33.6561 22.8093C33.6838 22.6773 33.5637 22.6263 33.3423 22.6052C33.0839 22.5813 32.801 22.4883 32.801 22.2093C32.801 21.8401 33.21 21.7112 33.5177 21.7112C33.7514 21.7112 33.9237 21.7621 34.0651 21.9092L33.8498 22.1132Z" fill="#5F6360"></path><path fill-rule="evenodd" clip-rule="evenodd" d="M34.8497 21.749L34.7052 22.5417C34.659 22.7938 34.7759 22.968 35.0404 22.968C35.2895 22.968 35.5018 22.7666 35.5447 22.5206L35.6831 21.749H36L35.7325 23.221H35.4464L35.4679 23.0077C35.2895 23.1727 35.1141 23.2505 34.902 23.2505C34.5298 23.2505 34.3084 22.9902 34.3883 22.5433L34.5329 21.749H34.8497Z" fill="#5F6360"></path><path fill-rule="evenodd" clip-rule="evenodd" d="M37.3915 23.2211L37.5361 22.4332C37.5822 22.1781 37.4931 22.0092 37.204 22.0092C36.9518 22.0092 36.7394 22.2071 36.6965 22.4501L36.5581 23.2211H36.2412L36.5089 21.7491H36.7979L36.7764 21.9642C36.9518 21.8052 37.1331 21.7268 37.33 21.7268C37.6991 21.7268 37.9391 21.9772 37.856 22.4304L37.7115 23.2211H37.3915Z" fill="#5F6360"></path><path fill-rule="evenodd" clip-rule="evenodd" d="M38.4648 23.424C38.4433 23.6271 38.6032 23.7092 38.8709 23.7092C39.1046 23.7092 39.3569 23.5819 39.4153 23.2579L39.4614 23.0051C39.323 23.1941 39.0708 23.2687 38.8833 23.2687C38.4956 23.2687 38.225 23.0437 38.225 22.6354C38.225 22.0535 38.6678 21.7173 39.1692 21.7173C39.3814 21.7173 39.5721 21.8156 39.6398 21.9837L39.6921 21.7491H39.9996L39.7351 23.2648C39.6367 23.8259 39.2092 24.0001 38.8186 24.0001C38.351 24.0001 38.0928 23.7793 38.1572 23.424H38.4648ZM38.554 22.5754C38.554 22.8273 38.7232 22.9804 38.9663 22.9804C39.6213 22.9804 39.7966 21.9993 39.1414 21.9993C38.8308 21.9993 38.554 22.2242 38.554 22.5754Z" fill="#5F6360"></path></svg> 