<?xml version="1.0" encoding="UTF-8"?> <svg xmlns="http://www.w3.org/2000/svg" width="32" height="20" viewBox="0 0 32 20" fill="none"><path d="M20.3264 2.22534H11.6733V17.775H20.3264V2.22534Z" fill="#F1511B"></path><path d="M12.223 10.0001C12.223 13.1547 13.7 15.9642 16.0001 17.7749C14.318 19.0992 12.1954 19.8893 9.88858 19.8893C4.42729 19.8893 0 15.4618 0 10.0001C0 4.53857 4.42729 0.11084 9.88858 0.11084C12.1954 0.11084 14.318 0.900933 16.0001 2.22529C13.7 4.03606 12.223 6.84561 12.223 10.0001Z" fill="#E71B25"></path><path d="M31.9999 10.0001C31.9999 4.53857 27.5725 0.11084 22.1115 0.11084C19.8046 0.11084 17.6821 0.900933 16 2.22529C18.3 4.03606 19.7769 6.84561 19.7769 10.0001C19.7769 13.1547 18.3 15.9642 16 17.7749C17.6821 19.0992 19.8046 19.8893 22.1115 19.8893C27.5725 19.8893 31.9999 15.4618 31.9999 10.0001Z" fill="#F79410"></path><path d="M31.6913 3.87231V4.25613H31.5911L31.4757 3.99217L31.3606 4.25613H31.2603V3.87231H31.3309V4.16171L31.4392 3.91223H31.5125L31.6208 4.16245V3.87231H31.6913ZM31.0565 3.87231V4.19069H31.1851V4.25527H30.8579V4.19069H30.9865V3.87231H31.0565Z" fill="#231F20"></path></svg> 