<?xml version="1.0" encoding="UTF-8"?> <svg xmlns="http://www.w3.org/2000/svg" width="481" height="540" viewBox="0 0 481 540" fill="none"><path d="M130.533 368.078L91.3509 542.438C91.1458 543.351 90.3352 544 89.3996 544H26.6012C25.2878 544 24.3309 542.755 24.6684 541.486L90.4828 293.945C90.7679 292.873 91.8714 292.238 92.9419 292.53L210.149 324.495C211.183 324.777 212.256 324.193 212.581 323.171L252.407 197.866C252.736 196.829 253.835 196.246 254.878 196.554L329.012 218.414C330.098 218.734 331.234 218.09 331.515 216.993L359.512 107.903C359.783 106.846 359.158 105.768 358.106 105.478L306.277 91.1798C304.616 90.7216 304.273 88.5177 305.716 87.5766L415.183 16.1847C416.162 15.5465 417.477 15.8794 418.034 16.9064L478.92 129.165C479.736 130.669 478.409 132.437 476.737 132.073L413.922 118.418C412.855 118.186 411.8 118.852 411.55 119.915L369.491 298.91C369.226 300.04 368.058 300.707 366.95 300.362L280.969 273.613C279.892 273.277 278.75 273.9 278.448 274.987L244.542 397.047C244.244 398.122 243.125 398.744 242.055 398.432L133.045 366.597C131.937 366.274 130.786 366.952 130.533 368.078Z" fill="#4C8E6C"></path><path d="M110.503 354.03L64.3732 542.476C64.1541 543.371 63.3519 544 62.4305 544H3.59441C2.28306 544 1.32653 542.759 1.66026 541.491L70.4865 279.952C70.7693 278.877 71.8745 278.238 72.9468 278.531L190.149 310.495C191.183 310.777 192.256 310.193 192.581 309.171L232.407 183.866C232.736 182.829 233.835 182.246 234.878 182.554L309.012 204.414C310.098 204.734 311.234 204.09 311.515 202.993L339.512 93.9028C339.783 92.8464 339.158 91.7676 338.106 91.4776L286.277 77.1798C284.616 76.7216 284.273 74.5177 285.716 73.5766L395.183 2.18474C396.162 1.54652 397.477 1.87944 398.034 2.90644L458.92 115.165C459.736 116.669 458.409 118.437 456.737 118.073L393.922 104.418C392.855 104.186 391.8 104.852 391.55 105.915L349.491 284.91C349.226 286.04 348.058 286.707 346.95 286.362L260.969 259.613C259.892 259.277 258.75 259.9 258.448 260.987L224.542 383.047C224.244 384.122 223.125 384.744 222.055 384.432L113.006 352.586C111.913 352.267 110.774 352.924 110.503 354.03Z" fill="#C3EFD8" stroke="#2B2B2B" stroke-width="2"></path></svg> 