<svg width="586" height="791" viewBox="0 0 586 791" fill="none" xmlns="http://www.w3.org/2000/svg">
<g style="mix-blend-mode:multiply">
<path d="M19.2272 430.565L235.417 789.033C235.779 789.633 236.428 790 237.129 790H327.567C329.1 790 330.063 788.347 329.307 787.014L141.158 455.128C140.55 454.057 141.046 452.697 142.2 452.267L584.155 287.772C585.179 287.391 585.707 286.259 585.343 285.229L515.664 88.579C515.297 87.5421 515.836 86.4031 516.87 86.0298L559.437 70.6705C561.116 70.0646 561.221 67.7298 559.603 66.9762L449.819 15.847C448.815 15.3796 447.623 15.8163 447.159 16.8212L395.969 127.625C395.23 129.226 396.772 130.93 398.438 130.355L446.138 113.869C447.171 113.512 448.299 114.05 448.671 115.078L494.334 241.047C494.704 242.068 494.192 243.198 493.179 243.592L20.2145 427.668C19.0579 428.118 18.5863 429.502 19.2272 430.565Z" fill="#DF4F8C"/>
</g>
<path d="M2.19408 424.016L218.419 789.019C218.779 789.627 219.433 790 220.14 790H310.597C312.123 790 313.087 788.36 312.344 787.027L124.126 449.023C123.533 447.957 124.024 446.612 125.165 446.18L567.18 278.69C568.193 278.306 568.716 277.185 568.36 276.162L498.646 75.8568C498.288 74.8262 498.821 73.6983 499.845 73.3221L542.527 57.6431C544.191 57.0318 544.296 54.7181 542.694 53.9586L432.838 1.87132C431.828 1.39248 430.621 1.83423 430.16 2.85202L378.937 115.731C378.209 117.335 379.761 119.029 381.422 118.444L429.12 101.661C430.16 101.296 431.299 101.839 431.668 102.877L477.352 231.181C477.714 232.196 477.206 233.314 476.205 233.711L3.17809 421.137C2.03482 421.59 1.56731 422.958 2.19408 424.016Z" fill="#B7F2A2" stroke="#2B2B2B" stroke-width="2"/>
</svg>
