<svg width="561" height="540" viewBox="0 0 561 540" fill="none" xmlns="http://www.w3.org/2000/svg">
<g filter="url(#filter0_d_856_27322)">
<rect x="61" y="136" width="160" height="195" rx="8" fill="white" shape-rendering="crispEdges"/>
<rect x="61.5" y="136.5" width="159" height="194" rx="7.5" fill="white" stroke="#163939"/>
<path d="M69 136.5H213C217.142 136.5 220.5 139.858 220.5 144V155.5H61.5V144C61.5 139.858 64.8579 136.5 69 136.5Z" fill="#016D71" stroke="#163939"/>
<path fill-rule="evenodd" clip-rule="evenodd" d="M74 149C75.6569 149 77 147.657 77 146C77 144.343 75.6569 143 74 143C72.3431 143 71 144.343 71 146C71 147.657 72.3431 149 74 149ZM74 150C76.2091 150 78 148.209 78 146C78 143.791 76.2091 142 74 142C71.7909 142 70 143.791 70 146C70 148.209 71.7909 150 74 150ZM86 149C87.6569 149 89 147.657 89 146C89 144.343 87.6569 143 86 143C84.3431 143 83 144.343 83 146C83 147.657 84.3431 149 86 149ZM86 150C88.2091 150 90 148.209 90 146C90 143.791 88.2091 142 86 142C83.7909 142 82 143.791 82 146C82 148.209 83.7909 150 86 150ZM101 146C101 147.657 99.6569 149 98 149C96.3431 149 95 147.657 95 146C95 144.343 96.3431 143 98 143C99.6569 143 101 144.343 101 146ZM102 146C102 148.209 100.209 150 98 150C95.7909 150 94 148.209 94 146C94 143.791 95.7909 142 98 142C100.209 142 102 143.791 102 146Z" fill="white"/>
<rect x="73" y="170" width="84" height="3" rx="1.5" fill="#016D71"/>
<rect x="169" y="170" width="11" height="3" rx="1.5" fill="#016D71"/>
<rect x="73" y="181" width="31" height="3" rx="1.5" fill="#016D71"/>
<rect x="118" y="181" width="11" height="3" rx="1.5" fill="#016D71"/>
<rect x="143" y="181" width="17" height="3" rx="1.5" fill="#016D71"/>
<rect x="73" y="192" width="31" height="3" rx="1.5" fill="#016D71"/>
<rect x="117" y="192" width="17" height="3" rx="1.5" fill="#016D71"/>
<rect x="147" y="192" width="17" height="3" rx="1.5" fill="#016D71"/>
<rect x="73" y="203" width="38" height="3" rx="1.5" fill="#016D71"/>
<rect x="119" y="203" width="12" height="3" rx="1.5" fill="#016D71"/>
<rect x="139" y="203" width="39" height="3" rx="1.5" fill="#016D71"/>
<rect x="73" y="214" width="47" height="3" rx="1.5" fill="#016D71"/>
<rect x="129" y="214" width="12" height="3" rx="1.5" fill="#016D71"/>
<rect x="150" y="214" width="22" height="3" rx="1.5" fill="#016D71"/>
<rect x="73" y="225" width="26" height="3" rx="1.5" fill="#016D71"/>
<rect x="108" y="225" width="11" height="3" rx="1.5" fill="#016D71"/>
<rect x="128" y="225" width="26" height="3" rx="1.5" fill="#016D71"/>
<rect x="163" y="225" width="12" height="3" rx="1.5" fill="#016D71"/>
<rect x="73" y="236" width="26" height="3" rx="1.5" fill="#016D71"/>
<rect x="107" y="236" width="11" height="3" rx="1.5" fill="#016D71"/>
<rect x="126" y="236" width="26" height="3" rx="1.5" fill="#016D71"/>
<rect x="73" y="247" width="84" height="3" rx="1.5" fill="#016D71"/>
<rect x="169" y="247" width="11" height="3" rx="1.5" fill="#016D71"/>
<rect x="73" y="258" width="31" height="3" rx="1.5" fill="#016D71"/>
<rect x="118" y="258" width="11" height="3" rx="1.5" fill="#016D71"/>
<rect x="143" y="258" width="17" height="3" rx="1.5" fill="#016D71"/>
<rect x="73" y="269" width="31" height="3" rx="1.5" fill="#016D71"/>
<rect x="117" y="269" width="17" height="3" rx="1.5" fill="#016D71"/>
<rect x="147" y="269" width="17" height="3" rx="1.5" fill="#016D71"/>
<rect x="73" y="280" width="38" height="3" rx="1.5" fill="#016D71"/>
<rect x="119" y="280" width="12" height="3" rx="1.5" fill="#016D71"/>
<rect x="139" y="280" width="39" height="3" rx="1.5" fill="#016D71"/>
<rect x="73" y="291" width="47" height="3" rx="1.5" fill="#016D71"/>
<rect x="129" y="291" width="12" height="3" rx="1.5" fill="#016D71"/>
<rect x="150" y="291" width="22" height="3" rx="1.5" fill="#016D71"/>
<rect x="73" y="302" width="26" height="3" rx="1.5" fill="#016D71"/>
<rect x="108" y="302" width="11" height="3" rx="1.5" fill="#016D71"/>
<rect x="128" y="302" width="26" height="3" rx="1.5" fill="#016D71"/>
<rect x="163" y="302" width="12" height="3" rx="1.5" fill="#016D71"/>
<rect x="73" y="313" width="26" height="3" rx="1.5" fill="#016D71"/>
<rect x="107" y="313" width="11" height="3" rx="1.5" fill="#016D71"/>
<rect x="126" y="313" width="26" height="3" rx="1.5" fill="#016D71"/>
<rect x="61.5" y="136.5" width="159" height="194" rx="7.5" stroke="#163939" shape-rendering="crispEdges"/>
</g>
<path d="M210.533 368.078L171.351 542.438C171.146 543.351 170.335 544 169.4 544H106.601C105.288 544 104.331 542.755 104.668 541.486L170.483 293.945C170.768 292.873 171.871 292.238 172.942 292.53L290.149 324.495C291.183 324.777 292.256 324.193 292.581 323.171L332.407 197.866C332.736 196.829 333.835 196.246 334.878 196.554L409.012 218.414C410.098 218.734 411.234 218.09 411.515 216.993L439.512 107.903C439.783 106.846 439.158 105.768 438.106 105.478L386.277 91.1798C384.616 90.7216 384.273 88.5177 385.716 87.5766L495.183 16.1847C496.162 15.5465 497.477 15.8794 498.034 16.9064L558.92 129.165C559.736 130.669 558.409 132.437 556.737 132.073L493.922 118.418C492.855 118.186 491.8 118.852 491.55 119.915L449.491 298.91C449.226 300.04 448.058 300.707 446.95 300.362L360.969 273.613C359.892 273.277 358.75 273.9 358.448 274.987L324.542 397.047C324.244 398.122 323.125 398.744 322.055 398.432L213.045 366.597C211.937 366.274 210.786 366.952 210.533 368.078Z" fill="#4C8E6C"/>
<path d="M190.534 354.08L148.35 542.437C148.145 543.351 147.335 544 146.398 544H83.5944C82.2831 544 81.3265 542.759 81.6603 541.491L150.486 279.952C150.769 278.877 151.874 278.238 152.947 278.531L270.149 310.495C271.183 310.777 272.256 310.193 272.581 309.171L312.407 183.866C312.736 182.829 313.835 182.246 314.878 182.554L389.012 204.414C390.098 204.734 391.234 204.09 391.515 202.993L419.512 93.9028C419.783 92.8464 419.158 91.7676 418.106 91.4776L366.277 77.1798C364.616 76.7216 364.273 74.5177 365.716 73.5766L475.183 2.18474C476.162 1.54652 477.477 1.87944 478.034 2.90644L538.92 115.165C539.736 116.669 538.409 118.437 536.737 118.073L473.922 104.418C472.855 104.186 471.8 104.852 471.55 105.915L429.491 284.91C429.226 286.04 428.058 286.707 426.95 286.362L340.969 259.613C339.892 259.277 338.75 259.9 338.448 260.987L304.542 383.047C304.244 384.122 303.125 384.744 302.055 384.432L193.046 352.598C191.938 352.274 190.786 352.954 190.534 354.08Z" fill="#C3EFD8" stroke="#2B2B2B" stroke-width="2"/>
<g filter="url(#filter1_d_856_27322)">
<rect y="372" width="160" height="113" rx="8" fill="white" shape-rendering="crispEdges"/>
<rect x="0.5" y="372.5" width="159" height="112" rx="7.5" fill="white" stroke="#163939"/>
<path d="M8 372.5H152C156.142 372.5 159.5 375.858 159.5 380V391.5H0.5V380C0.5 375.858 3.85786 372.5 8 372.5Z" fill="#016D71" stroke="#163939"/>
<path fill-rule="evenodd" clip-rule="evenodd" d="M13 385C14.6569 385 16 383.657 16 382C16 380.343 14.6569 379 13 379C11.3431 379 10 380.343 10 382C10 383.657 11.3431 385 13 385ZM13 386C15.2091 386 17 384.209 17 382C17 379.791 15.2091 378 13 378C10.7909 378 9 379.791 9 382C9 384.209 10.7909 386 13 386ZM25 385C26.6569 385 28 383.657 28 382C28 380.343 26.6569 379 25 379C23.3431 379 22 380.343 22 382C22 383.657 23.3431 385 25 385ZM25 386C27.2091 386 29 384.209 29 382C29 379.791 27.2091 378 25 378C22.7909 378 21 379.791 21 382C21 384.209 22.7909 386 25 386ZM40 382C40 383.657 38.6569 385 37 385C35.3431 385 34 383.657 34 382C34 380.343 35.3431 379 37 379C38.6569 379 40 380.343 40 382ZM41 382C41 384.209 39.2091 386 37 386C34.7909 386 33 384.209 33 382C33 379.791 34.7909 378 37 378C39.2091 378 41 379.791 41 382Z" fill="white"/>
<circle cx="80" cy="435" r="22" stroke="#016D71" stroke-width="2"/>
<path d="M87.1708 434.434C87.7702 434.78 87.7702 435.645 87.1708 435.991L75.4933 442.733C74.8938 443.08 74.1445 442.647 74.1445 441.955L74.1445 428.471C74.1445 427.779 74.8938 427.346 75.4933 427.692L87.1708 434.434Z" fill="#016D71"/>
<path d="M87.1708 434.435C87.7702 434.781 87.7702 435.646 87.1708 435.992L75.4933 442.734C74.8938 443.08 74.1445 442.647 74.1445 441.955L74.1445 428.471C74.1445 427.779 74.8938 427.346 75.4933 427.693L87.1708 434.435Z" fill="white"/>
<rect x="0.5" y="372.5" width="159" height="112" rx="7.5" stroke="#163939" shape-rendering="crispEdges"/>
</g>
<defs>
<filter id="filter0_d_856_27322" x="61" y="136" width="168" height="203" filterUnits="userSpaceOnUse" color-interpolation-filters="sRGB">
<feFlood flood-opacity="0" result="BackgroundImageFix"/>
<feColorMatrix in="SourceAlpha" type="matrix" values="0 0 0 0 0 0 0 0 0 0 0 0 0 0 0 0 0 0 127 0" result="hardAlpha"/>
<feOffset dx="8" dy="8"/>
<feComposite in2="hardAlpha" operator="out"/>
<feColorMatrix type="matrix" values="0 0 0 0 0.0862745 0 0 0 0 0.223529 0 0 0 0 0.223529 0 0 0 1 0"/>
<feBlend mode="normal" in2="BackgroundImageFix" result="effect1_dropShadow_856_27322"/>
<feBlend mode="normal" in="SourceGraphic" in2="effect1_dropShadow_856_27322" result="shape"/>
</filter>
<filter id="filter1_d_856_27322" x="0" y="372" width="168" height="121" filterUnits="userSpaceOnUse" color-interpolation-filters="sRGB">
<feFlood flood-opacity="0" result="BackgroundImageFix"/>
<feColorMatrix in="SourceAlpha" type="matrix" values="0 0 0 0 0 0 0 0 0 0 0 0 0 0 0 0 0 0 127 0" result="hardAlpha"/>
<feOffset dx="8" dy="8"/>
<feComposite in2="hardAlpha" operator="out"/>
<feColorMatrix type="matrix" values="0 0 0 0 0.0862745 0 0 0 0 0.223529 0 0 0 0 0.223529 0 0 0 1 0"/>
<feBlend mode="normal" in2="BackgroundImageFix" result="effect1_dropShadow_856_27322"/>
<feBlend mode="normal" in="SourceGraphic" in2="effect1_dropShadow_856_27322" result="shape"/>
</filter>
</defs>
</svg>
