<svg width="844" height="671" viewBox="0 0 844 671" fill="none" xmlns="http://www.w3.org/2000/svg">
<rect x="82" y="100" width="1" height="528" fill="#5B91D0"/>
<rect x="126" y="100" width="1" height="528" fill="#5B91D0"/>
<rect x="170" y="100" width="1" height="528" fill="#5B91D0"/>
<rect x="214" y="100" width="1" height="528" fill="#5B91D0"/>
<rect x="258" y="100" width="1" height="528" fill="#5B91D0"/>
<rect x="302" y="100" width="1" height="528" fill="#5B91D0"/>
<rect x="346" y="100" width="1" height="528" fill="#5B91D0"/>
<rect x="390" y="100" width="1" height="528" fill="#5B91D0"/>
<rect x="434" y="100" width="1" height="528" fill="#5B91D0"/>
<rect x="478" y="100" width="1" height="528" fill="#5B91D0"/>
<rect x="522" y="100" width="1" height="528" fill="#5B91D0"/>
<rect x="566" y="100" width="1" height="528" fill="#5B91D0"/>
<rect x="610" y="100" width="1" height="528" fill="#5B91D0"/>
<rect x="654" y="100" width="1" height="528" fill="#5B91D0"/>
<rect x="698" y="100" width="1" height="528" fill="#5B91D0"/>
<rect x="742" y="100" width="1" height="528" fill="#5B91D0"/>
<rect x="82" y="100" width="661" height="1" fill="#5B91D0"/>
<rect x="82" y="144" width="661" height="1" fill="#5B91D0"/>
<rect x="82" y="188" width="661" height="1" fill="#5B91D0"/>
<rect x="82" y="232" width="661" height="1" fill="#5B91D0"/>
<rect x="82" y="276" width="661" height="1" fill="#5B91D0"/>
<rect x="82" y="320" width="661" height="1" fill="#5B91D0"/>
<rect x="82" y="364" width="661" height="1" fill="#5B91D0"/>
<rect x="82" y="408" width="661" height="1" fill="#5B91D0"/>
<rect x="82" y="452" width="661" height="1" fill="#5B91D0"/>
<rect x="82" y="496" width="661" height="1" fill="#5B91D0"/>
<rect x="82" y="540" width="661" height="1" fill="#5B91D0"/>
<rect x="82" y="584" width="661" height="1" fill="#5B91D0"/>
<rect x="82" y="628" width="661" height="1" fill="#5B91D0"/>
<path d="M206.47 550.132L144.341 666.259C143.494 667.843 141.152 667.594 140.655 665.869L111.719 565.232C111.562 564.686 111.645 564.099 111.947 563.617L179.418 455.977C179.978 455.085 181.134 454.779 182.061 455.279L239.569 486.253C240.52 486.765 241.706 486.43 242.248 485.495L310.207 368.203C310.753 367.261 311.953 366.928 312.906 367.456L369.239 398.628C370.204 399.162 371.42 398.814 371.955 397.849L506.628 155.276C507.194 154.256 508.509 153.935 509.481 154.579L563.785 190.531C564.724 191.152 565.99 190.877 566.586 189.921L632.401 84.3256C633.011 83.3482 632.671 82.0596 631.658 81.51L594.376 61.2671C592.846 60.4365 593.034 58.1837 594.68 57.618L711.684 17.4108C712.875 17.0015 714.143 17.7817 714.315 19.0294L730.972 139.974C731.196 141.605 729.463 142.794 728.022 141.997L688.553 120.156C687.601 119.629 686.404 119.959 685.856 120.899L590.295 284.849C589.747 285.788 588.55 286.118 587.599 285.592L532.619 255.168C531.66 254.637 530.453 254.977 529.912 255.93L395.229 492.923C394.692 493.867 393.499 494.211 392.543 493.696L337.87 464.287C336.913 463.772 335.721 464.115 335.184 465.06L269.574 580.473C269.033 581.426 267.826 581.765 266.867 581.235L209.202 549.325C208.226 548.785 206.996 549.148 206.47 550.132Z" fill="#2D60B7"/>
<path d="M194.458 534.511L132.33 650.639C131.483 652.222 129.14 651.974 128.644 650.248L99.7078 549.611C99.5508 549.065 99.6335 548.478 99.9353 547.996L167.407 440.357C167.966 439.464 169.122 439.159 170.05 439.658L227.558 470.632C228.509 471.145 229.695 470.809 230.237 469.874L298.196 352.583C298.742 351.64 299.942 351.308 300.895 351.835L357.227 383.007C358.193 383.542 359.408 383.193 359.944 382.228L494.617 139.655C495.183 138.636 496.497 138.315 497.469 138.958L551.773 174.91C552.712 175.532 553.979 175.256 554.575 174.3L620.39 68.705C620.999 67.7276 620.659 66.439 619.647 65.8894L582.364 45.6464C580.835 44.8159 581.022 42.5631 582.669 41.9974L699.672 1.79019C700.863 1.38089 702.132 2.16111 702.304 3.40876L718.96 124.353C719.185 125.985 717.451 127.173 716.01 126.376L676.541 104.535C675.59 104.009 674.392 104.339 673.845 105.278L578.283 269.228C577.736 270.167 576.538 270.497 575.587 269.971L520.607 239.547C519.649 239.017 518.442 239.356 517.9 240.309L383.217 477.302C382.681 478.247 381.488 478.59 380.531 478.075L325.858 448.666C324.902 448.152 323.709 448.495 323.172 449.439L257.563 564.853C257.021 565.805 255.814 566.145 254.856 565.614L197.19 533.704C196.214 533.164 194.985 533.527 194.458 534.511Z" fill="#D9FEFF" stroke="#2B2B2B" stroke-width="2"/>
<path d="M213.469 152.032C213.419 150.929 212.485 150.072 211.383 150.143C190.801 151.465 171.086 158.998 154.853 171.77C138.62 184.542 126.659 201.931 120.531 221.624C120.203 222.679 120.816 223.789 121.876 224.096L215.245 251.156C216.56 251.537 217.861 250.514 217.8 249.146L213.469 152.032Z" fill="#2D60B7"/>
<path d="M242.042 146.338C242.485 145.326 242.025 144.145 241.005 143.722C221.954 135.822 200.939 133.876 180.734 138.169C160.53 142.462 142.121 152.783 127.928 167.747C127.168 168.548 127.228 169.815 128.044 170.559L148.833 189.518C149.65 190.263 150.913 190.202 151.68 189.407C161.341 179.404 173.78 172.5 187.413 169.604C201.046 166.707 215.218 167.957 228.111 173.168C229.135 173.582 230.314 173.124 230.757 172.112L242.042 146.338Z" fill="#2D60B7"/>
<path d="M202.875 139.443C202.826 138.34 201.891 137.483 200.789 137.554C180.207 138.876 160.492 146.409 144.259 159.181C128.026 171.954 116.065 189.343 109.937 209.035C109.609 210.09 110.222 211.2 111.283 211.507L204.651 238.567C205.966 238.949 207.267 237.925 207.206 236.557L202.875 139.443Z" fill="#D9FEFF" stroke="#2B2B2B" stroke-width="2"/>
<mask id="path-35-inside-1_863_27770" fill="white">
<path d="M242.845 134.497C223.312 125.945 201.591 123.729 180.734 128.16C159.877 132.592 140.934 143.448 126.566 159.203L150.311 180.857C160.152 170.066 173.127 162.63 187.413 159.595C201.699 156.56 216.576 158.078 229.955 163.935L242.845 134.497Z"/>
</mask>
<path d="M242.845 134.497C223.312 125.945 201.591 123.729 180.734 128.16C159.877 132.592 140.934 143.448 126.566 159.203L150.311 180.857C160.152 170.066 173.127 162.63 187.413 159.595C201.699 156.56 216.576 158.078 229.955 163.935L242.845 134.497Z" fill="#5CE1E6" stroke="#2B2B2B" stroke-width="4" mask="url(#path-35-inside-1_863_27770)"/>
<rect x="682" y="343" width="38" height="317" rx="2" fill="#D9FEFF" stroke="#2B2B2B" stroke-width="2"/>
<rect x="625" y="391" width="38" height="269" rx="2" fill="#D9FEFF" stroke="#2B2B2B" stroke-width="2"/>
<rect x="574" y="494" width="38" height="166" rx="2" fill="#D9FEFF" stroke="#2B2B2B" stroke-width="2"/>
<rect x="523" y="562" width="38" height="98" rx="2" fill="#D9FEFF" stroke="#2B2B2B" stroke-width="2"/>
<path d="M74 80C74 81.6569 72.6569 83 71 83C69.3431 83 68 81.6569 68 80C68 78.3431 69.3431 77 71 77C72.6569 77 74 78.3431 74 80Z" fill="#D9FEFF"/>
<path d="M129 276C129 277.657 127.657 279 126 279C124.343 279 123 277.657 123 276C123 274.343 124.343 273 126 273C127.657 273 129 274.343 129 276Z" fill="#D9FEFF"/>
<path d="M85 453C85 454.657 83.6569 456 82 456C80.3431 456 79 454.657 79 453C79 451.343 80.3431 450 82 450C83.6569 450 85 451.343 85 453Z" fill="#D9FEFF"/>
<path d="M613 188C613 189.657 611.657 191 610 191C608.343 191 607 189.657 607 188C607 186.343 608.343 185 610 185C611.657 185 613 186.343 613 188Z" fill="#D9FEFF"/>
<path d="M482 101C482 102.657 480.657 104 479 104C477.343 104 476 102.657 476 101C476 99.3431 477.343 98 479 98C480.657 98 482 99.3431 482 101Z" fill="#D9FEFF"/>
<path d="M637 232C637 233.657 635.657 235 634 235C632.343 235 631 233.657 631 232C631 230.343 632.343 229 634 229C635.657 229 637 230.343 637 232Z" fill="#D9FEFF"/>
<path d="M613 336C613 337.657 611.657 339 610 339C608.343 339 607 337.657 607 336C607 334.343 608.343 333 610 333C611.657 333 613 334.343 613 336Z" fill="#D9FEFF"/>
<path d="M234 189C234 190.657 232.657 192 231 192C229.343 192 228 190.657 228 189C228 187.343 229.343 186 231 186C232.657 186 234 187.343 234 189Z" fill="#D9FEFF"/>
<path d="M306 144C306 145.657 304.657 147 303 147C301.343 147 300 145.657 300 144C300 142.343 301.343 141 303 141C304.657 141 306 142.343 306 144Z" fill="#D9FEFF"/>
<path d="M130 100C130 101.657 128.657 103 127 103C125.343 103 124 101.657 124 100C124 98.3431 125.343 97 127 97C128.657 97 130 98.3431 130 100Z" fill="#D9FEFF"/>
</svg>
