<svg width="656" height="572" viewBox="0 0 656 572" fill="none" xmlns="http://www.w3.org/2000/svg">
<ellipse cx="189.811" cy="148.265" rx="2.23333" ry="2.23485" fill="#D9FEFF"/>
<ellipse cx="198.745" cy="49.187" rx="2.23333" ry="2.23485" fill="#D9FEFF"/>
<ellipse cx="97.4999" cy="35.7778" rx="2.23333" ry="2.23485" fill="#B6F8FF"/>
<ellipse cx="165.989" cy="97.6089" rx="2.23333" ry="2.23485" fill="#B6F8FF"/>
<ellipse cx="90.0556" cy="228.72" rx="2.23333" ry="2.23484" fill="#B6F8FF"/>
<ellipse cx="40.9221" cy="368.025" rx="2.23333" ry="2.23485" fill="#D9FEFF"/>
<ellipse cx="2.9555" cy="441.03" rx="2.23333" ry="2.23486" fill="#B6F8FF"/>
<ellipse cx="30.5002" cy="569.162" rx="2.23333" ry="2.23484" fill="#B6F8FF"/>
<ellipse cx="431.011" cy="219.036" rx="2.23333" ry="2.23484" fill="#F92684"/>
<ellipse cx="431.011" cy="219.036" rx="2.23333" ry="2.23484" fill="black" fill-opacity="0.2"/>
<ellipse cx="362.522" cy="70.0454" rx="2.23333" ry="2.23485" fill="#D9FEFF"/>
<ellipse cx="514.389" cy="335.993" rx="2.23333" ry="2.23484" fill="#D9FEFF"/>
<ellipse cx="429.522" cy="2.25487" rx="2.23333" ry="2.23485" fill="#D9FEFF"/>
<ellipse cx="273.189" cy="23.8584" rx="2.23333" ry="2.23485" fill="#D9FEFF"/>
<ellipse cx="653.6" cy="318.114" rx="2.23333" ry="2.23485" fill="#D9FEFF"/>
<ellipse cx="586.6" cy="160.929" rx="2.23333" ry="2.23485" fill="#D9FEFF"/>
<ellipse cx="107.922" cy="157.949" rx="2.23333" ry="2.23485" fill="#D9FEFF"/>
<ellipse cx="55.0668" cy="144.541" rx="2.23333" ry="2.23485" fill="#D9FEFF"/>
<path d="M497.267 76.0049C497.267 77.2391 496.267 78.2397 495.033 78.2397C493.8 78.2397 492.8 77.2391 492.8 76.0049C492.8 74.7706 493.8 73.77 495.033 73.77C496.267 73.77 497.267 74.7706 497.267 76.0049Z" fill="#D9FEFF"/>
<ellipse cx="575.433" cy="407.507" rx="2.23333" ry="2.23485" fill="#D9FEFF"/>
<ellipse cx="524.811" cy="525.955" rx="2.23333" ry="2.23484" fill="#B6F8FF"/>
<ellipse cx="114.622" cy="105.803" rx="2.23333" ry="2.23485" fill="#B6F8FF"/>
</svg>
