<svg width="720" height="792" viewBox="0 0 720 792" fill="none" xmlns="http://www.w3.org/2000/svg">
<rect x="29" y="80" width="661" height="1" fill="#73BA95"/>
<rect x="29" y="124" width="661" height="1" fill="#73BA95"/>
<rect x="29" y="168" width="661" height="1" fill="#73BA95"/>
<rect x="29" y="212" width="661" height="1" fill="#73BA95"/>
<rect x="29" y="256" width="661" height="1" fill="#73BA95"/>
<rect x="29" y="300" width="661" height="1" fill="#73BA95"/>
<rect x="29" y="344" width="661" height="1" fill="#73BA95"/>
<rect x="29" y="388" width="661" height="1" fill="#73BA95"/>
<rect x="29" y="432" width="661" height="1" fill="#73BA95"/>
<rect x="29" y="476" width="661" height="1" fill="#73BA95"/>
<rect x="29" y="520" width="661" height="1" fill="#73BA95"/>
<rect x="29" y="564" width="661" height="1" fill="#73BA95"/>
<rect x="29" y="608" width="661" height="1" fill="#73BA95"/>
<g style="mix-blend-mode:multiply">
<path d="M119.97 458.986L222.595 669.122C223.243 670.451 222.276 672 220.798 672H163.222C162.472 672 161.785 671.58 161.442 670.913L43.9807 441.912C43.4508 440.879 43.909 439.613 44.9773 439.159L222.124 363.798C223.154 363.36 223.624 362.161 223.166 361.14L172.852 248.9C172.387 247.864 172.878 246.648 173.933 246.226L582.162 82.7361C583.18 82.3284 583.68 81.1768 583.282 80.1546L571.659 50.2657C571.026 48.6395 572.634 47.0398 574.257 47.6805L644.191 75.2861C645.198 75.6836 645.706 76.8102 645.337 77.828L618.677 151.373C618.066 153.06 615.713 153.15 614.974 151.515L603.789 126.746C603.348 125.77 602.216 125.315 601.221 125.713L251.002 266.197C249.922 266.63 249.438 267.891 249.952 268.936L307.022 385.012C307.545 386.075 307.034 387.358 305.922 387.77L121.072 456.233C119.963 456.643 119.451 457.922 119.97 458.986Z" fill="#C9EAD9"/>
</g>
<path d="M104.97 447.986L207.595 658.122C208.243 659.451 207.276 661 205.798 661H148.222C147.472 661 146.785 660.58 146.442 659.913L28.9807 430.912C28.4508 429.879 28.909 428.613 29.9773 428.159L207.124 352.798C208.154 352.36 208.624 351.161 208.166 350.14L157.852 237.9C157.387 236.864 157.878 235.648 158.933 235.226L567.162 71.7361C568.18 71.3284 568.68 70.1768 568.282 69.1546L556.659 39.2657C556.026 37.6395 557.634 36.0398 559.257 36.6805L629.191 64.2861C630.198 64.6836 630.706 65.8102 630.337 66.828L603.677 140.373C603.066 142.06 600.713 142.15 599.974 140.515L588.789 115.746C588.348 114.77 587.216 114.315 586.221 114.713L236.002 255.197C234.922 255.63 234.438 256.891 234.952 257.936L292.022 374.012C292.545 375.075 292.034 376.358 290.922 376.77L106.072 445.233C104.963 445.643 104.451 446.922 104.97 447.986Z" fill="#57FFA8" stroke="#2B2B2B" stroke-width="2"/>
<g filter="url(#filter0_d_247_20133)">
<rect x="232" y="161" width="399" height="316" rx="16" fill="white"/>
<rect x="232.5" y="161.5" width="398" height="315" rx="15.5" stroke="#163939"/>
</g>
<path d="M232.5 177C232.5 168.44 239.44 161.5 248 161.5H615C623.56 161.5 630.5 168.44 630.5 177V204.5H232.5V177Z" fill="#016D71" stroke="#163939"/>
<path d="M613.5 189L600.5 176" stroke="white" stroke-width="2"/>
<path d="M600.5 189L613.5 176" stroke="white" stroke-width="2"/>
<rect x="581" y="176" width="13" height="13" stroke="white" stroke-width="2"/>
<path d="M571.5 189H557" stroke="white" stroke-width="2"/>
<g filter="url(#filter1_d_247_20133)">
<path d="M106 117C106 112.582 109.582 109 114 109H258C262.418 109 266 112.582 266 117V205C266 209.418 262.418 213 258 213H114C109.582 213 106 209.418 106 205V117Z" fill="white" shape-rendering="crispEdges"/>
<rect x="106.5" y="109.5" width="159" height="103" rx="7.5" fill="white" stroke="#163939"/>
<path d="M106.5 117C106.5 112.858 109.858 109.5 114 109.5H258C262.142 109.5 265.5 112.858 265.5 117V128.5H106.5V117Z" fill="#016D71" stroke="#163939"/>
<circle cx="119" cy="119" r="3.5" stroke="white"/>
<circle cx="131" cy="119" r="3.5" stroke="white"/>
<circle cx="143" cy="119" r="3.5" stroke="white"/>
<path d="M114 110H258V108H114V110ZM265 117V205H267V117H265ZM258 212H114V214H258V212ZM107 205V117H105V205H107ZM114 212C110.134 212 107 208.866 107 205H105C105 209.971 109.029 214 114 214V212ZM265 205C265 208.866 261.866 212 258 212V214C262.971 214 267 209.971 267 205H265ZM258 110C261.866 110 265 113.134 265 117H267C267 112.029 262.971 108 258 108V110ZM114 108C109.029 108 105 112.029 105 117H107C107 113.134 110.134 110 114 110V108Z" fill="#163939"/>
</g>
<g style="mix-blend-mode:multiply">
<path d="M138.469 177.032C138.419 175.928 137.485 175.071 136.383 175.142C115.801 176.465 96.0858 183.998 79.8527 196.77C63.6196 209.542 51.6592 226.931 45.531 246.623C45.2028 247.678 45.8156 248.788 46.8765 249.096L140.245 276.156C141.56 276.537 142.861 275.514 142.8 274.146L138.469 177.032Z" fill="#C9EAD9"/>
</g>
<g style="mix-blend-mode:multiply">
<path d="M639.871 332.776C640.862 332.289 641.273 331.09 640.767 330.108C631.314 311.778 616.516 296.729 598.313 286.968C580.109 277.208 559.386 273.211 538.887 275.481C537.789 275.603 537.017 276.609 537.161 277.704L539.864 298.402C540.007 299.497 541.011 300.266 542.11 300.151C557.451 298.551 572.938 301.586 586.559 308.89C600.18 316.193 611.278 327.412 618.435 341.076C618.948 342.055 620.144 342.465 621.135 341.978L639.871 332.776Z" fill="#C9EAD9"/>
</g>
<g style="mix-blend-mode:multiply">
<path d="M167.042 171.338C167.485 170.326 167.025 169.145 166.005 168.722C146.954 160.821 125.939 158.876 105.734 163.168C85.53 167.461 67.121 177.783 52.928 192.747C52.1678 193.548 52.2275 194.814 53.0437 195.559L73.8334 214.518C74.6495 215.262 75.9126 215.201 76.68 214.407C86.3409 204.404 98.7803 197.5 112.413 194.603C126.046 191.707 140.218 192.957 153.111 198.168C154.135 198.582 155.314 198.124 155.757 197.112L167.042 171.338Z" fill="#C9EAD9"/>
</g>
<g style="mix-blend-mode:multiply">
<path d="M674.062 360.742C675.166 360.743 676.065 359.848 676.044 358.744C675.655 338.124 669.022 318.088 656.998 301.293C644.974 284.498 628.145 271.762 608.75 264.749C607.711 264.373 606.574 264.935 606.219 265.981L597.171 292.623C596.816 293.669 597.377 294.802 598.413 295.187C611.447 300.034 622.755 308.668 630.868 320C638.981 331.332 643.511 344.819 643.898 358.72C643.929 359.825 644.821 360.721 645.925 360.722L674.062 360.742Z" fill="#C9EAD9"/>
</g>
<path d="M127.875 164.443C127.826 163.339 126.891 162.483 125.789 162.553C105.207 163.876 85.4921 171.409 69.259 184.181C53.0258 196.953 41.0654 214.342 34.9373 234.035C34.6091 235.089 35.2218 236.199 36.2827 236.507L129.651 263.567C130.966 263.948 132.267 262.925 132.206 261.557L127.875 164.443Z" fill="#D9FEFF" stroke="#2B2B2B" stroke-width="2"/>
<path d="M647.164 318.028C648.155 317.541 648.566 316.341 648.06 315.359C638.607 297.03 623.809 281.98 605.606 272.22C587.402 262.459 566.679 258.463 546.18 260.733C545.082 260.854 544.31 261.86 544.453 262.955L548.078 290.702C548.221 291.797 549.225 292.566 550.324 292.454C564.191 291.044 578.181 293.805 590.493 300.406C602.804 307.007 612.845 317.132 619.345 329.463C619.86 330.44 621.056 330.851 622.048 330.364L647.164 318.028Z" fill="#D9FEFF" stroke="#2B2B2B" stroke-width="2"/>
<mask id="path-36-inside-1_247_20133" fill="white">
<path d="M167.845 159.497C148.312 150.945 126.591 148.728 105.734 153.16C84.8773 157.591 65.9336 168.447 51.5659 184.202L75.3112 205.857C85.1521 195.065 98.1274 187.63 112.413 184.594C126.699 181.559 141.576 183.077 154.955 188.935L167.845 159.497Z"/>
</mask>
<path d="M167.845 159.497C148.312 150.945 126.591 148.728 105.734 153.16C84.8773 157.591 65.9336 168.447 51.5659 184.202L75.3112 205.857C85.1521 195.065 98.1274 187.63 112.413 184.594C126.699 181.559 141.576 183.077 154.955 188.935L167.845 159.497Z" fill="#57FFA8" stroke="#2B2B2B" stroke-width="4" mask="url(#path-36-inside-1_247_20133)"/>
<mask id="path-37-inside-2_247_20133" fill="white">
<path d="M684.317 357.136C684.332 335.814 677.665 315.023 665.253 297.685C652.841 280.348 635.307 267.336 615.117 260.48L604.783 290.909C618.612 295.606 630.621 304.518 639.123 316.393C647.625 328.268 652.191 342.508 652.18 357.113L684.317 357.136Z"/>
</mask>
<path d="M684.317 357.136C684.332 335.814 677.665 315.023 665.253 297.685C652.841 280.348 635.307 267.336 615.117 260.48L604.783 290.909C618.612 295.606 630.621 304.518 639.123 316.393C647.625 328.268 652.191 342.508 652.18 357.113L684.317 357.136Z" fill="#57FFA8" stroke="#2B2B2B" stroke-width="4" mask="url(#path-37-inside-2_247_20133)"/>
<path d="M465 80C465 81.6569 463.657 83 462 83C460.343 83 459 81.6569 459 80C459 78.3431 460.343 77 462 77C463.657 77 465 78.3431 465 80Z" fill="#D9FEFF"/>
<path d="M680 169C680 170.657 678.657 172 677 172C675.343 172 674 170.657 674 169C674 167.343 675.343 166 677 166C678.657 166 680 167.343 680 169Z" fill="#D9FEFF"/>
<path d="M62 344C62 345.657 60.6569 347 59 347C57.3431 347 56 345.657 56 344C56 342.343 57.3431 341 59 341C60.6569 341 62 342.343 62 344Z" fill="#D9FEFF"/>
<path d="M258 564C258 565.657 256.657 567 255 567C253.343 567 252 565.657 252 564C252 562.343 253.343 561 255 561C256.657 561 258 562.343 258 564Z" fill="#D9FEFF"/>
<path d="M49 609C49 610.657 47.6569 612 46 612C44.3431 612 43 610.657 43 609C43 607.343 44.3431 606 46 606C47.6569 606 49 607.343 49 609Z" fill="#D9FEFF"/>
<path d="M216 733C216 734.657 214.657 736 213 736C211.343 736 210 734.657 210 733C210 731.343 211.343 730 213 730C214.657 730 216 731.343 216 733Z" fill="#D9FEFF"/>
<path d="M73 751C73 752.657 71.6569 754 70 754C68.3431 754 67 752.657 67 751C67 749.343 68.3431 748 70 748C71.6569 748 73 749.343 73 751Z" fill="#D9FEFF"/>
<path d="M673 366C673 367.657 671.657 369 670 369C668.343 369 667 367.657 667 366C667 364.343 668.343 363 670 363C671.657 363 673 364.343 673 366Z" fill="#D9FEFF"/>
<path d="M661 102C661 103.657 659.657 105 658 105C656.343 105 655 103.657 655 102C655 100.343 656.343 99 658 99C659.657 99 661 100.343 661 102Z" fill="#D9FEFF"/>
<path d="M323 124C323 125.657 321.657 127 320 127C318.343 127 317 125.657 317 124C317 122.343 318.343 121 320 121C321.657 121 323 122.343 323 124Z" fill="#D9FEFF"/>
<defs>
<filter id="filter0_d_247_20133" x="232" y="161" width="407" height="324" filterUnits="userSpaceOnUse" color-interpolation-filters="sRGB">
<feFlood flood-opacity="0" result="BackgroundImageFix"/>
<feColorMatrix in="SourceAlpha" type="matrix" values="0 0 0 0 0 0 0 0 0 0 0 0 0 0 0 0 0 0 127 0" result="hardAlpha"/>
<feOffset dx="8" dy="8"/>
<feComposite in2="hardAlpha" operator="out"/>
<feColorMatrix type="matrix" values="0 0 0 0 0.0862745 0 0 0 0 0.223529 0 0 0 0 0.223529 0 0 0 1 0"/>
<feBlend mode="normal" in2="BackgroundImageFix" result="effect1_dropShadow_247_20133"/>
<feBlend mode="normal" in="SourceGraphic" in2="effect1_dropShadow_247_20133" result="shape"/>
</filter>
<filter id="filter1_d_247_20133" x="106" y="109" width="168" height="112" filterUnits="userSpaceOnUse" color-interpolation-filters="sRGB">
<feFlood flood-opacity="0" result="BackgroundImageFix"/>
<feColorMatrix in="SourceAlpha" type="matrix" values="0 0 0 0 0 0 0 0 0 0 0 0 0 0 0 0 0 0 127 0" result="hardAlpha"/>
<feOffset dx="8" dy="8"/>
<feComposite in2="hardAlpha" operator="out"/>
<feColorMatrix type="matrix" values="0 0 0 0 0.0862745 0 0 0 0 0.223529 0 0 0 0 0.223529 0 0 0 1 0"/>
<feBlend mode="normal" in2="BackgroundImageFix" result="effect1_dropShadow_247_20133"/>
<feBlend mode="normal" in="SourceGraphic" in2="effect1_dropShadow_247_20133" result="shape"/>
</filter>
</defs>
</svg>
