<svg width="1920" height="1183" viewBox="0 0 1920 1183" fill="none" xmlns="http://www.w3.org/2000/svg">
<g opacity="0.2" filter="url(#filter0_f_207_3809)">
<path d="M-298 1112.47C-267.201 1144.17 -288.249 1120.73 -263.488 1146.01C-260.087 1149.48 -256.152 1152.43 -251.845 1154.68L-240.045 1160.85C-220.241 1171.21 -195.932 1160.63 -190.017 1139.08L-186.877 1127.64C-181.311 1107.36 -156.161 1100.29 -140.849 1114.71V1114.71C-128.61 1126.23 -109.038 1124.39 -99.1565 1110.79L-89.3901 1097.36C-82.6812 1088.13 -72.5443 1081.98 -61.2578 1080.3L-49.0426 1078.48C-29.8859 1075.62 -12.6885 1065.16 -1.33743 1049.47L33.807 1000.88C44.1621 986.565 58.5869 975.697 75.2041 969.692L86.58 965.582C105.065 958.902 120.057 945.022 128.14 927.106L133.825 914.503C145.582 888.44 174.845 875.137 202.214 883.414L206.964 884.851C217.392 888.005 226.28 894.912 231.911 904.238L236.879 912.465C244.6 925.254 260.144 930.996 274.324 926.298L283.785 923.165C290.52 920.934 297.934 923.038 302.493 928.475V928.475C311.68 939.429 329.433 935.157 332.631 921.223L347.682 855.647C352.796 833.366 383.361 830.488 392.544 851.422V851.422C400.893 870.456 427.941 870.322 436.101 851.207L441.589 838.354C449.157 820.626 471.317 814.65 486.772 826.169L520.732 851.479C525.697 855.179 531.178 858.128 537.001 860.232L553.149 866.067C558.3 867.928 562.643 871.524 565.434 876.238V876.238C575.612 893.431 601.219 890.98 607.95 872.168L627.573 817.325C634.143 798.962 652.775 787.804 672.064 790.679V790.679C688.22 793.087 704.257 785.641 712.844 771.746L781.866 660.044C795.232 638.414 818.886 625.247 844.313 625.247V625.247C850.875 625.247 857.417 624.362 863.742 622.616V622.616C890.817 615.143 919.777 623.869 938.216 645.055L985.152 698.983C997.192 712.817 1013.57 722.157 1031.61 725.476L1054.8 729.743C1072.8 733.056 1091.03 725.261 1101.07 709.96L1111.6 693.907C1121.03 679.544 1140.91 676.697 1153.99 687.837V687.837C1164.09 696.436 1178.78 696.952 1189.45 689.082L1342.13 576.521C1351.71 569.453 1359.77 560.512 1365.79 550.24L1433 435.761C1437.9 427.415 1441.39 418.317 1443.32 408.835L1478.36 237.458C1478.97 234.46 1479.85 231.523 1480.99 228.685L1484.65 219.61C1491.88 201.637 1511.14 191.628 1530.01 196.039V196.039C1541.44 198.712 1553.47 196.13 1562.79 189.001L1574.68 179.918C1582.76 173.739 1589.42 165.893 1594.2 156.914L1610.89 125.585C1612.86 121.894 1615.37 118.519 1618.33 115.572L1624.1 109.841C1643.07 90.9923 1675.18 98.1358 1684.37 123.247V123.247C1687.13 130.791 1692.3 137.22 1699.07 141.545L1766.51 184.626C1770.3 187.05 1773.15 190.701 1774.58 194.97L1774.86 195.809C1779.95 210.977 1800.24 213.704 1809.15 200.418V200.418C1817.72 187.64 1837.08 189.563 1842.97 203.779L1867.22 262.306C1869.76 268.432 1873.49 273.994 1878.19 278.668V278.668C1899.73 300.073 1935.21 297.55 1953.5 273.311L1993.78 219.94C2007.9 201.243 2032.67 194.129 2054.55 202.492V202.492C2078.22 211.536 2104.96 202.432 2118.19 180.831L2137.24 149.737L2215 16" stroke="url(#paint0_linear_207_3809)" stroke-width="7"/>
</g>
<path d="M-302 1104.47C-271.201 1136.17 -292.249 1112.73 -267.488 1138.01C-264.087 1141.48 -260.152 1144.43 -255.845 1146.68L-244.045 1152.85C-224.241 1163.21 -199.932 1152.63 -194.017 1131.08L-190.877 1119.64C-185.311 1099.36 -160.161 1092.29 -144.849 1106.71V1106.71C-132.61 1118.23 -113.038 1116.39 -103.157 1102.79L-93.3901 1089.36C-86.6812 1080.13 -76.5443 1073.98 -65.2578 1072.3L-53.0426 1070.48C-33.8859 1067.62 -16.6885 1057.16 -5.33743 1041.47L29.807 992.881C40.1621 978.565 54.5869 967.697 71.2041 961.692L82.58 957.582C101.065 950.902 116.057 937.022 124.14 919.106L129.825 906.503C141.582 880.44 170.845 867.137 198.214 875.414L202.964 876.851C213.392 880.005 222.28 886.912 227.911 896.238L232.879 904.465C240.6 917.254 256.144 922.996 270.324 918.298L279.785 915.165C286.52 912.934 293.934 915.038 298.493 920.475V920.475C307.68 931.429 325.433 927.157 328.631 913.223L343.682 847.647C348.796 825.366 379.361 822.488 388.544 843.422V843.422C396.893 862.456 423.941 862.322 432.101 843.207L437.589 830.354C445.157 812.626 467.317 806.65 482.772 818.169L516.732 843.479C521.697 847.179 527.178 850.128 533.001 852.232L549.149 858.067C554.3 859.928 558.643 863.524 561.434 868.238V868.238C571.612 885.431 597.219 882.98 603.95 864.168L623.573 809.325C630.143 790.962 648.775 779.804 668.064 782.679V782.679C684.22 785.087 700.257 777.641 708.844 763.746L777.866 652.044C791.232 630.414 814.886 617.247 840.313 617.247V617.247C846.875 617.247 853.417 616.362 859.742 614.616V614.616C886.817 607.143 915.777 615.869 934.216 637.055L981.152 690.983C993.192 704.817 1009.57 714.157 1027.61 717.476L1050.8 721.743C1068.8 725.056 1087.03 717.261 1097.07 701.96L1107.6 685.907C1117.03 671.544 1136.91 668.697 1149.99 679.837V679.837C1160.09 688.436 1174.78 688.952 1185.45 681.082L1338.13 568.521C1347.71 561.453 1355.77 552.512 1361.79 542.24L1429 427.761C1433.9 419.415 1437.39 410.317 1439.32 400.835L1474.36 229.458C1474.97 226.46 1475.85 223.523 1476.99 220.685L1480.65 211.61C1487.88 193.637 1507.14 183.628 1526.01 188.039V188.039C1537.44 190.712 1549.47 188.13 1558.79 181.001L1570.68 171.918C1578.76 165.739 1585.42 157.893 1590.2 148.914L1606.89 117.585C1608.86 113.894 1611.37 110.519 1614.33 107.572L1620.1 101.841C1639.07 82.9923 1671.18 90.1358 1680.37 115.247V115.247C1683.13 122.791 1688.3 129.22 1695.07 133.545L1762.51 176.626C1766.3 179.05 1769.15 182.701 1770.58 186.97L1770.86 187.809C1775.95 202.977 1796.24 205.704 1805.15 192.418V192.418C1813.72 179.64 1833.08 181.563 1838.97 195.779L1863.22 254.306C1865.76 260.432 1869.49 265.994 1874.19 270.668V270.668C1895.73 292.073 1931.21 289.55 1949.5 265.311L1989.78 211.94C2003.9 193.243 2028.67 186.129 2050.55 194.492V194.492C2074.22 203.536 2100.96 194.432 2114.19 172.831L2133.24 141.737L2211 8" stroke="url(#paint1_linear_207_3809)" stroke-width="7"/>
<defs>
<filter id="filter0_f_207_3809" x="-314.51" y="0.240723" width="2546.54" height="1182.12" filterUnits="userSpaceOnUse" color-interpolation-filters="sRGB">
<feFlood flood-opacity="0" result="BackgroundImageFix"/>
<feBlend mode="normal" in="SourceGraphic" in2="BackgroundImageFix" result="shape"/>
<feGaussianBlur stdDeviation="7" result="effect1_foregroundBlur_207_3809"/>
</filter>
<linearGradient id="paint0_linear_207_3809" x1="958.5" y1="16" x2="958.5" y2="1181" gradientUnits="userSpaceOnUse">
<stop stop-color="#5CE1E6"/>
<stop offset="1" stop-color="#00C2C9" stop-opacity="0"/>
</linearGradient>
<linearGradient id="paint1_linear_207_3809" x1="954.5" y1="8" x2="954.5" y2="1173" gradientUnits="userSpaceOnUse">
<stop stop-color="#6CFAFF"/>
<stop offset="1" stop-color="#009BA0"/>
</linearGradient>
</defs>
</svg>
