<svg width="237" height="485" viewBox="0 0 237 485" fill="none" xmlns="http://www.w3.org/2000/svg">
<path d="M86.7435 485H26.7805H18.7273C17.376 485 16.4136 483.688 16.8197 482.399L130.755 120.865C131.085 119.818 130.508 118.7 129.463 118.361L91.7829 106.168C90.2635 105.677 89.9048 103.69 91.1563 102.698L196.903 18.8746C198.025 17.9852 199.691 18.5285 200.073 19.9084L235.991 149.677C236.42 151.225 234.941 152.621 233.42 152.104L194.761 138.96C193.689 138.596 192.529 139.193 192.202 140.276L88.6583 483.578C88.4036 484.422 87.6256 485 86.7435 485Z" fill="#163939"/>
<path d="M71.7435 468H11.7805H3.72725C2.37596 468 1.41357 466.688 1.81973 465.399L115.755 103.865C116.085 102.818 115.508 101.7 114.463 101.361L76.7829 89.1683C75.2635 88.6766 74.9048 86.6902 76.1563 85.6981L181.903 1.87461C183.025 0.98517 184.691 1.52846 185.073 2.9084L220.991 132.677C221.42 134.225 219.941 135.621 218.42 135.104L179.761 121.96C178.689 121.596 177.529 122.193 177.202 123.276L73.6583 466.578C73.4036 467.422 72.6256 468 71.7435 468Z" fill="#D9FEFF" stroke="#2B2B2B" stroke-width="2"/>
</svg>
