<svg width="18" height="13" viewBox="0 0 18 13" fill="none" xmlns="http://www.w3.org/2000/svg">
<g clip-path="url(#clip0_2734_2220)">
<path d="M17.3 1.75V2.98L8.53 6.47L8.33 6.59L8.2 6.54L8.06 6.59L7.97 6.47L0 3.28V1.75C0 0.87 0.88 0 1.76 0H15.43C16.31 0 17.3 0.87 17.3 1.75ZM8.41 8.29L8.25 8.24L8.11 8.29L7.97 8.17L0 4.98V10.97C0 11.85 0.88 12.64 1.76 12.64H15.43C16.31 12.64 17.3 11.85 17.3 10.97V4.68L8.53 8.17L8.41 8.29Z" fill="#2B2E33"/>
</g>
<defs>
<clipPath id="clip0_2734_2220">
<rect width="17.3" height="12.63" fill="white"/>
</clipPath>
</defs>
</svg>
