<svg width="734" height="1594" viewBox="0 0 734 1594" fill="none" xmlns="http://www.w3.org/2000/svg">
<path d="M403.975 1.12927L1.48284 1505.07" stroke="#5994E4" stroke-width="2"/>
<path d="M420.397 5.52417L17.9052 1509.47" stroke="#5994E4" stroke-width="2"/>
<path d="M436.819 9.91919L34.3271 1513.86" stroke="#5994E4" stroke-width="2"/>
<path d="M453.241 14.3141L50.749 1518.26" stroke="#5994E4" stroke-width="2"/>
<path d="M469.664 18.7091L67.1713 1522.65" stroke="#5994E4" stroke-width="2"/>
<path d="M486.085 23.104L83.5932 1527.05" stroke="#5994E4" stroke-width="2"/>
<path d="M502.508 27.499L100.016 1531.44" stroke="#5994E4" stroke-width="2"/>
<path d="M518.93 31.8939L116.437 1535.84" stroke="#5994E4" stroke-width="2"/>
<path d="M535.352 36.2889L132.859 1540.23" stroke="#5994E4" stroke-width="2"/>
<path d="M551.774 40.6838L149.282 1544.63" stroke="#5994E4" stroke-width="2"/>
<path d="M568.196 45.0787L165.704 1549.02" stroke="#5994E4" stroke-width="2"/>
<path d="M584.618 49.4738L182.126 1553.42" stroke="#5994E4" stroke-width="2"/>
<path d="M601.04 53.8687L198.548 1557.81" stroke="#5994E4" stroke-width="2"/>
<path d="M617.462 58.2637L214.97 1562.21" stroke="#5994E4" stroke-width="2"/>
<path d="M633.884 62.6586L231.392 1566.6" stroke="#5994E4" stroke-width="2"/>
<path d="M650.306 67.0536L247.814 1571" stroke="#5994E4" stroke-width="2"/>
<path d="M666.729 71.4485L264.236 1575.39" stroke="#5994E4" stroke-width="2"/>
<path d="M683.15 75.8435L280.658 1579.79" stroke="#5994E4" stroke-width="2"/>
<path d="M699.572 80.2384L297.08 1584.18" stroke="#5994E4" stroke-width="2"/>
<path d="M715.995 84.6333L313.502 1588.58" stroke="#5994E4" stroke-width="2"/>
<path d="M732.417 89.0283L329.924 1592.97" stroke="#5994E4" stroke-width="2"/>
</svg>
