<svg width="24" height="24" viewBox="0 0 24 24" fill="none" xmlns="http://www.w3.org/2000/svg">
<path fill-rule="evenodd" clip-rule="evenodd" d="M20 11C20.5523 11 21 11.4477 21 12C21 12.5523 20.5523 13 20 13L6.49225 13L9.71552 16.3014C10.1013 16.6966 10.0938 17.3297 9.69859 17.7155C9.30342 18.1013 8.6703 18.0938 8.28448 17.6986L3.28448 12.5774C3.09916 12.3876 2.99686 12.1319 3.00007 11.8667C3.00329 11.6014 3.11176 11.3483 3.30162 11.1631L8.30162 6.28427C8.69691 5.89857 9.33003 5.90633 9.71573 6.30162C10.1014 6.69691 10.0937 7.33002 9.69838 7.71573L6.33251 11L20 11Z" fill="#2B2B2B"/>
</svg>
