<svg width="1920" height="1016" viewBox="0 0 1920 1016" fill="none" xmlns="http://www.w3.org/2000/svg">
<path d="M952 -998L952.211 1011.98L1162.52 -986.967L952.63 1012.02L1370.73 -953.989L953.042 1012.11L1574.36 -899.428L953.443 1012.24L1771.17 -823.88L953.829 1012.41L1959 -728.175L954.194 1012.62L2135.8 -613.36L954.535 1012.87L2299.63 -480.694L954.848 1013.15L2448.69 -331.629L955.13 1013.47L2581.36 -167.799L955.378 1013.81L2696.18 9L955.589 1014.17L2791.88 196.832L955.76 1014.56L2867.43 393.64L955.891 1014.96L2921.99 597.266L955.978 1015.37L2954.97 805.48L956.022 1015.79L2966 1016L956.022 1016.21L2954.97 1226.52L955.978 1016.63L2921.99 1434.73L955.891 1017.04L2867.43 1638.36L955.76 1017.44L2791.88 1835.17L955.589 1017.83L2696.18 2023L955.378 1018.19L2581.36 2199.8L955.13 1018.53L2448.69 2363.63L954.848 1018.85L2299.63 2512.69L954.535 1019.13L2135.8 2645.36L954.194 1019.38L1959 2760.18L953.829 1019.59L1771.17 2855.88L953.443 1019.76L1574.36 2931.43L953.042 1019.89L1370.73 2985.99L952.63 1019.98L1162.52 3018.97L952.211 1020.02L952 3030L951.789 1020.02L741.48 3018.97L951.37 1019.98L533.266 2985.99L950.958 1019.89L329.64 2931.43L950.557 1019.76L132.832 2855.88L950.171 1019.59L-55 2760.18L949.806 1019.38L-231.799 2645.36L949.465 1019.13L-395.629 2512.69L949.152 1018.85L-544.694 2363.63L948.87 1018.53L-677.36 2199.8L948.622 1018.19L-792.175 2023L948.411 1017.83L-887.88 1835.17L948.24 1017.44L-963.428 1638.36L948.109 1017.04L-1017.99 1434.73L948.022 1016.63L-1050.97 1226.52L947.978 1016.21L-1062 1016L947.978 1015.79L-1050.97 805.48L948.022 1015.37L-1017.99 597.266L948.109 1014.96L-963.428 393.64L948.24 1014.56L-887.88 196.832L948.411 1014.17L-792.175 9L948.622 1013.81L-677.36 -167.799L948.87 1013.47L-544.694 -331.629L949.152 1013.15L-395.629 -480.694L949.465 1012.87L-231.799 -613.36L949.806 1012.62L-55 -728.175L950.171 1012.41L132.832 -823.88L950.557 1012.24L329.64 -899.428L950.958 1012.11L533.266 -953.989L951.37 1012.02L741.48 -986.967L951.789 1011.98L952 -998Z" fill="url(#paint0_radial_221_12609)"/>
<defs>
<radialGradient id="paint0_radial_221_12609" cx="0" cy="0" r="1" gradientUnits="userSpaceOnUse" gradientTransform="translate(952 1031) rotate(90) scale(1238)">
<stop stop-color="white"/>
<stop offset="1" stop-color="white" stop-opacity="0"/>
</radialGradient>
</defs>
</svg>
