<svg width="594" height="843" viewBox="0 0 594 843" fill="none" xmlns="http://www.w3.org/2000/svg">
<path d="M357 -1387L357.211 622.978L567.52 -1375.97L357.63 623.022L775.734 -1342.99L358.042 623.109L979.36 -1288.43L358.443 623.24L1176.17 -1212.88L358.829 623.411L1364 -1117.18L359.194 623.622L1540.8 -1002.36L359.535 623.87L1704.63 -869.694L359.848 624.152L1853.69 -720.629L360.13 624.465L1986.36 -556.799L360.378 624.806L2101.18 -380L360.589 625.171L2196.88 -192.168L360.76 625.557L2272.43 4.63977L360.891 625.958L2326.99 208.266L360.978 626.37L2359.97 416.48L361.022 626.789L2371 627L361.022 627.211L2359.97 837.52L360.978 627.63L2326.99 1045.73L360.891 628.042L2272.43 1249.36L360.76 628.443L2196.88 1446.17L360.589 628.829L2101.18 1634L360.378 629.194L1986.36 1810.8L360.13 629.535L1853.69 1974.63L359.848 629.848L1704.63 2123.69L359.535 630.13L1540.8 2256.36L359.194 630.378L1364 2371.18L358.829 630.589L1176.17 2466.88L358.443 630.76L979.36 2542.43L358.042 630.891L775.734 2596.99L357.63 630.978L567.52 2629.97L357.211 631.022L357 2641L356.789 631.022L146.48 2629.97L356.37 630.978L-61.7341 2596.99L355.958 630.891L-265.36 2542.43L355.557 630.76L-462.168 2466.88L355.171 630.589L-650 2371.18L354.806 630.378L-826.799 2256.36L354.465 630.13L-990.629 2123.69L354.152 629.848L-1139.69 1974.63L353.87 629.535L-1272.36 1810.8L353.622 629.194L-1387.18 1634L353.411 628.829L-1482.88 1446.17L353.24 628.443L-1558.43 1249.36L353.109 628.042L-1612.99 1045.73L353.022 627.63L-1645.97 837.52L352.978 627.211L-1657 627L352.978 626.789L-1645.97 416.48L353.022 626.37L-1612.99 208.266L353.109 625.958L-1558.43 4.63977L353.24 625.557L-1482.88 -192.168L353.411 625.171L-1387.18 -380L353.622 624.806L-1272.36 -556.799L353.87 624.465L-1139.69 -720.629L354.152 624.152L-990.629 -869.694L354.465 623.87L-826.799 -1002.36L354.806 623.622L-650 -1117.18L355.171 623.411L-462.168 -1212.88L355.557 623.24L-265.36 -1288.43L355.958 623.109L-61.7341 -1342.99L356.37 623.022L146.48 -1375.97L356.789 622.978L357 -1387Z" fill="white" fill-opacity="0.56"/>
</svg>
