<svg width="1488" height="432" viewBox="0 0 1488 432" fill="none" xmlns="http://www.w3.org/2000/svg">
<path d="M1251 -1798L1251.21 211.978L1461.52 -1786.97L1251.63 212.022L1669.73 -1753.99L1252.04 212.109L1873.36 -1699.43L1252.44 212.24L2070.17 -1623.88L1252.83 212.411L2258 -1528.18L1253.19 212.622L2434.8 -1413.36L1253.53 212.87L2598.63 -1280.69L1253.85 213.152L2747.69 -1131.63L1254.13 213.465L2880.36 -967.799L1254.38 213.806L2995.18 -791L1254.59 214.171L3090.88 -603.168L1254.76 214.557L3166.43 -406.36L1254.89 214.958L3220.99 -202.734L1254.98 215.37L3253.97 5.47974L1255.02 215.789L3265 216L1255.02 216.211L3253.97 426.52L1254.98 216.63L3220.99 634.734L1254.89 217.042L3166.43 838.36L1254.76 217.443L3090.88 1035.17L1254.59 217.829L2995.18 1223L1254.38 218.194L2880.36 1399.8L1254.13 218.535L2747.69 1563.63L1253.85 218.848L2598.63 1712.69L1253.53 219.13L2434.8 1845.36L1253.19 219.378L2258 1960.18L1252.83 219.589L2070.17 2055.88L1252.44 219.76L1873.36 2131.43L1252.04 219.891L1669.73 2185.99L1251.63 219.978L1461.52 2218.97L1251.21 220.022L1251 2230L1250.79 220.022L1040.48 2218.97L1250.37 219.978L832.266 2185.99L1249.96 219.891L628.64 2131.43L1249.56 219.76L431.832 2055.88L1249.17 219.589L244 1960.18L1248.81 219.378L67.2006 1845.36L1248.47 219.13L-96.629 1712.69L1248.15 218.848L-245.694 1563.63L1247.87 218.535L-378.36 1399.8L1247.62 218.194L-493.175 1223L1247.41 217.829L-588.88 1035.17L1247.24 217.443L-664.428 838.36L1247.11 217.042L-718.989 634.734L1247.02 216.63L-751.967 426.52L1246.98 216.211L-763 216L1246.98 215.789L-751.967 5.47974L1247.02 215.37L-718.989 -202.734L1247.11 214.958L-664.428 -406.36L1247.24 214.557L-588.88 -603.168L1247.41 214.171L-493.175 -791L1247.62 213.806L-378.36 -967.799L1247.87 213.465L-245.694 -1131.63L1248.15 213.152L-96.629 -1280.69L1248.47 212.87L67.2006 -1413.36L1248.81 212.622L244 -1528.18L1249.17 212.411L431.832 -1623.88L1249.56 212.24L628.64 -1699.43L1249.96 212.109L832.266 -1753.99L1250.37 212.022L1040.48 -1786.97L1250.79 211.978L1251 -1798Z" fill="white" fill-opacity="0.56"/>
</svg>
