<svg width="16" height="16" viewBox="0 0 16 16" fill="none" xmlns="http://www.w3.org/2000/svg">
<path d="M14.4801 13.5425L12.0082 11.0888C12.9677 9.89154 13.4324 8.37188 13.3067 6.8423C13.181 5.31271 12.4744 3.88946 11.3323 2.8652C10.1902 1.84094 8.69941 1.29352 7.1664 1.3355C5.63339 1.37748 4.17471 2.00567 3.0903 3.0909C2.00589 4.17614 1.37818 5.63592 1.33623 7.1701C1.29428 8.70427 1.84129 10.1962 2.86477 11.3392C3.88825 12.4821 5.31042 13.1892 6.83885 13.315C8.36727 13.4409 9.88577 12.9758 11.0821 12.0156L13.534 14.4694C13.5959 14.5319 13.6696 14.5815 13.7508 14.6153C13.832 14.6492 13.9191 14.6666 14.0071 14.6666C14.095 14.6666 14.1821 14.6492 14.2633 14.6153C14.3445 14.5815 14.4182 14.5319 14.4801 14.4694C14.6002 14.345 14.6673 14.1789 14.6673 14.0059C14.6673 13.833 14.6002 13.6669 14.4801 13.5425ZM7.34435 12.0156C6.42191 12.0156 5.5202 11.7419 4.75322 11.229C3.98625 10.7161 3.38847 9.98719 3.03547 9.13433C2.68247 8.28147 2.59011 7.343 2.77007 6.43761C2.95002 5.53221 3.39422 4.70056 4.04647 4.0478C4.69873 3.39505 5.52976 2.95052 6.43446 2.77042C7.33917 2.59033 8.27693 2.68276 9.12914 3.03603C9.98136 3.3893 10.7098 3.98753 11.2222 4.75509C11.7347 5.52265 12.0082 6.42505 12.0082 7.34818C12.0082 8.58606 11.5169 9.77324 10.6422 10.6486C9.76757 11.5239 8.58129 12.0156 7.34435 12.0156Z" fill="#141721"/>
</svg>
