<svg width="32" height="32" viewBox="0 0 32 32" fill="none" xmlns="http://www.w3.org/2000/svg">
<circle cx="16" cy="16" r="16" fill="#163939"/>
<path d="M24.9469 9.61339C24.823 9.48842 24.6755 9.38923 24.513 9.32154C24.3505 9.25384 24.1763 9.21899 24.0003 9.21899C23.8242 9.21899 23.65 9.25384 23.4875 9.32154C23.325 9.38923 23.1775 9.48842 23.0536 9.61339L13.1203 19.5601L8.94693 15.3734C8.81823 15.2491 8.66631 15.1513 8.49983 15.0857C8.33336 15.0201 8.1556 14.9879 7.97669 14.991C7.79778 14.9941 7.62123 15.0324 7.45713 15.1038C7.29303 15.1751 7.14458 15.278 7.02026 15.4067C6.89594 15.5354 6.79819 15.6873 6.73258 15.8538C6.66698 16.0203 6.6348 16.1981 6.6379 16.377C6.64099 16.5559 6.6793 16.7324 6.75062 16.8965C6.82195 17.0606 6.9249 17.2091 7.05359 17.3334L12.1736 22.4534C12.2975 22.5784 12.445 22.6776 12.6075 22.7452C12.77 22.8129 12.9442 22.8478 13.1203 22.8478C13.2963 22.8478 13.4705 22.8129 13.633 22.7452C13.7955 22.6776 13.943 22.5784 14.0669 22.4534L24.9469 11.5734C25.0823 11.4485 25.1903 11.297 25.2642 11.1283C25.338 10.9597 25.3762 10.7775 25.3762 10.5934C25.3762 10.4093 25.338 10.2271 25.2642 10.0585C25.1903 9.88978 25.0823 9.73825 24.9469 9.61339V9.61339Z" fill="#B7F2A2"/>
</svg>
