<svg width="24" height="24" viewBox="0 0 24 24" fill="none" xmlns="http://www.w3.org/2000/svg">
<path fill-rule="evenodd" clip-rule="evenodd" d="M4 11C3.44771 11 3 11.4477 3 12C3 12.5523 3.44772 13 4 13L17.5077 13L14.2845 16.3014C13.8987 16.6966 13.9062 17.3297 14.3014 17.7155C14.6966 18.1013 15.3297 18.0938 15.7155 17.6986L20.7155 12.5774C20.9008 12.3876 21.0031 12.1319 20.9999 11.8667C20.9967 11.6014 20.8882 11.3483 20.6984 11.1631L15.6984 6.28427C15.3031 5.89857 14.67 5.90633 14.2843 6.30162C13.8986 6.69691 13.9063 7.33002 14.3016 7.71573L17.6675 11L4 11Z" fill="#016D71"/>
</svg>
