<svg width="56" height="56" viewBox="0 0 56 56" fill="none" xmlns="http://www.w3.org/2000/svg">
<circle cx="28" cy="28" r="28" fill="#163939"/>
<path fill-rule="evenodd" clip-rule="evenodd" d="M20 27C19.4477 27 19 27.4477 19 28C19 28.5523 19.4477 29 20 29L33.5077 29L30.2845 32.3014C29.8987 32.6966 29.9062 33.3297 30.3014 33.7155C30.6966 34.1013 31.3297 34.0938 31.7155 33.6986L36.7155 28.5774C36.9008 28.3876 37.0031 28.1319 36.9999 27.8667C36.9967 27.6014 36.8882 27.3483 36.6984 27.1631L31.6984 22.2843C31.3031 21.8986 30.67 21.9063 30.2843 22.3016C29.8986 22.6969 29.9063 23.33 30.3016 23.7157L33.6675 27L20 27Z" fill="white"/>
</svg>
