<svg width="1388" height="808" viewBox="0 0 1388 808" fill="none" xmlns="http://www.w3.org/2000/svg">
<path d="M1000 -1522L1000.21 487.978L1210.52 -1510.97L1000.63 488.022L1418.73 -1477.99L1001.04 488.109L1622.36 -1423.43L1001.44 488.24L1819.17 -1347.88L1001.83 488.411L2007 -1252.18L1002.19 488.622L2183.8 -1137.36L1002.53 488.87L2347.63 -1004.69L1002.85 489.152L2496.69 -855.629L1003.13 489.465L2629.36 -691.799L1003.38 489.806L2744.18 -515L1003.59 490.171L2839.88 -327.168L1003.76 490.557L2915.43 -130.36L1003.89 490.958L2969.99 73.2659L1003.98 491.37L3002.97 281.48L1004.02 491.789L3014 492L1004.02 492.211L3002.97 702.52L1003.98 492.63L2969.99 910.734L1003.89 493.042L2915.43 1114.36L1003.76 493.443L2839.88 1311.17L1003.59 493.829L2744.18 1499L1003.38 494.194L2629.36 1675.8L1003.13 494.535L2496.69 1839.63L1002.85 494.848L2347.63 1988.69L1002.53 495.13L2183.8 2121.36L1002.19 495.378L2007 2236.18L1001.83 495.589L1819.17 2331.88L1001.44 495.76L1622.36 2407.43L1001.04 495.891L1418.73 2461.99L1000.63 495.978L1210.52 2494.97L1000.21 496.022L1000 2506L999.789 496.022L789.48 2494.97L999.37 495.978L581.266 2461.99L998.958 495.891L377.64 2407.43L998.557 495.76L180.832 2331.88L998.171 495.589L-7 2236.18L997.806 495.378L-183.799 2121.36L997.465 495.13L-347.629 1988.69L997.152 494.848L-496.694 1839.63L996.87 494.535L-629.36 1675.8L996.622 494.194L-744.175 1499L996.411 493.829L-839.88 1311.17L996.24 493.443L-915.428 1114.36L996.109 493.042L-969.989 910.734L996.022 492.63L-1002.97 702.52L995.978 492.211L-1014 492L995.978 491.789L-1002.97 281.48L996.022 491.37L-969.989 73.2659L996.109 490.958L-915.428 -130.36L996.24 490.557L-839.88 -327.168L996.411 490.171L-744.175 -515L996.622 489.806L-629.36 -691.799L996.87 489.465L-496.694 -855.629L997.152 489.152L-347.629 -1004.69L997.465 488.87L-183.799 -1137.36L997.806 488.622L-7 -1252.18L998.171 488.411L180.832 -1347.88L998.557 488.24L377.64 -1423.43L998.958 488.109L581.266 -1477.99L999.37 488.022L789.48 -1510.97L999.789 487.978L1000 -1522Z" fill="url(#paint0_linear_711_15272)"/>
<defs>
<linearGradient id="paint0_linear_711_15272" x1="1000" y1="103" x2="1000" y2="809" gradientUnits="userSpaceOnUse">
<stop stop-color="white"/>
<stop offset="1" stop-color="white" stop-opacity="0"/>
</linearGradient>
</defs>
</svg>
