<svg width="48" height="48" viewBox="0 0 48 48" fill="none" xmlns="http://www.w3.org/2000/svg">
<path d="M0 8C0 3.58172 3.58172 0 8 0H40C44.4183 0 48 3.58172 48 8V40C48 44.4183 44.4183 48 40 48H8C3.58172 48 0 44.4183 0 40V8Z" fill="#F7FAFF"/>
<path fill-rule="evenodd" clip-rule="evenodd" d="M37.6668 17.6986V26.7008L37.6668 26.7007C37.6668 27.178 37.4808 27.636 37.1502 27.9736C36.8196 28.3114 36.3709 28.501 35.9032 28.501H27.0859V24.9001H31.6446L21.5047 14.5475L23.9999 12L34.1398 22.3525V17.6986H37.6668ZM16.3557 23.0999L26.4956 33.4524L24.0003 36L13.8605 25.6475V30.3014H10.3335V21.2992C10.3335 20.822 10.5195 20.3639 10.8501 20.0264C11.1807 19.6886 11.6294 19.4989 12.0971 19.4989H20.9144V23.0999H16.3557Z" fill="#163939"/>
</svg>
