<?xml version="1.0" encoding="UTF-8"?> <svg xmlns="http://www.w3.org/2000/svg" width="74" height="72" viewBox="0 0 74 72" fill="none"><ellipse cx="35.0862" cy="37.1101" rx="35.0862" ry="34.8899" fill="#016D71"></ellipse><path d="M73.5254 34.8899C73.5254 53.8946 58.0316 69.3056 38.9134 69.3056C19.7951 69.3056 4.30129 53.8946 4.30129 34.8899C4.30129 15.8851 19.7951 0.474138 38.9134 0.474138C58.0316 0.474138 73.5254 15.8851 73.5254 34.8899Z" fill="url(#paint0_linear_827_26765)" stroke="#016D71" stroke-width="0.948276"></path><path d="M69.0602 34.8898C69.0602 51.4421 55.5657 64.865 38.9137 64.865C22.2617 64.865 8.76711 51.4421 8.76711 34.8898C8.76711 18.3374 22.2617 4.91457 38.9137 4.91457C55.5657 4.91457 69.0602 18.3374 69.0602 34.8898Z" stroke="#016D71" stroke-width="0.948276"></path><path fill-rule="evenodd" clip-rule="evenodd" d="M27.7497 16.9692C28.7773 16.9692 29.6104 17.7976 29.6104 18.8195V44.1073L35.7212 37.8797C36.4388 37.1484 37.6168 37.134 38.3523 37.8476C39.0878 38.5613 39.1023 39.7327 38.3846 40.464L29.307 49.7151C28.9623 50.0664 28.4913 50.2671 27.9978 50.2731C27.5043 50.279 27.0286 50.0897 26.6754 49.7469L17.1468 40.4958C16.4115 39.7819 16.3974 38.6105 17.1152 37.8793C17.8331 37.1482 19.0111 37.1342 19.7464 37.848L25.8891 43.8118V18.8195C25.8891 17.7976 26.7221 16.9692 27.7497 16.9692ZM50.0773 50.2732C51.1049 50.2732 51.9379 49.4448 51.9379 48.423V23.1351L58.0488 29.3627C58.7664 30.0941 59.9444 30.1085 60.6799 29.3948C61.4154 28.6812 61.4298 27.5098 60.7122 26.7784L51.6346 17.5273C51.2899 17.176 50.8189 16.9753 50.3254 16.9694C49.8319 16.9634 49.3562 17.1527 49.003 17.4956L39.4743 26.7467C38.7391 27.4605 38.725 28.6319 39.4428 29.3631C40.1607 30.0943 41.3387 30.1083 42.074 29.3944L48.2167 23.4307V48.423C48.2167 49.4448 49.0497 50.2732 50.0773 50.2732Z" fill="#016D71"></path><defs><linearGradient id="paint0_linear_827_26765" x1="73.9996" y1="27.5947" x2="5.94266" y2="44.1036" gradientUnits="userSpaceOnUse"><stop stop-color="#5CE1E6"></stop><stop offset="0.916667" stop-color="#94FBFF"></stop></linearGradient></defs></svg> 