<?xml version="1.0" encoding="UTF-8"?> <svg xmlns="http://www.w3.org/2000/svg" width="74" height="72" viewBox="0 0 74 72" fill="none"><ellipse cx="35.0862" cy="37.1101" rx="35.0862" ry="34.8899" fill="#016D71"></ellipse><path d="M73.5254 34.8899C73.5254 53.8946 58.0316 69.3056 38.9134 69.3056C19.7951 69.3056 4.30129 53.8946 4.30129 34.8899C4.30129 15.8851 19.7951 0.474138 38.9134 0.474138C58.0316 0.474138 73.5254 15.8851 73.5254 34.8899Z" fill="url(#paint0_linear_827_26775)" stroke="#016D71" stroke-width="0.948276"></path><path d="M69.0602 34.8898C69.0602 51.4421 55.5657 64.865 38.9137 64.865C22.2617 64.865 8.76711 51.4421 8.76711 34.8898C8.76711 18.3374 22.2617 4.91457 38.9137 4.91457C55.5657 4.91457 69.0602 18.3374 69.0602 34.8898Z" stroke="#016D71" stroke-width="0.948276"></path><path d="M38.2446 43.7271C36.2753 43.7271 34.6376 43.4474 33.3314 42.8879C32.0253 42.3084 31.0406 41.4991 30.3775 40.46C29.7144 39.4009 29.3828 38.162 29.3828 36.7433H33.8137C33.8137 37.3028 33.9644 37.8323 34.2659 38.3319C34.5673 38.8115 35.0496 39.2011 35.7127 39.5009C36.3758 39.7806 37.2198 39.9205 38.2446 39.9205C39.6111 39.9205 40.656 39.6807 41.3794 39.2011C42.1229 38.7215 42.4947 38.0821 42.4947 37.2828C42.4947 36.5834 42.1832 36.0139 41.5603 35.5743C40.9373 35.1147 39.9426 34.815 38.5762 34.6751L37.0389 34.5552C34.8888 34.3554 33.1807 33.716 31.9148 32.6369C30.6488 31.5379 30.0158 29.9892 30.0158 27.991C30.0158 26.6122 30.3273 25.4632 30.9502 24.544C31.5731 23.6049 32.4674 22.9055 33.6329 22.4459C34.7984 21.9663 36.195 21.7265 37.8226 21.7265C39.5709 21.7265 41.0378 21.9963 42.2234 22.5358C43.409 23.0753 44.3032 23.8547 44.9061 24.8738C45.529 25.8929 45.8405 27.1318 45.8405 28.5905H41.4096C41.4096 28.011 41.2689 27.5014 40.9876 27.0618C40.7263 26.6022 40.3345 26.2326 39.812 25.9528C39.2896 25.673 38.6264 25.5332 37.8226 25.5332C37.1193 25.5332 36.5165 25.6331 36.0141 25.8329C35.5117 26.0327 35.1299 26.3225 34.8687 26.7021C34.6075 27.0618 34.4769 27.4914 34.4769 27.991C34.4769 28.6105 34.7079 29.17 35.1701 29.6695C35.6323 30.1491 36.3959 30.4488 37.4609 30.5687L38.9982 30.6886C41.4096 30.8884 43.3387 31.5379 44.7855 32.6369C46.2323 33.7359 46.9557 35.2846 46.9557 37.2828C46.9557 38.6616 46.6141 39.8306 45.9309 40.7897C45.2477 41.7489 44.253 42.4782 42.9468 42.9778C41.6608 43.4773 40.0934 43.7271 38.2446 43.7271ZM36.1045 47.4738V43.0977H40.0532V47.4738H36.1045ZM35.984 23.1952V18.8191H39.9326V23.1952H35.984Z" fill="#016D71"></path><defs><linearGradient id="paint0_linear_827_26775" x1="73.9996" y1="27.5947" x2="5.94266" y2="44.1036" gradientUnits="userSpaceOnUse"><stop stop-color="#5CE1E6"></stop><stop offset="0.916667" stop-color="#94FBFF"></stop></linearGradient></defs></svg> 