<?xml version="1.0" encoding="UTF-8"?> <svg xmlns="http://www.w3.org/2000/svg" xmlns:xlink="http://www.w3.org/1999/xlink" width="22px" height="22px" viewBox="0 0 22 22" version="1.1"><g id="surface1"><path style=" stroke:none;fill-rule:evenodd;fill:rgb(0%,0%,0%);fill-opacity:1;" d="M 17.488281 9.789062 C 13.96875 7.699219 8.085938 7.480469 4.730469 8.527344 C 4.179688 8.691406 3.628906 8.359375 3.464844 7.863281 C 3.300781 7.316406 3.628906 6.765625 4.125 6.601562 C 8.03125 5.445312 14.464844 5.664062 18.535156 8.085938 C 19.03125 8.359375 19.195312 9.019531 18.917969 9.515625 C 18.644531 9.902344 17.984375 10.066406 17.488281 9.789062 Z M 17.378906 12.871094 C 17.105469 13.253906 16.609375 13.417969 16.222656 13.144531 C 13.253906 11.332031 8.746094 10.78125 5.28125 11.878906 C 4.839844 11.988281 4.34375 11.769531 4.234375 11.332031 C 4.125 10.890625 4.34375 10.394531 4.785156 10.285156 C 8.800781 9.074219 13.75 9.679688 17.160156 11.769531 C 17.488281 11.933594 17.65625 12.484375 17.378906 12.871094 Z M 16.058594 15.894531 C 15.839844 16.226562 15.457031 16.335938 15.125 16.113281 C 12.539062 14.519531 9.292969 14.191406 5.445312 15.070312 C 5.058594 15.179688 4.730469 14.90625 4.621094 14.574219 C 4.511719 14.191406 4.785156 13.859375 5.113281 13.75 C 9.292969 12.816406 12.925781 13.199219 15.785156 14.960938 C 16.167969 15.125 16.222656 15.566406 16.058594 15.894531 Z M 11 0 C 4.925781 0 0 4.925781 0 11 C 0 17.074219 4.925781 22 11 22 C 17.074219 22 22 17.074219 22 11 C 22 4.925781 17.074219 0 11 0 Z M 11 0 "></path></g></svg> 